%TF.GenerationSoftware,KiCad,Pcbnew,9.0.2*%
%TF.CreationDate,2025-06-10T19:07:21+03:00*%
%TF.ProjectId,project,70726f6a-6563-4742-9e6b-696361645f70,rev?*%
%TF.SameCoordinates,Original*%
%TF.FileFunction,Profile,NP*%
%FSLAX46Y46*%
G04 Gerber Fmt 4.6, Leading zero omitted, Abs format (unit mm)*
G04 Created by KiCad (PCBNEW 9.0.2) date 2025-06-10 19:07:21*
%MOMM*%
%LPD*%
G01*
G04 APERTURE LIST*
%TA.AperFunction,Profile*%
%ADD10C,0.200000*%
%TD*%
%ADD11C,0.200000*%
G04 APERTURE END LIST*
D10*
X104260001Y-142460001D02*
X104480001Y-141928001D01*
X136740001Y-95427999D02*
X136904001Y-95675999D01*
X140376001Y-114936000D02*
X140076001Y-114008000D01*
X95532000Y-118028000D02*
X95200000Y-118496000D01*
X112584001Y-148424001D02*
X112104001Y-148484001D01*
X134632001Y-135356001D02*
X134360001Y-135832001D01*
X104276001Y-138900001D02*
X104004001Y-138416001D01*
X135892001Y-132500001D02*
X135564001Y-133412001D01*
D11*
X142004001Y-120192000D02*
X142005531Y-120186037D01*
X142007039Y-120180079D01*
X142008523Y-120174135D01*
X142009986Y-120168195D01*
X142011424Y-120162269D01*
X142012841Y-120156347D01*
X142014234Y-120150439D01*
X142015605Y-120144535D01*
X142016952Y-120138645D01*
X142018278Y-120132759D01*
X142019581Y-120126887D01*
X142020862Y-120121019D01*
X142022120Y-120115165D01*
X142023356Y-120109314D01*
X142024569Y-120103477D01*
X142025761Y-120097644D01*
X142026929Y-120091824D01*
X142028077Y-120086009D01*
X142029201Y-120080206D01*
X142030304Y-120074408D01*
X142031385Y-120068622D01*
X142032444Y-120062840D01*
X142033481Y-120057071D01*
X142034496Y-120051307D01*
X142035489Y-120045554D01*
X142036461Y-120039807D01*
X142037411Y-120034071D01*
X142038340Y-120028339D01*
X142039246Y-120022620D01*
X142040132Y-120016905D01*
X142040995Y-120011202D01*
X142041838Y-120005503D01*
X142042658Y-119999816D01*
X142043458Y-119994133D01*
X142044236Y-119988462D01*
X142044993Y-119982795D01*
X142045729Y-119977139D01*
X142046443Y-119971488D01*
X142047136Y-119965848D01*
X142047809Y-119960213D01*
X142048460Y-119954588D01*
X142049090Y-119948968D01*
X142049699Y-119943359D01*
X142050287Y-119937754D01*
X142050854Y-119932159D01*
X142051401Y-119926570D01*
X142051926Y-119920990D01*
X142052431Y-119915415D01*
X142052915Y-119909851D01*
X142053379Y-119904291D01*
X142053821Y-119898741D01*
X142054243Y-119893195D01*
X142054644Y-119887660D01*
X142055025Y-119882129D01*
X142055385Y-119876608D01*
X142055725Y-119871091D01*
X142056044Y-119865584D01*
X142056343Y-119860081D01*
X142056622Y-119854589D01*
X142056880Y-119849100D01*
X142057117Y-119843621D01*
X142057335Y-119838146D01*
X142057532Y-119832681D01*
X142057708Y-119827219D01*
X142057865Y-119821767D01*
X142058001Y-119816320D01*
X142058117Y-119810881D01*
X142058213Y-119805447D01*
X142058289Y-119800022D01*
X142058345Y-119794601D01*
X142058381Y-119789188D01*
X142058396Y-119783780D01*
X142058392Y-119778381D01*
X142058368Y-119772986D01*
X142058323Y-119767599D01*
X142058259Y-119762216D01*
X142058175Y-119756842D01*
X142058071Y-119751472D01*
X142057947Y-119746111D01*
X142057803Y-119740753D01*
X142057639Y-119735404D01*
X142057456Y-119730059D01*
X142057252Y-119724721D01*
X142057029Y-119719388D01*
X142056786Y-119714063D01*
X142056523Y-119708742D01*
X142056241Y-119703428D01*
X142055939Y-119698119D01*
X142055617Y-119692817D01*
X142055275Y-119687519D01*
X142054914Y-119682229D01*
X142054533Y-119676943D01*
X142054133Y-119671663D01*
X142053713Y-119666389D01*
X142053273Y-119661121D01*
X142052814Y-119655857D01*
X142052335Y-119650600D01*
X142051836Y-119645347D01*
X142051318Y-119640101D01*
X142050780Y-119634860D01*
X142050223Y-119629624D01*
X142049646Y-119624393D01*
X142049050Y-119619169D01*
X142048434Y-119613948D01*
X142047799Y-119608734D01*
X142047144Y-119603524D01*
X142046469Y-119598320D01*
X142045775Y-119593120D01*
X142045062Y-119587926D01*
X142044329Y-119582737D01*
X142043577Y-119577553D01*
X142042805Y-119572373D01*
X142042013Y-119567199D01*
X142041202Y-119562029D01*
X142040372Y-119556865D01*
X142039522Y-119551705D01*
X142038653Y-119546550D01*
X142037764Y-119541400D01*
X142036856Y-119536254D01*
X142035928Y-119531113D01*
X142034981Y-119525977D01*
X142034014Y-119520845D01*
X142033027Y-119515718D01*
X142032022Y-119510595D01*
X142030996Y-119505477D01*
X142029952Y-119500363D01*
X142028887Y-119495254D01*
X142027803Y-119490149D01*
X142026700Y-119485049D01*
X142025577Y-119479953D01*
X142023273Y-119469773D01*
X142020890Y-119459610D01*
X142018429Y-119449464D01*
X142015890Y-119439334D01*
X142013273Y-119429220D01*
X142010576Y-119419122D01*
X142007801Y-119409039D01*
X142004948Y-119398971D01*
X142002015Y-119388919D01*
X141999003Y-119378881D01*
X141995912Y-119368858D01*
X141992742Y-119358848D01*
X141989492Y-119348853D01*
X141986163Y-119338871D01*
X141982753Y-119328903D01*
X141979264Y-119318948D01*
X141975694Y-119309006D01*
X141972044Y-119299077D01*
X141968313Y-119289160D01*
X141964502Y-119279256D01*
X141960609Y-119269363D01*
X141956635Y-119259482D01*
X141952579Y-119249613D01*
X141948441Y-119239755D01*
X141944221Y-119229908D01*
X141939919Y-119220072D01*
X141935534Y-119210247D01*
X141931066Y-119200433D01*
X141926515Y-119190628D01*
X141921881Y-119180834D01*
X141917162Y-119171049D01*
X141912360Y-119161274D01*
X141907472Y-119151509D01*
X141902500Y-119141753D01*
X141897443Y-119132006D01*
X141892300Y-119122268D01*
X141887071Y-119112538D01*
X141881756Y-119102818D01*
X141876354Y-119093105D01*
X141870866Y-119083401D01*
X141865290Y-119073705D01*
X141859626Y-119064016D01*
X141853873Y-119054335D01*
X141848033Y-119044662D01*
X141842103Y-119034996D01*
X141836083Y-119025338D01*
X141829974Y-119015686D01*
X141823774Y-119006042D01*
X141817484Y-118996404D01*
X141811102Y-118986773D01*
X141804629Y-118977148D01*
X141798063Y-118967530D01*
X141791405Y-118957918D01*
X141784654Y-118948312D01*
X141777808Y-118938713D01*
X141770869Y-118929119D01*
X141763836Y-118919530D01*
X141756707Y-118909948D01*
X141749482Y-118900371D01*
X141742161Y-118890800D01*
X141740001Y-118888000D01*
X103052001Y-109700000D02*
X103049849Y-109694259D01*
X103047691Y-109688559D01*
X103045539Y-109682933D01*
X103043381Y-109677346D01*
X103041229Y-109671832D01*
X103039072Y-109666357D01*
X103036921Y-109660954D01*
X103034764Y-109655590D01*
X103032614Y-109650296D01*
X103030458Y-109645041D01*
X103028308Y-109639855D01*
X103026153Y-109634708D01*
X103024005Y-109629628D01*
X103021851Y-109624587D01*
X103019704Y-109619612D01*
X103017551Y-109614675D01*
X103015405Y-109609805D01*
X103013253Y-109604971D01*
X103011109Y-109600202D01*
X103008959Y-109595470D01*
X103006816Y-109590802D01*
X103004668Y-109586170D01*
X103002527Y-109581601D01*
X103000381Y-109577068D01*
X102998242Y-109572597D01*
X102996097Y-109568162D01*
X102993960Y-109563787D01*
X102991817Y-109559447D01*
X102989682Y-109555168D01*
X102987542Y-109550923D01*
X102985409Y-109546737D01*
X102983271Y-109542586D01*
X102981141Y-109538492D01*
X102979005Y-109534432D01*
X102976877Y-109530430D01*
X102974744Y-109526461D01*
X102972619Y-109522548D01*
X102970488Y-109518668D01*
X102968366Y-109514844D01*
X102966238Y-109511051D01*
X102964118Y-109507314D01*
X102961993Y-109503609D01*
X102959876Y-109499957D01*
X102957754Y-109496337D01*
X102955639Y-109492769D01*
X102953520Y-109489233D01*
X102951409Y-109485749D01*
X102949293Y-109482296D01*
X102947185Y-109478893D01*
X102945072Y-109475522D01*
X102942966Y-109472200D01*
X102940857Y-109468908D01*
X102938755Y-109465666D01*
X102936648Y-109462453D01*
X102934549Y-109459289D01*
X102932446Y-109456155D01*
X102930351Y-109453068D01*
X102928251Y-109450009D01*
X102926158Y-109446998D01*
X102924062Y-109444015D01*
X102921973Y-109441079D01*
X102919879Y-109438170D01*
X102917794Y-109435307D01*
X102915704Y-109432472D01*
X102913622Y-109429681D01*
X102911535Y-109426917D01*
X102909457Y-109424197D01*
X102907374Y-109421505D01*
X102905298Y-109418855D01*
X102903219Y-109416232D01*
X102901147Y-109413651D01*
X102899070Y-109411097D01*
X102897002Y-109408584D01*
X102894929Y-109406097D01*
X102892864Y-109403651D01*
X102890794Y-109401231D01*
X102888732Y-109398850D01*
X102886666Y-109396495D01*
X102884608Y-109394179D01*
X102882545Y-109391889D01*
X102880489Y-109389636D01*
X102878430Y-109387409D01*
X102876378Y-109385219D01*
X102874322Y-109383055D01*
X102872272Y-109380926D01*
X102870219Y-109378823D01*
X102868173Y-109376755D01*
X102866123Y-109374712D01*
X102864080Y-109372704D01*
X102862034Y-109370721D01*
X102859993Y-109368772D01*
X102857949Y-109366846D01*
X102855912Y-109364955D01*
X102853871Y-109363088D01*
X102851836Y-109361253D01*
X102849798Y-109359442D01*
X102847766Y-109357664D01*
X102845730Y-109355909D01*
X102843701Y-109354185D01*
X102841667Y-109352485D01*
X102839640Y-109350816D01*
X102837609Y-109349170D01*
X102835584Y-109347554D01*
X102833556Y-109345962D01*
X102831533Y-109344399D01*
X102829507Y-109342858D01*
X102827486Y-109341347D01*
X102825461Y-109339859D01*
X102823442Y-109338399D01*
X102821419Y-109336961D01*
X102819401Y-109335551D01*
X102817380Y-109334164D01*
X102815364Y-109332804D01*
X102813344Y-109331465D01*
X102811329Y-109330154D01*
X102809311Y-109328865D01*
X102807297Y-109327602D01*
X102805279Y-109326361D01*
X102803266Y-109325146D01*
X102801249Y-109323952D01*
X102799237Y-109322783D01*
X102797221Y-109321636D01*
X102795208Y-109320514D01*
X102793193Y-109319413D01*
X102791180Y-109318337D01*
X102789165Y-109317282D01*
X102787152Y-109316251D01*
X102785137Y-109315241D01*
X102783124Y-109314254D01*
X102781108Y-109313288D01*
X102779094Y-109312346D01*
X102777077Y-109311424D01*
X102775063Y-109310526D01*
X102773045Y-109309648D01*
X102771030Y-109308792D01*
X102769011Y-109307957D01*
X102766994Y-109307144D01*
X102764973Y-109306352D01*
X102762954Y-109305581D01*
X102760932Y-109304831D01*
X102758911Y-109304103D01*
X102756887Y-109303394D01*
X102754863Y-109302707D01*
X102752836Y-109302041D01*
X102750810Y-109301395D01*
X102748781Y-109300769D01*
X102746751Y-109300165D01*
X102744719Y-109299580D01*
X102742686Y-109299016D01*
X102740650Y-109298472D01*
X102738613Y-109297948D01*
X102736574Y-109297445D01*
X102734533Y-109296961D01*
X102732489Y-109296498D01*
X102730444Y-109296054D01*
X102728396Y-109295631D01*
X102726346Y-109295227D01*
X102724293Y-109294844D01*
X102722237Y-109294480D01*
X102720179Y-109294136D01*
X102718118Y-109293812D01*
X102716055Y-109293508D01*
X102711918Y-109292958D01*
X102707769Y-109292488D01*
X102703607Y-109292097D01*
X102699430Y-109291785D01*
X102695238Y-109291552D01*
X102691031Y-109291398D01*
X102686807Y-109291324D01*
X102682566Y-109291329D01*
X102678306Y-109291415D01*
X102674028Y-109291581D01*
X102669730Y-109291828D01*
X102665411Y-109292156D01*
X102661071Y-109292566D01*
X102656709Y-109293059D01*
X102652324Y-109293635D01*
X102647915Y-109294295D01*
X102643482Y-109295040D01*
X102639023Y-109295870D01*
X102634538Y-109296787D01*
X102630025Y-109297791D01*
X102625485Y-109298883D01*
X102620917Y-109300064D01*
X102616319Y-109301336D01*
X102611691Y-109302700D01*
X102607032Y-109304156D01*
X102602341Y-109305706D01*
X102597618Y-109307351D01*
X102592861Y-109309092D01*
X102588071Y-109310932D01*
X102583245Y-109312871D01*
X102578384Y-109314910D01*
X102573487Y-109317052D01*
X102568553Y-109319297D01*
X102563581Y-109321648D01*
X102558571Y-109324105D01*
X102553521Y-109326671D01*
X102548431Y-109329348D01*
X102543301Y-109332136D01*
X102538129Y-109335038D01*
X102532916Y-109338056D01*
X102527659Y-109341191D01*
X102522360Y-109344445D01*
X102517016Y-109347821D01*
X102511627Y-109351320D01*
X102506193Y-109354944D01*
X102500713Y-109358695D01*
X102495186Y-109362575D01*
X102489611Y-109366587D01*
X102483989Y-109370732D01*
X102478317Y-109375013D01*
X102472597Y-109379431D01*
X102466826Y-109383990D01*
X102461005Y-109388691D01*
X102455132Y-109393536D01*
X102449207Y-109398529D01*
X102443230Y-109403670D01*
X102437200Y-109408963D01*
X102431116Y-109414410D01*
X102424978Y-109420013D01*
X102418785Y-109425775D01*
X102412536Y-109431699D01*
X102406231Y-109437786D01*
X102399869Y-109444039D01*
X102393450Y-109450462D01*
X102386973Y-109457056D01*
X102380437Y-109463824D01*
X102373843Y-109470769D01*
X102367188Y-109477893D01*
X102360473Y-109485199D01*
X102353698Y-109492690D01*
X102346861Y-109500369D01*
X102339961Y-109508238D01*
X102333000Y-109516300D01*
X102325975Y-109524559D01*
X102318886Y-109533016D01*
X102311733Y-109541674D01*
X102304515Y-109550537D01*
X102297232Y-109559608D01*
X102289882Y-109568889D01*
X102282466Y-109578384D01*
X102274983Y-109588094D01*
X102272001Y-109592000D01*
D10*
X100516001Y-98619999D02*
X100832001Y-98159999D01*
X136080001Y-131824001D02*
X135892001Y-132500001D01*
X104568001Y-148552001D02*
X104212001Y-148248001D01*
X130368001Y-70087998D02*
X130112001Y-70267998D01*
X131140001Y-148380001D02*
X130500001Y-148296001D01*
X138304001Y-144612001D02*
X138592001Y-144984001D01*
X95780000Y-108112000D02*
X96104000Y-107228000D01*
D11*
X138048001Y-110904000D02*
X138046145Y-110898279D01*
X138044280Y-110892597D01*
X138042418Y-110886986D01*
X138040548Y-110881413D01*
X138038680Y-110875911D01*
X138036803Y-110870446D01*
X138034929Y-110865051D01*
X138033047Y-110859693D01*
X138031168Y-110854403D01*
X138029280Y-110849150D01*
X138027396Y-110843964D01*
X138025503Y-110838815D01*
X138023613Y-110833732D01*
X138021715Y-110828684D01*
X138019821Y-110823703D01*
X138017918Y-110818756D01*
X138016019Y-110813874D01*
X138014112Y-110809027D01*
X138012208Y-110804243D01*
X138010297Y-110799494D01*
X138008388Y-110794807D01*
X138006473Y-110790154D01*
X138004560Y-110785563D01*
X138002641Y-110781005D01*
X138000725Y-110776508D01*
X137998801Y-110772044D01*
X137996881Y-110767640D01*
X137994954Y-110763268D01*
X137993030Y-110758955D01*
X137991099Y-110754675D01*
X137989173Y-110750452D01*
X137987238Y-110746261D01*
X137985308Y-110742127D01*
X137983371Y-110738025D01*
X137981438Y-110733979D01*
X137979497Y-110729964D01*
X137977561Y-110726003D01*
X137975618Y-110722074D01*
X137973679Y-110718198D01*
X137971733Y-110714354D01*
X137969791Y-110710562D01*
X137967842Y-110706801D01*
X137965898Y-110703091D01*
X137963947Y-110699412D01*
X137962000Y-110695784D01*
X137960047Y-110692185D01*
X137958098Y-110688637D01*
X137956142Y-110685118D01*
X137954191Y-110681649D01*
X137952233Y-110678209D01*
X137950280Y-110674817D01*
X137948320Y-110671453D01*
X137946365Y-110668138D01*
X137944403Y-110664851D01*
X137942446Y-110661610D01*
X137940482Y-110658398D01*
X137938523Y-110655232D01*
X137936558Y-110652093D01*
X137934597Y-110649000D01*
X137932630Y-110645934D01*
X137930668Y-110642913D01*
X137928700Y-110639918D01*
X137926736Y-110636968D01*
X137924766Y-110634044D01*
X137922800Y-110631163D01*
X137920829Y-110628308D01*
X137918862Y-110625495D01*
X137916889Y-110622709D01*
X137914921Y-110619964D01*
X137912946Y-110617245D01*
X137910977Y-110614566D01*
X137909001Y-110611913D01*
X137907030Y-110609299D01*
X137905053Y-110606712D01*
X137903080Y-110604163D01*
X137901102Y-110601639D01*
X137899128Y-110599153D01*
X137897149Y-110596693D01*
X137895174Y-110594270D01*
X137893193Y-110591871D01*
X137891216Y-110589509D01*
X137889234Y-110587172D01*
X137887257Y-110584871D01*
X137885273Y-110582594D01*
X137883294Y-110580352D01*
X137881309Y-110578134D01*
X137879329Y-110575951D01*
X137877343Y-110573792D01*
X137875361Y-110571667D01*
X137873373Y-110569565D01*
X137871390Y-110567496D01*
X137869401Y-110565451D01*
X137867416Y-110563439D01*
X137865425Y-110561449D01*
X137863439Y-110559492D01*
X137861447Y-110557558D01*
X137859458Y-110555654D01*
X137857465Y-110553774D01*
X137855475Y-110551924D01*
X137853479Y-110550097D01*
X137851487Y-110548301D01*
X137849490Y-110546526D01*
X137847496Y-110544781D01*
X137845497Y-110543058D01*
X137843501Y-110541364D01*
X137841500Y-110539693D01*
X137839502Y-110538049D01*
X137837498Y-110536428D01*
X137835498Y-110534834D01*
X137833492Y-110533262D01*
X137831489Y-110531717D01*
X137829481Y-110530194D01*
X137827475Y-110528698D01*
X137825464Y-110527223D01*
X137823456Y-110525774D01*
X137821442Y-110524347D01*
X137819431Y-110522945D01*
X137817414Y-110521565D01*
X137815400Y-110520209D01*
X137813380Y-110518875D01*
X137811362Y-110517566D01*
X137809339Y-110516277D01*
X137807317Y-110515013D01*
X137805291Y-110513770D01*
X137803266Y-110512551D01*
X137801235Y-110511352D01*
X137799206Y-110510177D01*
X137797172Y-110509022D01*
X137795138Y-110507890D01*
X137793100Y-110506779D01*
X137791062Y-110505691D01*
X137789019Y-110504623D01*
X137786976Y-110503578D01*
X137784929Y-110502552D01*
X137782881Y-110501549D01*
X137780829Y-110500566D01*
X137778776Y-110499605D01*
X137776718Y-110498663D01*
X137774660Y-110497744D01*
X137772596Y-110496844D01*
X137770532Y-110495965D01*
X137768463Y-110495107D01*
X137766393Y-110494269D01*
X137764318Y-110493451D01*
X137762241Y-110492654D01*
X137760159Y-110491876D01*
X137758076Y-110491119D01*
X137755988Y-110490382D01*
X137753897Y-110489665D01*
X137751802Y-110488967D01*
X137749704Y-110488290D01*
X137747602Y-110487632D01*
X137745496Y-110486995D01*
X137743386Y-110486376D01*
X137741272Y-110485778D01*
X137739154Y-110485199D01*
X137737032Y-110484640D01*
X137734905Y-110484100D01*
X137732775Y-110483580D01*
X137730639Y-110483079D01*
X137726355Y-110482137D01*
X137722052Y-110481271D01*
X137717729Y-110480484D01*
X137713385Y-110479774D01*
X137709021Y-110479142D01*
X137704634Y-110478587D01*
X137700224Y-110478111D01*
X137695791Y-110477712D01*
X137691334Y-110477391D01*
X137686851Y-110477149D01*
X137682342Y-110476986D01*
X137677807Y-110476901D01*
X137673244Y-110476897D01*
X137668652Y-110476972D01*
X137664030Y-110477128D01*
X137659379Y-110477365D01*
X137654696Y-110477684D01*
X137649982Y-110478086D01*
X137645235Y-110478570D01*
X137640453Y-110479139D01*
X137635638Y-110479792D01*
X137630787Y-110480531D01*
X137625900Y-110481357D01*
X137620975Y-110482270D01*
X137616013Y-110483272D01*
X137611011Y-110484363D01*
X137605970Y-110485545D01*
X137600889Y-110486819D01*
X137595765Y-110488186D01*
X137590600Y-110489647D01*
X137585391Y-110491204D01*
X137580138Y-110492858D01*
X137574840Y-110494610D01*
X137569496Y-110496461D01*
X137564105Y-110498414D01*
X137558667Y-110500469D01*
X137553181Y-110502628D01*
X137547645Y-110504893D01*
X137542058Y-110507265D01*
X137536421Y-110509745D01*
X137530732Y-110512337D01*
X137524990Y-110515040D01*
X137519194Y-110517857D01*
X137513344Y-110520790D01*
X137507438Y-110523841D01*
X137501476Y-110527010D01*
X137495457Y-110530301D01*
X137489380Y-110533715D01*
X137483245Y-110537255D01*
X137477049Y-110540921D01*
X137470793Y-110544716D01*
X137464476Y-110548642D01*
X137458096Y-110552702D01*
X137451653Y-110556897D01*
X137445146Y-110561229D01*
X137438574Y-110565700D01*
X137431937Y-110570314D01*
X137425233Y-110575071D01*
X137418461Y-110579975D01*
X137411621Y-110585027D01*
X137404712Y-110590230D01*
X137397733Y-110595586D01*
X137390683Y-110601098D01*
X137383561Y-110606768D01*
X137376366Y-110612598D01*
X137369098Y-110618592D01*
X137361755Y-110624750D01*
X137354337Y-110631077D01*
X137346842Y-110637573D01*
X137339271Y-110644243D01*
X137331621Y-110651089D01*
X137323892Y-110658113D01*
X137316084Y-110665318D01*
X137308195Y-110672707D01*
X137300224Y-110680282D01*
X137292171Y-110688046D01*
X137284034Y-110696002D01*
X137275812Y-110704153D01*
X137268001Y-110712000D01*
D10*
X96820001Y-116036000D02*
X96508000Y-116532000D01*
X99524001Y-144984001D02*
X99784001Y-144936001D01*
X128584001Y-71451998D02*
X128500001Y-71715998D01*
X112104001Y-148484001D02*
X111620001Y-148412001D01*
X110576001Y-69039998D02*
X110932001Y-68643998D01*
X100876001Y-131060001D02*
X100556001Y-130124001D01*
X103296001Y-136912001D02*
X102884001Y-136072001D01*
D11*
X112008001Y-145376001D02*
X112020863Y-145391252D01*
X112036104Y-145409200D01*
X112053992Y-145430143D01*
X112074809Y-145454393D01*
X112098849Y-145482278D01*
X112126427Y-145514146D01*
X112157889Y-145550386D01*
X112193655Y-145591469D01*
X112234341Y-145638092D01*
X112281245Y-145691736D01*
X112319574Y-145735525D01*
X112348001Y-145768001D01*
D10*
X101444001Y-110160000D02*
X101236001Y-110320000D01*
X133484001Y-66715998D02*
X133776001Y-66851998D01*
X103628001Y-142984001D02*
X103900001Y-142852001D01*
X101176001Y-97731999D02*
X101300001Y-97467999D01*
X140788001Y-115624000D02*
X140716001Y-115316000D01*
X141872001Y-104131999D02*
X142000001Y-104427999D01*
X109768001Y-70743998D02*
X109788001Y-70043998D01*
X142852001Y-106528000D02*
X143164001Y-107452000D01*
X143156001Y-126280000D02*
X142824001Y-126668000D01*
X140428001Y-101239999D02*
X140704001Y-101747999D01*
X103324001Y-112216000D02*
X103488001Y-111276000D01*
D11*
X125888001Y-147040001D02*
X125895098Y-147021187D01*
X125903716Y-146998563D01*
X125914196Y-146971270D01*
X125927073Y-146937953D01*
X125943352Y-146896040D01*
X125965742Y-146838582D01*
X125971251Y-146824456D01*
X125987556Y-146782644D01*
X126003867Y-146740754D01*
X126019937Y-146699362D01*
X126027805Y-146679032D01*
X126035519Y-146659043D01*
X126043049Y-146639465D01*
X126050364Y-146620372D01*
X126057432Y-146601834D01*
X126064224Y-146583925D01*
X126070708Y-146566714D01*
X126076853Y-146550276D01*
X126082627Y-146534681D01*
X126088001Y-146520001D01*
D10*
X114408001Y-66295998D02*
X114696001Y-66183998D01*
D11*
X109448001Y-78739998D02*
X109444603Y-78711197D01*
X109441226Y-78682397D01*
X109437875Y-78653651D01*
X109434544Y-78624906D01*
X109431240Y-78596214D01*
X109427956Y-78567523D01*
X109424698Y-78538886D01*
X109421461Y-78510249D01*
X109418250Y-78481666D01*
X109415058Y-78453083D01*
X109411893Y-78424553D01*
X109408749Y-78396023D01*
X109405630Y-78367546D01*
X109402531Y-78339069D01*
X109399458Y-78310644D01*
X109396405Y-78282220D01*
X109393378Y-78253848D01*
X109390371Y-78225475D01*
X109387390Y-78197155D01*
X109384429Y-78168834D01*
X109381493Y-78140565D01*
X109378578Y-78112295D01*
X109375688Y-78084077D01*
X109372818Y-78055859D01*
X109369973Y-78027691D01*
X109367148Y-77999523D01*
X109364349Y-77971406D01*
X109361570Y-77943289D01*
X109358816Y-77915221D01*
X109356082Y-77887154D01*
X109353372Y-77859135D01*
X109350683Y-77831117D01*
X109348019Y-77803149D01*
X109345375Y-77775180D01*
X109342756Y-77747260D01*
X109340156Y-77719340D01*
X109337582Y-77691468D01*
X109335027Y-77663596D01*
X109332497Y-77635773D01*
X109329988Y-77607950D01*
X109327502Y-77580174D01*
X109325037Y-77552398D01*
X109322596Y-77524670D01*
X109320175Y-77496942D01*
X109317778Y-77469261D01*
X109315401Y-77441579D01*
X109313049Y-77413945D01*
X109310716Y-77386311D01*
X109308408Y-77358723D01*
X109306120Y-77331135D01*
X109303855Y-77303593D01*
X109301611Y-77276051D01*
X109299391Y-77248555D01*
X109297190Y-77221060D01*
X109295014Y-77193609D01*
X109292857Y-77166159D01*
X109290724Y-77138753D01*
X109288611Y-77111348D01*
X109286522Y-77083988D01*
X109284453Y-77056627D01*
X109282407Y-77029311D01*
X109280381Y-77001995D01*
X109278379Y-76974724D01*
X109276397Y-76947452D01*
X109274438Y-76920225D01*
X109272499Y-76892997D01*
X109270583Y-76865813D01*
X109268688Y-76838629D01*
X109266815Y-76811488D01*
X109264963Y-76784348D01*
X109263133Y-76757250D01*
X109261324Y-76730153D01*
X109259537Y-76703098D01*
X109257771Y-76676043D01*
X109256027Y-76649031D01*
X109254304Y-76622019D01*
X109252603Y-76595049D01*
X109250922Y-76568079D01*
X109249264Y-76541151D01*
X109247627Y-76514223D01*
X109246011Y-76487336D01*
X109244416Y-76460450D01*
X109242843Y-76433605D01*
X109241290Y-76406760D01*
X109239760Y-76379956D01*
X109238250Y-76353152D01*
X109236762Y-76326389D01*
X109235294Y-76299626D01*
X109233849Y-76272903D01*
X109232423Y-76246181D01*
X109231020Y-76219498D01*
X109229637Y-76192816D01*
X109228276Y-76166174D01*
X109226934Y-76139532D01*
X109225615Y-76112929D01*
X109224316Y-76086327D01*
X109223039Y-76059764D01*
X109221783Y-76033201D01*
X109220547Y-76006678D01*
X109219332Y-75980154D01*
X109218139Y-75953670D01*
X109216966Y-75927185D01*
X109215815Y-75900739D01*
X109214683Y-75874293D01*
X109213574Y-75847886D01*
X109212484Y-75821479D01*
X109211416Y-75795110D01*
X109210368Y-75768741D01*
X109209342Y-75742410D01*
X109208336Y-75716079D01*
X109207351Y-75689786D01*
X109206386Y-75663492D01*
X109205442Y-75637237D01*
X109204519Y-75610981D01*
X109204001Y-75595998D01*
D10*
X113152001Y-147272001D02*
X113148001Y-147764001D01*
X111620001Y-148412001D02*
X111372001Y-148344001D01*
D11*
X110932001Y-68643998D02*
X110947229Y-68629935D01*
X110965136Y-68613289D01*
X110986010Y-68593778D01*
X111010142Y-68571112D01*
X111037831Y-68544997D01*
X111069377Y-68515138D01*
X111105081Y-68481237D01*
X111145250Y-68442992D01*
X111190233Y-68400061D01*
X111240562Y-68351932D01*
X111297723Y-68297182D01*
X111312457Y-68283061D01*
X111324001Y-68271998D01*
D10*
X101300001Y-97467999D02*
X101640001Y-96991999D01*
X128492001Y-148644001D02*
X128064001Y-148892001D01*
D11*
X136248001Y-113820000D02*
X136254064Y-113856134D01*
X136260055Y-113892321D01*
X136265974Y-113928562D01*
X136271821Y-113964857D01*
X136277595Y-114001207D01*
X136283298Y-114037611D01*
X136288928Y-114074071D01*
X136294486Y-114110586D01*
X136299971Y-114147158D01*
X136305384Y-114183786D01*
X136310725Y-114220470D01*
X136315993Y-114257212D01*
X136321188Y-114294012D01*
X136326311Y-114330869D01*
X136331362Y-114367785D01*
X136336340Y-114404760D01*
X136341245Y-114441793D01*
X136346077Y-114478887D01*
X136350837Y-114516040D01*
X136355524Y-114553255D01*
X136360137Y-114590529D01*
X136364678Y-114627866D01*
X136369146Y-114665264D01*
X136373541Y-114702724D01*
X136377863Y-114740247D01*
X136382111Y-114777833D01*
X136386286Y-114815482D01*
X136390388Y-114853196D01*
X136394416Y-114890974D01*
X136398371Y-114928816D01*
X136402253Y-114966724D01*
X136406060Y-115004698D01*
X136409794Y-115042739D01*
X136413455Y-115080846D01*
X136417041Y-115119020D01*
X136420553Y-115157262D01*
X136423992Y-115195572D01*
X136427356Y-115233951D01*
X136430646Y-115272399D01*
X136433862Y-115310917D01*
X136437004Y-115349505D01*
X136440071Y-115388164D01*
X136443064Y-115426894D01*
X136445981Y-115465695D01*
X136448825Y-115504569D01*
X136451593Y-115543516D01*
X136454286Y-115582536D01*
X136456001Y-115608000D01*
D10*
X134360001Y-135832001D02*
X134056001Y-136252001D01*
X140968001Y-125364000D02*
X141240001Y-124860000D01*
X126716001Y-144292001D02*
X126604001Y-143348001D01*
X98408001Y-113632000D02*
X98076001Y-114096000D01*
X128064001Y-148892001D02*
X127644001Y-149144001D01*
X136456001Y-115608000D02*
X136472001Y-115956000D01*
D11*
X111672001Y-140352001D02*
X111632239Y-140379569D01*
X111593935Y-140406162D01*
X111550817Y-140436096D01*
X111505219Y-140467725D01*
X111458363Y-140500172D01*
X111434845Y-140516428D01*
X111411471Y-140532561D01*
X111388394Y-140548459D01*
X111365767Y-140564014D01*
X111343742Y-140579117D01*
X111322472Y-140593656D01*
X111302110Y-140607524D01*
X111282809Y-140620611D01*
X111264722Y-140632806D01*
X111248001Y-140644001D01*
D10*
X102884001Y-136072001D02*
X102800001Y-135772001D01*
X132044001Y-68999998D02*
X131560001Y-69303998D01*
X135036001Y-134568001D02*
X134768001Y-135096001D01*
D11*
X111996001Y-67735998D02*
X112032071Y-67710279D01*
X112085896Y-67671991D01*
X112143623Y-67630972D01*
X112227909Y-67571075D01*
X112270473Y-67540797D01*
X112312267Y-67511028D01*
X112352505Y-67482317D01*
X112390398Y-67455210D01*
X112408220Y-67442429D01*
X112425159Y-67430254D01*
X112441119Y-67418755D01*
X112456001Y-67407998D01*
D10*
X106472001Y-89875998D02*
X106760001Y-89339998D01*
X126176001Y-81119998D02*
X126236001Y-81427998D01*
X106388001Y-149392001D02*
X105796001Y-149336001D01*
X128504001Y-84923998D02*
X128872001Y-85347998D01*
X137708001Y-96879999D02*
X138024001Y-97359999D01*
X109288001Y-72027998D02*
X109444001Y-71295998D01*
X111032001Y-140792001D02*
X110704001Y-141152001D01*
X128648001Y-71191998D02*
X128584001Y-71451998D01*
X102272001Y-109592000D02*
X101844001Y-109860000D01*
X110004001Y-142456001D02*
X110324001Y-142484001D01*
X130388001Y-86959998D02*
X130768001Y-87371998D01*
X105600001Y-91355998D02*
X105916001Y-90923998D01*
X96344000Y-116796000D02*
X96024000Y-117288000D01*
X143496001Y-125624000D02*
X143232001Y-126040000D01*
X118824001Y-141312001D02*
X118484001Y-141212001D01*
X132732001Y-68543998D02*
X132292001Y-68847998D01*
D11*
X133632001Y-90891998D02*
X133656318Y-90924884D01*
X133694935Y-90977222D01*
X133728059Y-91022121D01*
X133763016Y-91069453D01*
X133780896Y-91093626D01*
X133798891Y-91117921D01*
X133816887Y-91142178D01*
X133834769Y-91166232D01*
X133852423Y-91189924D01*
X133869735Y-91213090D01*
X133886589Y-91235570D01*
X133902872Y-91257201D01*
X133918469Y-91277821D01*
X133933266Y-91297268D01*
X133940328Y-91306502D01*
X133947148Y-91315381D01*
X133953710Y-91323887D01*
X133960001Y-91331998D01*
D10*
X93000000Y-117364000D02*
X93248000Y-116456000D01*
X101644001Y-118104000D02*
X101736001Y-117776000D01*
X126544001Y-143012001D02*
X126504001Y-142344001D01*
D11*
X105324001Y-149108001D02*
X105311965Y-149100251D01*
X105298197Y-149091291D01*
X105282519Y-149080994D01*
X105264737Y-149069219D01*
X105244629Y-149055809D01*
X105221933Y-149040580D01*
X105196326Y-149023302D01*
X105167368Y-149003672D01*
X105134392Y-148981225D01*
X105096176Y-148955123D01*
X105049710Y-148923303D01*
X105022311Y-148904519D01*
X104971542Y-148869727D01*
X104948709Y-148854115D01*
X104928001Y-148840001D01*
D10*
X135676001Y-147196001D02*
X135260001Y-147508001D01*
X101984001Y-96503999D02*
X102160001Y-96247999D01*
X103320001Y-94627998D02*
X103656001Y-94159998D01*
X100148001Y-147228001D02*
X99376001Y-147116001D01*
X142384001Y-105295999D02*
X142740001Y-106196000D01*
D11*
X100068001Y-99303999D02*
X100078583Y-99290835D01*
X100090756Y-99275564D01*
X100104685Y-99257963D01*
X100120550Y-99237788D01*
X100138551Y-99214768D01*
X100158923Y-99188590D01*
X100181949Y-99158875D01*
X100208009Y-99125118D01*
X100237687Y-99086553D01*
X100272075Y-99041748D01*
X100314091Y-98986894D01*
X100328978Y-98967445D01*
X100365102Y-98920263D01*
X100381300Y-98899136D01*
X100396001Y-98879999D01*
D10*
X131716001Y-88483998D02*
X132084001Y-88939998D01*
X140888001Y-115940000D02*
X140788001Y-115624000D01*
D11*
X140844001Y-102015999D02*
X140852680Y-102033270D01*
X140863038Y-102053707D01*
X140875421Y-102077964D01*
X140890345Y-102107030D01*
X140908715Y-102142640D01*
X140932575Y-102188734D01*
X140952719Y-102227589D01*
X140974320Y-102269254D01*
X140995946Y-102311027D01*
X141017272Y-102352336D01*
X141027720Y-102372640D01*
X141037972Y-102392613D01*
X141047985Y-102412187D01*
X141057720Y-102431288D01*
X141067136Y-102449846D01*
X141076192Y-102467790D01*
X141084847Y-102485049D01*
X141093060Y-102501550D01*
X141100792Y-102517224D01*
X141108001Y-102531999D01*
D10*
X125740001Y-79843998D02*
X126060001Y-80807998D01*
D11*
X94340000Y-119544000D02*
X94328445Y-119553996D01*
X94315024Y-119565500D01*
X94299519Y-119578686D01*
X94281683Y-119593751D01*
X94261220Y-119610932D01*
X94237760Y-119630527D01*
X94210795Y-119652948D01*
X94179543Y-119678836D01*
X94142539Y-119709392D01*
X94096001Y-119747734D01*
X94076742Y-119763588D01*
X94044080Y-119790478D01*
X94013321Y-119815832D01*
X93985086Y-119839168D01*
X93972111Y-119849927D01*
X93960000Y-119860000D01*
D10*
X133776001Y-66851998D02*
X133708001Y-67839998D01*
X108384001Y-85819998D02*
X108496001Y-85491998D01*
X114696001Y-66183998D02*
X115292001Y-65967998D01*
X107676001Y-87447998D02*
X107956001Y-86979998D01*
X100980001Y-144256001D02*
X101272001Y-144124001D01*
X136316001Y-130888001D02*
X136080001Y-131824001D01*
X143252001Y-107784000D02*
X143264001Y-108452000D01*
X132856001Y-66667998D02*
X133484001Y-66715998D01*
X104176001Y-93423998D02*
X104516001Y-92947998D01*
X110660001Y-143688001D02*
X110964001Y-144156001D01*
X119840001Y-141280001D02*
X119512001Y-141292001D01*
X95668000Y-108440000D02*
X95780000Y-108112000D01*
X103816001Y-147932001D02*
X103272001Y-147728001D01*
X107680001Y-148944001D02*
X107200001Y-149172001D01*
X99784001Y-144936001D02*
X100212001Y-144680001D01*
X126144001Y-74703998D02*
X125768001Y-75631998D01*
X112232001Y-140140001D02*
X111948001Y-140260001D01*
X92500000Y-120000000D02*
X92684000Y-119340000D01*
X135564001Y-133412001D02*
X135172001Y-134276001D01*
X134572001Y-148184001D02*
X134432001Y-148380001D01*
X112348001Y-145768001D02*
X112664001Y-146168001D01*
X136192001Y-146992001D02*
X135676001Y-147196001D01*
X126556001Y-145252001D02*
X126716001Y-144292001D01*
X137220001Y-96155999D02*
X137544001Y-96631999D01*
X98460001Y-102015999D02*
X98608001Y-101739999D01*
X138416001Y-111224000D02*
X138048001Y-110904000D01*
X142740001Y-106196000D02*
X142852001Y-106528000D01*
X103932001Y-138140001D02*
X103664001Y-137672001D01*
X102164001Y-134536001D02*
X102044001Y-134260001D01*
X103488001Y-110020000D02*
X103224001Y-109932000D01*
D11*
X130972001Y-66895998D02*
X131001874Y-66897530D01*
X131031789Y-66898985D01*
X131061748Y-66900361D01*
X131091751Y-66901660D01*
X131121800Y-66902880D01*
X131151894Y-66904022D01*
X131182036Y-66905086D01*
X131212225Y-66906072D01*
X131242464Y-66906980D01*
X131272752Y-66907808D01*
X131303091Y-66908559D01*
X131333481Y-66909230D01*
X131363924Y-66909823D01*
X131394421Y-66910337D01*
X131424972Y-66910772D01*
X131455579Y-66911128D01*
X131486243Y-66911404D01*
X131516964Y-66911602D01*
X131547744Y-66911719D01*
X131578584Y-66911757D01*
X131609484Y-66911715D01*
X131640447Y-66911593D01*
X131671472Y-66911390D01*
X131702561Y-66911108D01*
X131733716Y-66910745D01*
X131764937Y-66910301D01*
X131796225Y-66909776D01*
X131827582Y-66909170D01*
X131859009Y-66908483D01*
X131890506Y-66907714D01*
X131922076Y-66906864D01*
X131953720Y-66905932D01*
X131985438Y-66904917D01*
X132017232Y-66903820D01*
X132049103Y-66902641D01*
X132081052Y-66901378D01*
X132113082Y-66900033D01*
X132145193Y-66898604D01*
X132177386Y-66897091D01*
X132209663Y-66895495D01*
X132242025Y-66893814D01*
X132274474Y-66892048D01*
X132307012Y-66890198D01*
X132339638Y-66888263D01*
X132344001Y-66887998D01*
X94696000Y-119164000D02*
X94682420Y-119178253D01*
X94666095Y-119195502D01*
X94646470Y-119216354D01*
X94622727Y-119241692D01*
X94593464Y-119273034D01*
X94555516Y-119313781D01*
X94524922Y-119346670D01*
X94473874Y-119401534D01*
X94448872Y-119428361D01*
X94424581Y-119454370D01*
X94401276Y-119479249D01*
X94390078Y-119491168D01*
X94379228Y-119502688D01*
X94368762Y-119513770D01*
X94358712Y-119524376D01*
X94349113Y-119534465D01*
X94340000Y-119544000D01*
X136696001Y-128132000D02*
X136689572Y-128146219D01*
X136683216Y-128160470D01*
X136676934Y-128174753D01*
X136670726Y-128189067D01*
X136664591Y-128203412D01*
X136658529Y-128217788D01*
X136652541Y-128232196D01*
X136646627Y-128246634D01*
X136640787Y-128261104D01*
X136635021Y-128275603D01*
X136629329Y-128290134D01*
X136623710Y-128304694D01*
X136618166Y-128319285D01*
X136612696Y-128333906D01*
X136607299Y-128348557D01*
X136601978Y-128363238D01*
X136596730Y-128377948D01*
X136591557Y-128392688D01*
X136586458Y-128407457D01*
X136581434Y-128422255D01*
X136576485Y-128437082D01*
X136571610Y-128451938D01*
X136566810Y-128466823D01*
X136562084Y-128481736D01*
X136557434Y-128496677D01*
X136552859Y-128511647D01*
X136548358Y-128526645D01*
X136543933Y-128541671D01*
X136539583Y-128556724D01*
X136535308Y-128571805D01*
X136531109Y-128586914D01*
X136526985Y-128602049D01*
X136522936Y-128617212D01*
X136518963Y-128632401D01*
X136515066Y-128647618D01*
X136511245Y-128662860D01*
X136507499Y-128678129D01*
X136503829Y-128693424D01*
X136500236Y-128708746D01*
X136496718Y-128724092D01*
X136493277Y-128739465D01*
X136489912Y-128754863D01*
X136486623Y-128770286D01*
X136483411Y-128785734D01*
X136480275Y-128801207D01*
X136477216Y-128816705D01*
X136474233Y-128832227D01*
X136471327Y-128847773D01*
X136468498Y-128863344D01*
X136465746Y-128878938D01*
X136463072Y-128894556D01*
X136460474Y-128910197D01*
X136457953Y-128925861D01*
X136455510Y-128941549D01*
X136453144Y-128957259D01*
X136450856Y-128972992D01*
X136448645Y-128988747D01*
X136446512Y-129004525D01*
X136444457Y-129020324D01*
X136442479Y-129036145D01*
X136440580Y-129051988D01*
X136438758Y-129067851D01*
X136437014Y-129083736D01*
X136435349Y-129099642D01*
X136433762Y-129115568D01*
X136432253Y-129131514D01*
X136430823Y-129147481D01*
X136429471Y-129163467D01*
X136428198Y-129179473D01*
X136427004Y-129195499D01*
X136425888Y-129211543D01*
X136424851Y-129227607D01*
X136423893Y-129243689D01*
X136423015Y-129259789D01*
X136422215Y-129275907D01*
X136421494Y-129292044D01*
X136420853Y-129308198D01*
X136420291Y-129324369D01*
X136419809Y-129340558D01*
X136419406Y-129356763D01*
X136419083Y-129372985D01*
X136418839Y-129389223D01*
X136418675Y-129405477D01*
X136418591Y-129421747D01*
X136418587Y-129438032D01*
X136418663Y-129454333D01*
X136418819Y-129470649D01*
X136419055Y-129486979D01*
X136419372Y-129503323D01*
X136419768Y-129519682D01*
X136420245Y-129536054D01*
X136420803Y-129552440D01*
X136421441Y-129568839D01*
X136422159Y-129585252D01*
X136422958Y-129601676D01*
X136423838Y-129618113D01*
X136424798Y-129634562D01*
X136425840Y-129651023D01*
X136426962Y-129667496D01*
X136428165Y-129683979D01*
X136429449Y-129700473D01*
X136430814Y-129716978D01*
X136432261Y-129733493D01*
X136433788Y-129750018D01*
X136435397Y-129766552D01*
X136437087Y-129783096D01*
X136438858Y-129799649D01*
X136440711Y-129816210D01*
X136442645Y-129832780D01*
X136444001Y-129844001D01*
X144280001Y-114536000D02*
X144284223Y-114593159D01*
X144288650Y-114652028D01*
X144293300Y-114712818D01*
X144298197Y-114775789D01*
X144303367Y-114841275D01*
X144308848Y-114909705D01*
X144314690Y-114981660D01*
X144320963Y-115057955D01*
X144327768Y-115139798D01*
X144335274Y-115229140D01*
X144343783Y-115329528D01*
X144353976Y-115448942D01*
X144364685Y-115573890D01*
X144377874Y-115727824D01*
X144384448Y-115804856D01*
X144390994Y-115881928D01*
X144397501Y-115959038D01*
X144403960Y-116036185D01*
X144410359Y-116113366D01*
X144416687Y-116190580D01*
X144419822Y-116229199D01*
X144422935Y-116267825D01*
X144426026Y-116306458D01*
X144429092Y-116345098D01*
X144432132Y-116383745D01*
X144435146Y-116422399D01*
X144438132Y-116461059D01*
X144441088Y-116499725D01*
X144444013Y-116538396D01*
X144446906Y-116577074D01*
X144449766Y-116615756D01*
X144452591Y-116654444D01*
X144455380Y-116693136D01*
X144458131Y-116731833D01*
X144460844Y-116770535D01*
X144463516Y-116809240D01*
X144466148Y-116847950D01*
X144468736Y-116886663D01*
X144471280Y-116925379D01*
X144473779Y-116964099D01*
X144476232Y-117002821D01*
X144478636Y-117041547D01*
X144480991Y-117080274D01*
X144483295Y-117119004D01*
X144485548Y-117157736D01*
X144487746Y-117196470D01*
X144489891Y-117235205D01*
X144491979Y-117273942D01*
X144494010Y-117312679D01*
X144495982Y-117351418D01*
X144497895Y-117390157D01*
X144499746Y-117428896D01*
X144501535Y-117467635D01*
X144503259Y-117506374D01*
X144504919Y-117545113D01*
X144506512Y-117583851D01*
X144508036Y-117622588D01*
X144509492Y-117661325D01*
X144510877Y-117700059D01*
X144512191Y-117738793D01*
X144513431Y-117777524D01*
X144514596Y-117816253D01*
X144515686Y-117854980D01*
X144516699Y-117893705D01*
X144517633Y-117932427D01*
X144518070Y-117951786D01*
X144518487Y-117971145D01*
X144518884Y-117990503D01*
X144519260Y-118009861D01*
X144519616Y-118029217D01*
X144519951Y-118048573D01*
X144520265Y-118067927D01*
X144520558Y-118087281D01*
X144520829Y-118106634D01*
X144521079Y-118125985D01*
X144521308Y-118145336D01*
X144521515Y-118164685D01*
X144521699Y-118184034D01*
X144521862Y-118203381D01*
X144522003Y-118222727D01*
X144522121Y-118242072D01*
X144522216Y-118261416D01*
X144522289Y-118280758D01*
X144522338Y-118300099D01*
X144522365Y-118319439D01*
X144522368Y-118338778D01*
X144522348Y-118358115D01*
X144522304Y-118377450D01*
X144522237Y-118396784D01*
X144522145Y-118416117D01*
X144522030Y-118435449D01*
X144521890Y-118454778D01*
X144521726Y-118474106D01*
X144521537Y-118493433D01*
X144521324Y-118512758D01*
X144521085Y-118532081D01*
X144520822Y-118551403D01*
X144520533Y-118570723D01*
X144520219Y-118590041D01*
X144519879Y-118609358D01*
X144519513Y-118628672D01*
X144519122Y-118647985D01*
X144518704Y-118667296D01*
X144518261Y-118686605D01*
X144517790Y-118705913D01*
X144517294Y-118725218D01*
X144516770Y-118744521D01*
X144516220Y-118763822D01*
X144515642Y-118783122D01*
X144515037Y-118802419D01*
X144514405Y-118821714D01*
X144513746Y-118841007D01*
X144513058Y-118860298D01*
X144512343Y-118879586D01*
X144511599Y-118898873D01*
X144510828Y-118918157D01*
X144510028Y-118937439D01*
X144509199Y-118956718D01*
X144508342Y-118975996D01*
X144507455Y-118995271D01*
X144506540Y-119014543D01*
X144505595Y-119033813D01*
X144504621Y-119053081D01*
X144503618Y-119072346D01*
X144502585Y-119091609D01*
X144501522Y-119110869D01*
X144500428Y-119130127D01*
X144499305Y-119149382D01*
X144498151Y-119168634D01*
X144496967Y-119187884D01*
X144495752Y-119207131D01*
X144494506Y-119226375D01*
X144493229Y-119245617D01*
X144491921Y-119264856D01*
X144490581Y-119284092D01*
X144489210Y-119303325D01*
X144487807Y-119322555D01*
X144486373Y-119341782D01*
X144484906Y-119361007D01*
X144483407Y-119380228D01*
X144481876Y-119399447D01*
X144480312Y-119418662D01*
X144478715Y-119437875D01*
X144477086Y-119457084D01*
X144475423Y-119476291D01*
X144473728Y-119495494D01*
X144471998Y-119514694D01*
X144470236Y-119533891D01*
X144468440Y-119553084D01*
X144466609Y-119572275D01*
X144464745Y-119591462D01*
X144462847Y-119610645D01*
X144460914Y-119629826D01*
X144458947Y-119649003D01*
X144456945Y-119668177D01*
X144454908Y-119687347D01*
X144452836Y-119706514D01*
X144450729Y-119725677D01*
X144448587Y-119744837D01*
X144446409Y-119763993D01*
X144444196Y-119783145D01*
X144441946Y-119802294D01*
X144439661Y-119821440D01*
X144437339Y-119840582D01*
X144434981Y-119859720D01*
X144432587Y-119878854D01*
X144430155Y-119897984D01*
X144427687Y-119917111D01*
X144425182Y-119936234D01*
X144422640Y-119955353D01*
X144420061Y-119974468D01*
X144417444Y-119993580D01*
X144414789Y-120012687D01*
X144412096Y-120031790D01*
X144409366Y-120050890D01*
X144406597Y-120069985D01*
X144403790Y-120089077D01*
X144400944Y-120108164D01*
X144398060Y-120127247D01*
X144395137Y-120146326D01*
X144392175Y-120165401D01*
X144389174Y-120184471D01*
X144386133Y-120203538D01*
X144383053Y-120222600D01*
X144379934Y-120241658D01*
X144376774Y-120260711D01*
X144373575Y-120279760D01*
X144370335Y-120298805D01*
X144367055Y-120317845D01*
X144363735Y-120336881D01*
X144360373Y-120355913D01*
X144356971Y-120374940D01*
X144353529Y-120393962D01*
X144350044Y-120412980D01*
X144346519Y-120431993D01*
X144342952Y-120451002D01*
X144339344Y-120470006D01*
X144335693Y-120489005D01*
X144332001Y-120508000D01*
D10*
X131356001Y-142092001D02*
X131376001Y-142376001D01*
X140288001Y-100979999D02*
X140428001Y-101239999D01*
D11*
X104652001Y-140896001D02*
X104653758Y-140890060D01*
X104655493Y-140884123D01*
X104657205Y-140878195D01*
X104658895Y-140872270D01*
X104660561Y-140866354D01*
X104662206Y-140860441D01*
X104663828Y-140854538D01*
X104665428Y-140848637D01*
X104667004Y-140842746D01*
X104668560Y-140836858D01*
X104670092Y-140830979D01*
X104671602Y-140825103D01*
X104673090Y-140819235D01*
X104674557Y-140813371D01*
X104676000Y-140807516D01*
X104677422Y-140801663D01*
X104678822Y-140795819D01*
X104680200Y-140789978D01*
X104681556Y-140784146D01*
X104682890Y-140778317D01*
X104684202Y-140772496D01*
X104685493Y-140766678D01*
X104686761Y-140760868D01*
X104688009Y-140755062D01*
X104689234Y-140749263D01*
X104690438Y-140743468D01*
X104691620Y-140737680D01*
X104692781Y-140731896D01*
X104693920Y-140726119D01*
X104695038Y-140720345D01*
X104696134Y-140714579D01*
X104697209Y-140708816D01*
X104698262Y-140703061D01*
X104699295Y-140697309D01*
X104700306Y-140691564D01*
X104701296Y-140685822D01*
X104702264Y-140680088D01*
X104703212Y-140674356D01*
X104704138Y-140668632D01*
X104705044Y-140662911D01*
X104705928Y-140657197D01*
X104706791Y-140651485D01*
X104707633Y-140645781D01*
X104708455Y-140640080D01*
X104709255Y-140634386D01*
X104710035Y-140628694D01*
X104710793Y-140623010D01*
X104711531Y-140617328D01*
X104712248Y-140611653D01*
X104712944Y-140605980D01*
X104713620Y-140600315D01*
X104714275Y-140594652D01*
X104714909Y-140588996D01*
X104715522Y-140583342D01*
X104716115Y-140577695D01*
X104716688Y-140572050D01*
X104717239Y-140566412D01*
X104717771Y-140560777D01*
X104718281Y-140555147D01*
X104718772Y-140549521D01*
X104719242Y-140543900D01*
X104719691Y-140538282D01*
X104720120Y-140532670D01*
X104720528Y-140527061D01*
X104720917Y-140521458D01*
X104721285Y-140515857D01*
X104721632Y-140510262D01*
X104721959Y-140504669D01*
X104722266Y-140499082D01*
X104722553Y-140493498D01*
X104722820Y-140487919D01*
X104723066Y-140482343D01*
X104723292Y-140476772D01*
X104723498Y-140471204D01*
X104723684Y-140465641D01*
X104723849Y-140460080D01*
X104723995Y-140454525D01*
X104724120Y-140448972D01*
X104724225Y-140443424D01*
X104724311Y-140437878D01*
X104724376Y-140432338D01*
X104724421Y-140426800D01*
X104724446Y-140421267D01*
X104724451Y-140415736D01*
X104724436Y-140410210D01*
X104724401Y-140404686D01*
X104724346Y-140399167D01*
X104724272Y-140393651D01*
X104724177Y-140388138D01*
X104724062Y-140382628D01*
X104723927Y-140377123D01*
X104723773Y-140371620D01*
X104723598Y-140366121D01*
X104723404Y-140360624D01*
X104723189Y-140355132D01*
X104722955Y-140349642D01*
X104722701Y-140344155D01*
X104722427Y-140338672D01*
X104722133Y-140333192D01*
X104721820Y-140327714D01*
X104721486Y-140322240D01*
X104721133Y-140316769D01*
X104720759Y-140311300D01*
X104720366Y-140305835D01*
X104719953Y-140300373D01*
X104719520Y-140294913D01*
X104719068Y-140289456D01*
X104718595Y-140284002D01*
X104718103Y-140278551D01*
X104717591Y-140273102D01*
X104717059Y-140267656D01*
X104716507Y-140262213D01*
X104715344Y-140251335D01*
X104714102Y-140240467D01*
X104712780Y-140229608D01*
X104711379Y-140218760D01*
X104709898Y-140207921D01*
X104708338Y-140197091D01*
X104706698Y-140186270D01*
X104704979Y-140175458D01*
X104703180Y-140164654D01*
X104701302Y-140153859D01*
X104699343Y-140143071D01*
X104697305Y-140132291D01*
X104695187Y-140121519D01*
X104692988Y-140110754D01*
X104690709Y-140099996D01*
X104688350Y-140089244D01*
X104685911Y-140078499D01*
X104683391Y-140067760D01*
X104680790Y-140057028D01*
X104678108Y-140046301D01*
X104675345Y-140035579D01*
X104672501Y-140024863D01*
X104669575Y-140014152D01*
X104666568Y-140003445D01*
X104663479Y-139992744D01*
X104660308Y-139982046D01*
X104657055Y-139971353D01*
X104653719Y-139960664D01*
X104650300Y-139949978D01*
X104646799Y-139939296D01*
X104643215Y-139928617D01*
X104639547Y-139917941D01*
X104635795Y-139907268D01*
X104631960Y-139896598D01*
X104628040Y-139885930D01*
X104624036Y-139875264D01*
X104619948Y-139864600D01*
X104615774Y-139853939D01*
X104611515Y-139843278D01*
X104607170Y-139832619D01*
X104602740Y-139821962D01*
X104598223Y-139811305D01*
X104593620Y-139800649D01*
X104588930Y-139789994D01*
X104584152Y-139779339D01*
X104579287Y-139768685D01*
X104574334Y-139758030D01*
X104569293Y-139747376D01*
X104564163Y-139736721D01*
X104558944Y-139726066D01*
X104553635Y-139715411D01*
X104548237Y-139704754D01*
X104542749Y-139694097D01*
X104537170Y-139683438D01*
X104531500Y-139672778D01*
X104525738Y-139662117D01*
X104519885Y-139651454D01*
X104513939Y-139640790D01*
X104507901Y-139630124D01*
X104501770Y-139619455D01*
X104495545Y-139608785D01*
X104489226Y-139598112D01*
X104482813Y-139587437D01*
X104476305Y-139576759D01*
X104469701Y-139566078D01*
X104463001Y-139555395D01*
X104456206Y-139544708D01*
X104449313Y-139534019D01*
X104448001Y-139532001D01*
X133136001Y-137644001D02*
X133118891Y-137664282D01*
X133097881Y-137689308D01*
X133072165Y-137720060D01*
X133040546Y-137757991D01*
X133000821Y-137805763D01*
X132940136Y-137878858D01*
X132899582Y-137927714D01*
X132861192Y-137973913D01*
X132843207Y-137995521D01*
X132826241Y-138015870D01*
X132810452Y-138034763D01*
X132796001Y-138052001D01*
D10*
X127008001Y-82903998D02*
X127316001Y-83323998D01*
D11*
X138592001Y-144984001D02*
X138591814Y-144990116D01*
X138591647Y-144996226D01*
X138591500Y-145002322D01*
X138591373Y-145008412D01*
X138591267Y-145014489D01*
X138591181Y-145020561D01*
X138591115Y-145026620D01*
X138591069Y-145032672D01*
X138591044Y-145038713D01*
X138591038Y-145044747D01*
X138591052Y-145050769D01*
X138591086Y-145056785D01*
X138591141Y-145062789D01*
X138591215Y-145068787D01*
X138591309Y-145074773D01*
X138591423Y-145080754D01*
X138591556Y-145086722D01*
X138591710Y-145092685D01*
X138591883Y-145098636D01*
X138592077Y-145104581D01*
X138592289Y-145110515D01*
X138592522Y-145116443D01*
X138592774Y-145122360D01*
X138593046Y-145128271D01*
X138593338Y-145134171D01*
X138593649Y-145140065D01*
X138593980Y-145145949D01*
X138594330Y-145151827D01*
X138594700Y-145157694D01*
X138595090Y-145163555D01*
X138595499Y-145169406D01*
X138595927Y-145175251D01*
X138596375Y-145181086D01*
X138596843Y-145186915D01*
X138597329Y-145192734D01*
X138597836Y-145198548D01*
X138598361Y-145204351D01*
X138598906Y-145210149D01*
X138599471Y-145215938D01*
X138600055Y-145221720D01*
X138600658Y-145227493D01*
X138601280Y-145233260D01*
X138601922Y-145239018D01*
X138602583Y-145244771D01*
X138603263Y-145250514D01*
X138603963Y-145256252D01*
X138604682Y-145261980D01*
X138605420Y-145267703D01*
X138606177Y-145273417D01*
X138606954Y-145279126D01*
X138607750Y-145284826D01*
X138608565Y-145290520D01*
X138609399Y-145296206D01*
X138610252Y-145301887D01*
X138611125Y-145307559D01*
X138612017Y-145313225D01*
X138612928Y-145318884D01*
X138613858Y-145324537D01*
X138614807Y-145330181D01*
X138615776Y-145335821D01*
X138616763Y-145341453D01*
X138617770Y-145347079D01*
X138618796Y-145352697D01*
X138619841Y-145358311D01*
X138620905Y-145363916D01*
X138621989Y-145369517D01*
X138623091Y-145375110D01*
X138624213Y-145380697D01*
X138625354Y-145386278D01*
X138626514Y-145391853D01*
X138627693Y-145397421D01*
X138628891Y-145402984D01*
X138630109Y-145408539D01*
X138631345Y-145414090D01*
X138632601Y-145419634D01*
X138633876Y-145425173D01*
X138635170Y-145430705D01*
X138636483Y-145436232D01*
X138637816Y-145441752D01*
X138639167Y-145447267D01*
X138640538Y-145452776D01*
X138641928Y-145458280D01*
X138643337Y-145463778D01*
X138644766Y-145469270D01*
X138646213Y-145474757D01*
X138647680Y-145480238D01*
X138649166Y-145485714D01*
X138650672Y-145491184D01*
X138652196Y-145496649D01*
X138653740Y-145502109D01*
X138655303Y-145507563D01*
X138656886Y-145513012D01*
X138658488Y-145518456D01*
X138660109Y-145523895D01*
X138661749Y-145529329D01*
X138663409Y-145534757D01*
X138665088Y-145540181D01*
X138666787Y-145545599D01*
X138670242Y-145556421D01*
X138673776Y-145567224D01*
X138677387Y-145578007D01*
X138681076Y-145588772D01*
X138684843Y-145599517D01*
X138688689Y-145610245D01*
X138692614Y-145620955D01*
X138696617Y-145631647D01*
X138700699Y-145642322D01*
X138704860Y-145652980D01*
X138709101Y-145663621D01*
X138713421Y-145674246D01*
X138717821Y-145684855D01*
X138722301Y-145695448D01*
X138726862Y-145706025D01*
X138731503Y-145716588D01*
X138736225Y-145727135D01*
X138741028Y-145737668D01*
X138745913Y-145748186D01*
X138750879Y-145758690D01*
X138755927Y-145769181D01*
X138761058Y-145779658D01*
X138766271Y-145790121D01*
X138771567Y-145800572D01*
X138776947Y-145811010D01*
X138782410Y-145821436D01*
X138787957Y-145831849D01*
X138793588Y-145842250D01*
X138799304Y-145852640D01*
X138805105Y-145863018D01*
X138810992Y-145873386D01*
X138816964Y-145883742D01*
X138823023Y-145894087D01*
X138829168Y-145904422D01*
X138835400Y-145914747D01*
X138841720Y-145925061D01*
X138848127Y-145935366D01*
X138854623Y-145945662D01*
X138861208Y-145955948D01*
X138867882Y-145966225D01*
X138874645Y-145976493D01*
X138881499Y-145986752D01*
X138888443Y-145997003D01*
X138895478Y-146007246D01*
X138896001Y-146008001D01*
D10*
X133948001Y-136504001D02*
X133636001Y-136968001D01*
X129252001Y-148340001D02*
X128976001Y-148436001D01*
D11*
X108496001Y-85491998D02*
X108522341Y-85416828D01*
X108547812Y-85344047D01*
X108581095Y-85248951D01*
X108616564Y-85147720D01*
X108634810Y-85095722D01*
X108653232Y-85043292D01*
X108671708Y-84990797D01*
X108690113Y-84938604D01*
X108708324Y-84887081D01*
X108726217Y-84836594D01*
X108743670Y-84787510D01*
X108760558Y-84740198D01*
X108776759Y-84695023D01*
X108784563Y-84673352D01*
X108792149Y-84652353D01*
X108799501Y-84632073D01*
X108806604Y-84612556D01*
X108813442Y-84593849D01*
X108820001Y-84575998D01*
X100156001Y-123460000D02*
X100159819Y-123454627D01*
X100163615Y-123449250D01*
X100167385Y-123443876D01*
X100171134Y-123438497D01*
X100174856Y-123433121D01*
X100178557Y-123427740D01*
X100182232Y-123422362D01*
X100185886Y-123416979D01*
X100189514Y-123411599D01*
X100193122Y-123406214D01*
X100196703Y-123400832D01*
X100200263Y-123395445D01*
X100203798Y-123390061D01*
X100207312Y-123384672D01*
X100210800Y-123379285D01*
X100214268Y-123373894D01*
X100217710Y-123368505D01*
X100221131Y-123363111D01*
X100224528Y-123357720D01*
X100227903Y-123352324D01*
X100231254Y-123346930D01*
X100234584Y-123341532D01*
X100237889Y-123336135D01*
X100241174Y-123330734D01*
X100244434Y-123325335D01*
X100247674Y-123319931D01*
X100250889Y-123314529D01*
X100254083Y-123309123D01*
X100257254Y-123303718D01*
X100260403Y-123298308D01*
X100263529Y-123292901D01*
X100266634Y-123287488D01*
X100269715Y-123282077D01*
X100272776Y-123276662D01*
X100275813Y-123271248D01*
X100278830Y-123265829D01*
X100281823Y-123260412D01*
X100284796Y-123254990D01*
X100287745Y-123249570D01*
X100290674Y-123244144D01*
X100293580Y-123238720D01*
X100296465Y-123233292D01*
X100299327Y-123227864D01*
X100302169Y-123222432D01*
X100304988Y-123217001D01*
X100307787Y-123211565D01*
X100310562Y-123206130D01*
X100313318Y-123200690D01*
X100316051Y-123195251D01*
X100318764Y-123189808D01*
X100321454Y-123184365D01*
X100324124Y-123178918D01*
X100326771Y-123173471D01*
X100329399Y-123168019D01*
X100332004Y-123162568D01*
X100334589Y-123157112D01*
X100337152Y-123151657D01*
X100339695Y-123146197D01*
X100342216Y-123140737D01*
X100344717Y-123135273D01*
X100347195Y-123129809D01*
X100349654Y-123124340D01*
X100352091Y-123118871D01*
X100354509Y-123113397D01*
X100356904Y-123107924D01*
X100359279Y-123102445D01*
X100361633Y-123096967D01*
X100363967Y-123091484D01*
X100366280Y-123086000D01*
X100368573Y-123080512D01*
X100370844Y-123075023D01*
X100373095Y-123069530D01*
X100375325Y-123064036D01*
X100377536Y-123058538D01*
X100379725Y-123053039D01*
X100381894Y-123047535D01*
X100384042Y-123042030D01*
X100386171Y-123036521D01*
X100388279Y-123031011D01*
X100390366Y-123025496D01*
X100392433Y-123019980D01*
X100394480Y-123014460D01*
X100396507Y-123008938D01*
X100398514Y-123003412D01*
X100400500Y-122997884D01*
X100402466Y-122992352D01*
X100404412Y-122986818D01*
X100406338Y-122981280D01*
X100408243Y-122975740D01*
X100410129Y-122970195D01*
X100411994Y-122964649D01*
X100413840Y-122959098D01*
X100415665Y-122953545D01*
X100417471Y-122947988D01*
X100419256Y-122942428D01*
X100421022Y-122936864D01*
X100422768Y-122931298D01*
X100424494Y-122925728D01*
X100426200Y-122920155D01*
X100427886Y-122914577D01*
X100429552Y-122908997D01*
X100431199Y-122903413D01*
X100432825Y-122897825D01*
X100434432Y-122892234D01*
X100436019Y-122886639D01*
X100437586Y-122881040D01*
X100439134Y-122875438D01*
X100440662Y-122869832D01*
X100442170Y-122864223D01*
X100443659Y-122858609D01*
X100445127Y-122852992D01*
X100446577Y-122847370D01*
X100448006Y-122841745D01*
X100449416Y-122836116D01*
X100450806Y-122830483D01*
X100452177Y-122824845D01*
X100453528Y-122819204D01*
X100454859Y-122813559D01*
X100456171Y-122807909D01*
X100457464Y-122802256D01*
X100458736Y-122796598D01*
X100459990Y-122790936D01*
X100461223Y-122785269D01*
X100462437Y-122779599D01*
X100463632Y-122773924D01*
X100464807Y-122768244D01*
X100465963Y-122762561D01*
X100467099Y-122756872D01*
X100468216Y-122751180D01*
X100469313Y-122745482D01*
X100471448Y-122734074D01*
X100473506Y-122722647D01*
X100475486Y-122711201D01*
X100477388Y-122699736D01*
X100479212Y-122688252D01*
X100480959Y-122676748D01*
X100482627Y-122665224D01*
X100484217Y-122653679D01*
X100485730Y-122642114D01*
X100487165Y-122630527D01*
X100488521Y-122618920D01*
X100489800Y-122607291D01*
X100491000Y-122595639D01*
X100492123Y-122583966D01*
X100493167Y-122572270D01*
X100494133Y-122560551D01*
X100495020Y-122548809D01*
X100495829Y-122537043D01*
X100496559Y-122525254D01*
X100497211Y-122513440D01*
X100497784Y-122501602D01*
X100498278Y-122489739D01*
X100498693Y-122477851D01*
X100499029Y-122465937D01*
X100499285Y-122453998D01*
X100499462Y-122442032D01*
X100499559Y-122430040D01*
X100499577Y-122418022D01*
X100499514Y-122405976D01*
X100499371Y-122393903D01*
X100499148Y-122381802D01*
X100498845Y-122369673D01*
X100498460Y-122357515D01*
X100497995Y-122345329D01*
X100497448Y-122333113D01*
X100496820Y-122320869D01*
X100496110Y-122308594D01*
X100495319Y-122296289D01*
X100494445Y-122283954D01*
X100493488Y-122271588D01*
X100492449Y-122259192D01*
X100491328Y-122246763D01*
X100490122Y-122234303D01*
X100488834Y-122221811D01*
X100487461Y-122209286D01*
X100486005Y-122196728D01*
X100484463Y-122184138D01*
X100482838Y-122171513D01*
X100481127Y-122158855D01*
X100479331Y-122146163D01*
X100477449Y-122133436D01*
X100476001Y-122124000D01*
D10*
X139532001Y-112940000D02*
X139244001Y-112520000D01*
X143588001Y-125056000D02*
X143588001Y-125356000D01*
X141740001Y-118888000D02*
X141668001Y-118544000D01*
X102044001Y-134260001D02*
X101812001Y-133716001D01*
X138548001Y-111440000D02*
X138416001Y-111224000D01*
X97264001Y-115324000D02*
X96932001Y-115764000D01*
X135260001Y-147508001D02*
X134900001Y-147844001D01*
X135292001Y-93259998D02*
X135612001Y-93743998D01*
X137924001Y-146764001D02*
X137404001Y-146716001D01*
X109160001Y-148216001D02*
X108884001Y-148324001D01*
D11*
X116012001Y-65783998D02*
X116079592Y-65781279D01*
X116148455Y-65778588D01*
X116218689Y-65775922D01*
X116290405Y-65773280D01*
X116363732Y-65770657D01*
X116438819Y-65768051D01*
X116515841Y-65765456D01*
X116595007Y-65762868D01*
X116676570Y-65760281D01*
X116760839Y-65757686D01*
X116848199Y-65755075D01*
X116939146Y-65752435D01*
X117034329Y-65749751D01*
X117134637Y-65746999D01*
X117241343Y-65744150D01*
X117356390Y-65741154D01*
X117483041Y-65737932D01*
X117627640Y-65734328D01*
X117806440Y-65729941D01*
X117901526Y-65727622D01*
X118136752Y-65721870D01*
X118254375Y-65718956D01*
X118372001Y-65715998D01*
D10*
X100108001Y-111444000D02*
X99924001Y-111672000D01*
X93460000Y-120300000D02*
X92500000Y-120000000D01*
X120032001Y-66107998D02*
X120364001Y-66203998D01*
X139700001Y-100067999D02*
X140008001Y-100499999D01*
X101736001Y-117776000D02*
X102012001Y-116860000D01*
D11*
X138824001Y-146268001D02*
X138810421Y-146282254D01*
X138794096Y-146299503D01*
X138774471Y-146320355D01*
X138750728Y-146345693D01*
X138721465Y-146377035D01*
X138683517Y-146417782D01*
X138652923Y-146450671D01*
X138601875Y-146505535D01*
X138576873Y-146532362D01*
X138552582Y-146558371D01*
X138529277Y-146583250D01*
X138518079Y-146595169D01*
X138507229Y-146606689D01*
X138496763Y-146617771D01*
X138486713Y-146628377D01*
X138477114Y-146638466D01*
X138468001Y-146648001D01*
D10*
X100988001Y-131396001D02*
X100876001Y-131060001D01*
X142000001Y-104427999D02*
X142384001Y-105295999D01*
X94028000Y-113752000D02*
X94120000Y-113420000D01*
D11*
X100832001Y-98159999D02*
X100850347Y-98137422D01*
X100873257Y-98109105D01*
X100901689Y-98073837D01*
X100937044Y-98029859D01*
X100981906Y-97973940D01*
X101041783Y-97899208D01*
X101079717Y-97851856D01*
X101115449Y-97807285D01*
X101147903Y-97766874D01*
X101162564Y-97748658D01*
X101176001Y-97731999D01*
D10*
X141624001Y-103591999D02*
X141872001Y-104131999D01*
X134056001Y-136252001D02*
X133948001Y-136504001D01*
D11*
X126152001Y-142252001D02*
X126120259Y-142242967D01*
X126088511Y-142233954D01*
X126059387Y-142225708D01*
X126030259Y-142217482D01*
X126003041Y-142209818D01*
X125975818Y-142202174D01*
X125950076Y-142194968D01*
X125924330Y-142187782D01*
X125899782Y-142180952D01*
X125875230Y-142174142D01*
X125851677Y-142167630D01*
X125828120Y-142161139D01*
X125805414Y-142154904D01*
X125782703Y-142148689D01*
X125760731Y-142142697D01*
X125738755Y-142136725D01*
X125717428Y-142130951D01*
X125696097Y-142125197D01*
X125675344Y-142119619D01*
X125654587Y-142114062D01*
X125634348Y-142108665D01*
X125614106Y-142103288D01*
X125594333Y-142098057D01*
X125574556Y-142092845D01*
X125555207Y-142087768D01*
X125535854Y-142082710D01*
X125516895Y-142077776D01*
X125497931Y-142072862D01*
X125479329Y-142068063D01*
X125460723Y-142063284D01*
X125442452Y-142058612D01*
X125424178Y-142053959D01*
X125406216Y-142049407D01*
X125388249Y-142044875D01*
X125370574Y-142040438D01*
X125352895Y-142036020D01*
X125335489Y-142031691D01*
X125318079Y-142027382D01*
X125300926Y-142023157D01*
X125283768Y-142018953D01*
X125266852Y-142014828D01*
X125249932Y-142010723D01*
X125233240Y-142006694D01*
X125216545Y-142002685D01*
X125200065Y-141998749D01*
X125183581Y-141994833D01*
X125167303Y-141990986D01*
X125151020Y-141987158D01*
X125134932Y-141983398D01*
X125118840Y-141979657D01*
X125102934Y-141975980D01*
X125087024Y-141972323D01*
X125071291Y-141968727D01*
X125055554Y-141965151D01*
X125039986Y-141961634D01*
X125024414Y-141958136D01*
X125009004Y-141954696D01*
X124993590Y-141951276D01*
X124978331Y-141947910D01*
X124963068Y-141944565D01*
X124947953Y-141941272D01*
X124932835Y-141938000D01*
X124917860Y-141934779D01*
X124902880Y-141931577D01*
X124888038Y-141928426D01*
X124873192Y-141925294D01*
X124858479Y-141922211D01*
X124843761Y-141919148D01*
X124829170Y-141916131D01*
X124814576Y-141913135D01*
X124800105Y-141910184D01*
X124785629Y-141907253D01*
X124771272Y-141904366D01*
X124756912Y-141901499D01*
X124742665Y-141898676D01*
X124728415Y-141895872D01*
X124714276Y-141893111D01*
X124700132Y-141890369D01*
X124686096Y-141887669D01*
X124672056Y-141884988D01*
X124658120Y-141882348D01*
X124644179Y-141879727D01*
X124630340Y-141877146D01*
X124616496Y-141874584D01*
X124602750Y-141872061D01*
X124589000Y-141869558D01*
X124575344Y-141867092D01*
X124561684Y-141864646D01*
X124548117Y-141862237D01*
X124534545Y-141859848D01*
X124521063Y-141857494D01*
X124507576Y-141855161D01*
X124494176Y-141852863D01*
X124480773Y-141850584D01*
X124467453Y-141848340D01*
X124454130Y-141846116D01*
X124440889Y-141843926D01*
X124427643Y-141841756D01*
X124414478Y-141839619D01*
X124401308Y-141837502D01*
X124388216Y-141835418D01*
X124375121Y-141833353D01*
X124362101Y-141831321D01*
X124349077Y-141829309D01*
X124336126Y-141827328D01*
X124323172Y-141825367D01*
X124310290Y-141823437D01*
X124297404Y-141821527D01*
X124284588Y-141819647D01*
X124271768Y-141817787D01*
X124259016Y-141815958D01*
X124246261Y-141814148D01*
X124233572Y-141812368D01*
X124220879Y-141810608D01*
X124208251Y-141808877D01*
X124195620Y-141807165D01*
X124183052Y-141805483D01*
X124170480Y-141803820D01*
X124157971Y-141802186D01*
X124145457Y-141800572D01*
X124133004Y-141798985D01*
X124120548Y-141797419D01*
X124108150Y-141795880D01*
X124095749Y-141794360D01*
X124083406Y-141792869D01*
X124071059Y-141791397D01*
X124058769Y-141789951D01*
X124046474Y-141788526D01*
X124034236Y-141787127D01*
X124021993Y-141785748D01*
X124009805Y-141784396D01*
X123997613Y-141783063D01*
X123985474Y-141781756D01*
X123973331Y-141780469D01*
X123961240Y-141779208D01*
X123949145Y-141777966D01*
X123937102Y-141776750D01*
X123925054Y-141775553D01*
X123913056Y-141774382D01*
X123901055Y-141773230D01*
X123888001Y-141772001D01*
D10*
X112928001Y-67095998D02*
X113180001Y-66943998D01*
X112964001Y-148176001D02*
X112584001Y-148424001D01*
X139300001Y-99319999D02*
X139596001Y-99803999D01*
X126904001Y-82651998D02*
X127008001Y-82903998D01*
D11*
X100840001Y-110652000D02*
X100819808Y-110672247D01*
X100793940Y-110698295D01*
X100760725Y-110731853D01*
X100717034Y-110776097D01*
X100657719Y-110836250D01*
X100605271Y-110889442D01*
X100579621Y-110915435D01*
X100554717Y-110940647D01*
X100530831Y-110964794D01*
X100508234Y-110987591D01*
X100487200Y-111008755D01*
X100468001Y-111028000D01*
D10*
X102564001Y-114928000D02*
X102848001Y-114024000D01*
X131380001Y-142652001D02*
X131708001Y-142640001D01*
X99336001Y-100459999D02*
X99656001Y-100023999D01*
X102504001Y-135296001D02*
X102436001Y-135016001D01*
D11*
X100936001Y-120572000D02*
X100948764Y-120530088D01*
X100964849Y-120477537D01*
X100985309Y-120410958D01*
X101012236Y-120323585D01*
X101046207Y-120213533D01*
X101069091Y-120139407D01*
X101092050Y-120064990D01*
X101114737Y-119991345D01*
X101136806Y-119919538D01*
X101147502Y-119884656D01*
X101157913Y-119850634D01*
X101167998Y-119817604D01*
X101177712Y-119785700D01*
X101187012Y-119755054D01*
X101195856Y-119725800D01*
X101204200Y-119698071D01*
X101212001Y-119672000D01*
D10*
X115344001Y-140176001D02*
X112796001Y-139956001D01*
X103664001Y-137672001D02*
X103592001Y-137396001D01*
X141964001Y-120532000D02*
X142004001Y-120192000D01*
X131792001Y-139212001D02*
X131528001Y-139680001D01*
X99376001Y-147116001D02*
X99396001Y-146756001D01*
X104928001Y-148840001D02*
X104568001Y-148552001D01*
X126088001Y-146520001D02*
X126196001Y-146268001D01*
D11*
X132120001Y-138820001D02*
X132109512Y-138832048D01*
X132097454Y-138846018D01*
X132083664Y-138862118D01*
X132067958Y-138880575D01*
X132050133Y-138901646D01*
X132029944Y-138925631D01*
X132007088Y-138952905D01*
X131981147Y-138983980D01*
X131951457Y-139019664D01*
X131916703Y-139061546D01*
X131867011Y-139121550D01*
X131826420Y-139170564D01*
X131808311Y-139192392D01*
X131792001Y-139212001D01*
D10*
X130856001Y-69751998D02*
X130368001Y-70087998D01*
X108016001Y-86679998D02*
X108384001Y-85819998D01*
X103900001Y-142852001D02*
X104260001Y-142460001D01*
X101364001Y-119004000D02*
X101644001Y-118104000D01*
D11*
X93612000Y-115648000D02*
X93613590Y-115616976D01*
X93615670Y-115577918D01*
X93618370Y-115528679D01*
X93621908Y-115465544D01*
X93626795Y-115379590D01*
X93629045Y-115340212D01*
X93634503Y-115244512D01*
X93637153Y-115197684D01*
X93639696Y-115152279D01*
X93642093Y-115108852D01*
X93644302Y-115067960D01*
X93646285Y-115030157D01*
X93647178Y-115012588D01*
X93648000Y-114996000D01*
X110876001Y-148184001D02*
X110865887Y-148177934D01*
X110855741Y-148171941D01*
X110845563Y-148166022D01*
X110835354Y-148160177D01*
X110825113Y-148154407D01*
X110819982Y-148151550D01*
X110814843Y-148148711D01*
X110809696Y-148145891D01*
X110804543Y-148143091D01*
X110799381Y-148140308D01*
X110794213Y-148137545D01*
X110789037Y-148134800D01*
X110783854Y-148132074D01*
X110778664Y-148129367D01*
X110773467Y-148126679D01*
X110768262Y-148124010D01*
X110763051Y-148121359D01*
X110757833Y-148118728D01*
X110752608Y-148116115D01*
X110747376Y-148113522D01*
X110742138Y-148110947D01*
X110736893Y-148108391D01*
X110731642Y-148105855D01*
X110726383Y-148103337D01*
X110721119Y-148100839D01*
X110715848Y-148098360D01*
X110710571Y-148095899D01*
X110705287Y-148093458D01*
X110699997Y-148091036D01*
X110694701Y-148088633D01*
X110689399Y-148086250D01*
X110684091Y-148083885D01*
X110678777Y-148081540D01*
X110673456Y-148079214D01*
X110668131Y-148076908D01*
X110662799Y-148074620D01*
X110657462Y-148072352D01*
X110652118Y-148070103D01*
X110646770Y-148067874D01*
X110641415Y-148065664D01*
X110636056Y-148063473D01*
X110630690Y-148061302D01*
X110625320Y-148059150D01*
X110619944Y-148057017D01*
X110614563Y-148054904D01*
X110609177Y-148052810D01*
X110603785Y-148050736D01*
X110598389Y-148048682D01*
X110592988Y-148046646D01*
X110587581Y-148044631D01*
X110582170Y-148042635D01*
X110576754Y-148040658D01*
X110571334Y-148038701D01*
X110565909Y-148036763D01*
X110560479Y-148034846D01*
X110555044Y-148032947D01*
X110549606Y-148031069D01*
X110544162Y-148029210D01*
X110538715Y-148027370D01*
X110533263Y-148025551D01*
X110527807Y-148023751D01*
X110522347Y-148021970D01*
X110516882Y-148020210D01*
X110511414Y-148018469D01*
X110505942Y-148016748D01*
X110500466Y-148015046D01*
X110494986Y-148013364D01*
X110489502Y-148011702D01*
X110484015Y-148010060D01*
X110478524Y-148008438D01*
X110473029Y-148006835D01*
X110467531Y-148005253D01*
X110462030Y-148003690D01*
X110456525Y-148002147D01*
X110451017Y-148000623D01*
X110445506Y-147999120D01*
X110439991Y-147997637D01*
X110434473Y-147996173D01*
X110428953Y-147994729D01*
X110423429Y-147993305D01*
X110417902Y-147991901D01*
X110412373Y-147990517D01*
X110406841Y-147989153D01*
X110401306Y-147987809D01*
X110395769Y-147986485D01*
X110390229Y-147985180D01*
X110384686Y-147983896D01*
X110379141Y-147982632D01*
X110373593Y-147981387D01*
X110368044Y-147980163D01*
X110362492Y-147978958D01*
X110356938Y-147977774D01*
X110351381Y-147976609D01*
X110345823Y-147975465D01*
X110340262Y-147974340D01*
X110334700Y-147973236D01*
X110329136Y-147972151D01*
X110323570Y-147971087D01*
X110318003Y-147970043D01*
X110312434Y-147969018D01*
X110306862Y-147968014D01*
X110301290Y-147967030D01*
X110295716Y-147966066D01*
X110290141Y-147965121D01*
X110284564Y-147964197D01*
X110278986Y-147963293D01*
X110273407Y-147962409D01*
X110267827Y-147961546D01*
X110262245Y-147960702D01*
X110256663Y-147959878D01*
X110251080Y-147959074D01*
X110245496Y-147958291D01*
X110239910Y-147957527D01*
X110234325Y-147956784D01*
X110228738Y-147956060D01*
X110223151Y-147955357D01*
X110217563Y-147954674D01*
X110211976Y-147954011D01*
X110206386Y-147953368D01*
X110200798Y-147952745D01*
X110195208Y-147952142D01*
X110189619Y-147951560D01*
X110184029Y-147950997D01*
X110178439Y-147950455D01*
X110172849Y-147949932D01*
X110167260Y-147949430D01*
X110161669Y-147948948D01*
X110156080Y-147948486D01*
X110150490Y-147948043D01*
X110144901Y-147947622D01*
X110139312Y-147947220D01*
X110133724Y-147946838D01*
X110128135Y-147946476D01*
X110122548Y-147946134D01*
X110116961Y-147945813D01*
X110111375Y-147945511D01*
X110105789Y-147945230D01*
X110100204Y-147944969D01*
X110094619Y-147944727D01*
X110089037Y-147944506D01*
X110083454Y-147944305D01*
X110077873Y-147944124D01*
X110072292Y-147943963D01*
X110066714Y-147943822D01*
X110061135Y-147943701D01*
X110055559Y-147943600D01*
X110049983Y-147943519D01*
X110044410Y-147943458D01*
X110038836Y-147943417D01*
X110033266Y-147943396D01*
X110027696Y-147943396D01*
X110022128Y-147943415D01*
X110016561Y-147943454D01*
X110010997Y-147943513D01*
X110005434Y-147943592D01*
X109999874Y-147943691D01*
X109994314Y-147943811D01*
X109988757Y-147943950D01*
X109983202Y-147944109D01*
X109977649Y-147944288D01*
X109972098Y-147944487D01*
X109966550Y-147944706D01*
X109961002Y-147944945D01*
X109955459Y-147945203D01*
X109949916Y-147945482D01*
X109944378Y-147945781D01*
X109938840Y-147946099D01*
X109933306Y-147946437D01*
X109927774Y-147946796D01*
X109922245Y-147947174D01*
X109916718Y-147947572D01*
X109911195Y-147947990D01*
X109905673Y-147948428D01*
X109900156Y-147948885D01*
X109894640Y-147949363D01*
X109889129Y-147949860D01*
X109883619Y-147950377D01*
X109878114Y-147950914D01*
X109872610Y-147951471D01*
X109867111Y-147952047D01*
X109861614Y-147952643D01*
X109856122Y-147953259D01*
X109850631Y-147953895D01*
X109845145Y-147954550D01*
X109839662Y-147955226D01*
X109834183Y-147955921D01*
X109828706Y-147956635D01*
X109823235Y-147957370D01*
X109817766Y-147958124D01*
X109812302Y-147958898D01*
X109806840Y-147959691D01*
X109801383Y-147960504D01*
X109795929Y-147961337D01*
X109790481Y-147962189D01*
X109785035Y-147963062D01*
X109779594Y-147963953D01*
X109774156Y-147964865D01*
X109768724Y-147965795D01*
X109763294Y-147966746D01*
X109757870Y-147967716D01*
X109752449Y-147968706D01*
X109747033Y-147969715D01*
X109741621Y-147970743D01*
X109736214Y-147971791D01*
X109730811Y-147972859D01*
X109725413Y-147973946D01*
X109720019Y-147975053D01*
X109714630Y-147976179D01*
X109709245Y-147977325D01*
X109703866Y-147978490D01*
X109698491Y-147979675D01*
X109693121Y-147980879D01*
X109687755Y-147982102D01*
X109682396Y-147983345D01*
X109677040Y-147984607D01*
X109671690Y-147985889D01*
X109666344Y-147987190D01*
X109661005Y-147988510D01*
X109655669Y-147989850D01*
X109650340Y-147991209D01*
X109645014Y-147992587D01*
X109639696Y-147993985D01*
X109634381Y-147995402D01*
X109629073Y-147996838D01*
X109623769Y-147998293D01*
X109618472Y-147999768D01*
X109613179Y-148001262D01*
X109607893Y-148002775D01*
X109602611Y-148004308D01*
X109597337Y-148005859D01*
X109592066Y-148007430D01*
X109586803Y-148009020D01*
X109581544Y-148010629D01*
X109576292Y-148012257D01*
X109571044Y-148013905D01*
X109565804Y-148015571D01*
X109560569Y-148017257D01*
X109555341Y-148018962D01*
X109550117Y-148020686D01*
X109544901Y-148022428D01*
X109539689Y-148024191D01*
X109534486Y-148025971D01*
X109529286Y-148027772D01*
X109524095Y-148029591D01*
X109518908Y-148031429D01*
X109513730Y-148033286D01*
X109508556Y-148035162D01*
X109503390Y-148037057D01*
X109498228Y-148038972D01*
X109493075Y-148040904D01*
X109487927Y-148042856D01*
X109482787Y-148044827D01*
X109477651Y-148046817D01*
X109472524Y-148048826D01*
X109467402Y-148050853D01*
X109462289Y-148052900D01*
X109457180Y-148054965D01*
X109452080Y-148057049D01*
X109446985Y-148059152D01*
X109441899Y-148061274D01*
X109436818Y-148063415D01*
X109431745Y-148065574D01*
X109426678Y-148067753D01*
X109421619Y-148069949D01*
X109416565Y-148072166D01*
X109411521Y-148074400D01*
X109406482Y-148076653D01*
X109401451Y-148078925D01*
X109396426Y-148081216D01*
X109391410Y-148083525D01*
X109386400Y-148085854D01*
X109381399Y-148088200D01*
X109376403Y-148090566D01*
X109371416Y-148092950D01*
X109366435Y-148095353D01*
X109361463Y-148097775D01*
X109356497Y-148100215D01*
X109351540Y-148102673D01*
X109346588Y-148105151D01*
X109341646Y-148107647D01*
X109336710Y-148110162D01*
X109331783Y-148112695D01*
X109326863Y-148115247D01*
X109321951Y-148117817D01*
X109317046Y-148120406D01*
X109312150Y-148123013D01*
X109307260Y-148125639D01*
X109302380Y-148128283D01*
X109297506Y-148130946D01*
X109292641Y-148133627D01*
X109287783Y-148136328D01*
X109282934Y-148139046D01*
X109278091Y-148141783D01*
X109273259Y-148144538D01*
X109268432Y-148147312D01*
X109263616Y-148150104D01*
X109258806Y-148152915D01*
X109254005Y-148155744D01*
X109249211Y-148158592D01*
X109244427Y-148161457D01*
X109239650Y-148164342D01*
X109234883Y-148167244D01*
X109230122Y-148170166D01*
X109225371Y-148173105D01*
X109220627Y-148176063D01*
X109215893Y-148179039D01*
X109211165Y-148182034D01*
X109206448Y-148185046D01*
X109201738Y-148188078D01*
X109197038Y-148191127D01*
X109192344Y-148194195D01*
X109187661Y-148197281D01*
X109182985Y-148200386D01*
X109178319Y-148203508D01*
X109173660Y-148206650D01*
X109169012Y-148209809D01*
X109164370Y-148212987D01*
X109160001Y-148216001D01*
X94120000Y-113420000D02*
X94131657Y-113382959D01*
X94145584Y-113338437D01*
X94162142Y-113285239D01*
X94181794Y-113221840D01*
X94205193Y-113146091D01*
X94233431Y-113054424D01*
X94268900Y-112939041D01*
X94299066Y-112840806D01*
X94328401Y-112745279D01*
X94356145Y-112655024D01*
X94381583Y-112572458D01*
X94393214Y-112534815D01*
X94404000Y-112500000D01*
X141336001Y-123868000D02*
X141345897Y-123837666D01*
X141357333Y-123802355D01*
X141370520Y-123761378D01*
X141385725Y-123713875D01*
X141403306Y-123658692D01*
X141423798Y-123594121D01*
X141448125Y-123517217D01*
X141478332Y-123421483D01*
X141507246Y-123329729D01*
X141541955Y-123219600D01*
X141558744Y-123166392D01*
X141574990Y-123114992D01*
X141590564Y-123065826D01*
X141605342Y-123019320D01*
X141619196Y-122975903D01*
X141625738Y-122955485D01*
X141632001Y-122936000D01*
D10*
X138828001Y-98579999D02*
X139140001Y-99063999D01*
X132456001Y-138440001D02*
X132120001Y-138820001D01*
X96552000Y-106124000D02*
X96824001Y-105659999D01*
X139632001Y-113200000D02*
X139532001Y-112940000D01*
X96444000Y-106396000D02*
X96552000Y-106124000D01*
X133240001Y-149112001D02*
X132776001Y-149052001D01*
X112932001Y-146588001D02*
X112988001Y-146828001D01*
X141108001Y-102531999D02*
X141244001Y-102799999D01*
D11*
X103272001Y-147728001D02*
X103230349Y-147724332D01*
X103188703Y-147720583D01*
X103147063Y-147716755D01*
X103105428Y-147712847D01*
X103063799Y-147708859D01*
X103022174Y-147704791D01*
X102980555Y-147700643D01*
X102938941Y-147696415D01*
X102897331Y-147692107D01*
X102855726Y-147687720D01*
X102814126Y-147683252D01*
X102772529Y-147678705D01*
X102730936Y-147674077D01*
X102689347Y-147669370D01*
X102647762Y-147664582D01*
X102606180Y-147659714D01*
X102564601Y-147654766D01*
X102523025Y-147649738D01*
X102481452Y-147644629D01*
X102439882Y-147639441D01*
X102398314Y-147634172D01*
X102356749Y-147628823D01*
X102315185Y-147623393D01*
X102273624Y-147617883D01*
X102232064Y-147612292D01*
X102190506Y-147606621D01*
X102148950Y-147600870D01*
X102107394Y-147595038D01*
X102065840Y-147589125D01*
X102024286Y-147583132D01*
X101982733Y-147577058D01*
X101941181Y-147570903D01*
X101899629Y-147564667D01*
X101858077Y-147558351D01*
X101816525Y-147551953D01*
X101774972Y-147545475D01*
X101733419Y-147538915D01*
X101691866Y-147532275D01*
X101650312Y-147525553D01*
X101608756Y-147518750D01*
X101567200Y-147511866D01*
X101525642Y-147504901D01*
X101484082Y-147497854D01*
X101442521Y-147490726D01*
X101400958Y-147483516D01*
X101359393Y-147476225D01*
X101317825Y-147468852D01*
X101276255Y-147461398D01*
X101234683Y-147453862D01*
X101193107Y-147446244D01*
X101151528Y-147438544D01*
X101109946Y-147430762D01*
X101068361Y-147422898D01*
X101026772Y-147414952D01*
X100985179Y-147406924D01*
X100943582Y-147398814D01*
X100901981Y-147390621D01*
X100860376Y-147382346D01*
X100818766Y-147373989D01*
X100777151Y-147365549D01*
X100735532Y-147357026D01*
X100693907Y-147348421D01*
X100652277Y-147339733D01*
X100610641Y-147330962D01*
X100568999Y-147322108D01*
X100527352Y-147313171D01*
X100485699Y-147304151D01*
X100444039Y-147295047D01*
X100402373Y-147285861D01*
X100360700Y-147276591D01*
X100319020Y-147267238D01*
X100277333Y-147257801D01*
X100235639Y-147248280D01*
X100193937Y-147238676D01*
X100152228Y-147228987D01*
X100148001Y-147228001D01*
X133284001Y-90487998D02*
X133296340Y-90502627D01*
X133311106Y-90520010D01*
X133328720Y-90540623D01*
X133349749Y-90565114D01*
X133375056Y-90594468D01*
X133406199Y-90630476D01*
X133447034Y-90677585D01*
X133466960Y-90700553D01*
X133513047Y-90753693D01*
X133535444Y-90779553D01*
X133557110Y-90804613D01*
X133577823Y-90828632D01*
X133597358Y-90851365D01*
X133615492Y-90872568D01*
X133623964Y-90882520D01*
X133632001Y-90891998D01*
D10*
X138468001Y-146648001D02*
X137924001Y-146764001D01*
X132084001Y-88939998D02*
X132444001Y-89375998D01*
X103488001Y-111276000D02*
X103452001Y-110624000D01*
X104004001Y-138416001D02*
X103932001Y-138140001D01*
X132444001Y-89375998D02*
X132800001Y-89807998D01*
D11*
X100552001Y-121788000D02*
X100575925Y-121715016D01*
X100612700Y-121603060D01*
X100635484Y-121533749D01*
X100691548Y-121363151D01*
X100720077Y-121276240D01*
X100748147Y-121190602D01*
X100775167Y-121107998D01*
X100788098Y-121068384D01*
X100800544Y-121030189D01*
X100812431Y-120993633D01*
X100823686Y-120958936D01*
X100834234Y-120926318D01*
X100844001Y-120896000D01*
D10*
X118484001Y-141212001D02*
X117560001Y-140896001D01*
X141764001Y-127008000D02*
X140988001Y-126688000D01*
X102508001Y-95767999D02*
X102840001Y-95303999D01*
X140076001Y-114008000D02*
X139920001Y-113716000D01*
X126632001Y-73959998D02*
X126312001Y-74427998D01*
D11*
X92684000Y-119340000D02*
X92687082Y-119334256D01*
X92690142Y-119328509D01*
X92693177Y-119322767D01*
X92696191Y-119317023D01*
X92699179Y-119311284D01*
X92702146Y-119305542D01*
X92705088Y-119299805D01*
X92708009Y-119294066D01*
X92710905Y-119288332D01*
X92713780Y-119282596D01*
X92716630Y-119276864D01*
X92719458Y-119271130D01*
X92722262Y-119265401D01*
X92725045Y-119259669D01*
X92727804Y-119253942D01*
X92730541Y-119248212D01*
X92733254Y-119242487D01*
X92735946Y-119236760D01*
X92738614Y-119231037D01*
X92741261Y-119225312D01*
X92743884Y-119219591D01*
X92746485Y-119213868D01*
X92749063Y-119208149D01*
X92751620Y-119202428D01*
X92754154Y-119196711D01*
X92756666Y-119190991D01*
X92759155Y-119185276D01*
X92761623Y-119179558D01*
X92764067Y-119173845D01*
X92766491Y-119168129D01*
X92768891Y-119162417D01*
X92771270Y-119156702D01*
X92773627Y-119150992D01*
X92775962Y-119145279D01*
X92778275Y-119139570D01*
X92780566Y-119133859D01*
X92782835Y-119128151D01*
X92785083Y-119122441D01*
X92787309Y-119116735D01*
X92789513Y-119111026D01*
X92791695Y-119105321D01*
X92793856Y-119099613D01*
X92795995Y-119093909D01*
X92798113Y-119088202D01*
X92800209Y-119082499D01*
X92802284Y-119076793D01*
X92804337Y-119071091D01*
X92806369Y-119065386D01*
X92808379Y-119059685D01*
X92810368Y-119053981D01*
X92812335Y-119048280D01*
X92814282Y-119042577D01*
X92816207Y-119036877D01*
X92818111Y-119031174D01*
X92819994Y-119025474D01*
X92821856Y-119019772D01*
X92823696Y-119014073D01*
X92825516Y-119008371D01*
X92827314Y-119002672D01*
X92829092Y-118996971D01*
X92830848Y-118991272D01*
X92832584Y-118985571D01*
X92834298Y-118979872D01*
X92835992Y-118974171D01*
X92837664Y-118968472D01*
X92839317Y-118962771D01*
X92840947Y-118957072D01*
X92842558Y-118951371D01*
X92844147Y-118945672D01*
X92845716Y-118939971D01*
X92847264Y-118934271D01*
X92848792Y-118928570D01*
X92850299Y-118922870D01*
X92851785Y-118917168D01*
X92853250Y-118911468D01*
X92854695Y-118905765D01*
X92856120Y-118900064D01*
X92857524Y-118894361D01*
X92858907Y-118888659D01*
X92860270Y-118882955D01*
X92861612Y-118877253D01*
X92862934Y-118871548D01*
X92864236Y-118865844D01*
X92865517Y-118860139D01*
X92866778Y-118854434D01*
X92868018Y-118848727D01*
X92869238Y-118843022D01*
X92870438Y-118837314D01*
X92871617Y-118831607D01*
X92872776Y-118825898D01*
X92873915Y-118820189D01*
X92875034Y-118814479D01*
X92876132Y-118808769D01*
X92877210Y-118803057D01*
X92878268Y-118797345D01*
X92879306Y-118791632D01*
X92880323Y-118785918D01*
X92881321Y-118780203D01*
X92882298Y-118774488D01*
X92883255Y-118768771D01*
X92884192Y-118763054D01*
X92885109Y-118757334D01*
X92886006Y-118751615D01*
X92886883Y-118745894D01*
X92887739Y-118740173D01*
X92888576Y-118734449D01*
X92889392Y-118728726D01*
X92890189Y-118723000D01*
X92890965Y-118717274D01*
X92891722Y-118711546D01*
X92892458Y-118705817D01*
X92893175Y-118700087D01*
X92893871Y-118694355D01*
X92894548Y-118688622D01*
X92895204Y-118682888D01*
X92895841Y-118677152D01*
X92896457Y-118671415D01*
X92897054Y-118665676D01*
X92897631Y-118659936D01*
X92898187Y-118654194D01*
X92898724Y-118648451D01*
X92899241Y-118642706D01*
X92899738Y-118636960D01*
X92900215Y-118631212D01*
X92900672Y-118625462D01*
X92901109Y-118619710D01*
X92901526Y-118613957D01*
X92901923Y-118608202D01*
X92902300Y-118602445D01*
X92902658Y-118596687D01*
X92902995Y-118590926D01*
X92903313Y-118585164D01*
X92903610Y-118579399D01*
X92903888Y-118573633D01*
X92904146Y-118567865D01*
X92904383Y-118562095D01*
X92904601Y-118556322D01*
X92904799Y-118550548D01*
X92904977Y-118544771D01*
X92905135Y-118538993D01*
X92905273Y-118533212D01*
X92905391Y-118527429D01*
X92905568Y-118515857D01*
X92905664Y-118504275D01*
X92905681Y-118492684D01*
X92905617Y-118481083D01*
X92905474Y-118469472D01*
X92905250Y-118457851D01*
X92904946Y-118446220D01*
X92904562Y-118434579D01*
X92904097Y-118422926D01*
X92903552Y-118411262D01*
X92902926Y-118399587D01*
X92902220Y-118387901D01*
X92901432Y-118376202D01*
X92900563Y-118364492D01*
X92899614Y-118352769D01*
X92898583Y-118341033D01*
X92897470Y-118329285D01*
X92896276Y-118317524D01*
X92895000Y-118305750D01*
X92893642Y-118293962D01*
X92892202Y-118282160D01*
X92890680Y-118270344D01*
X92889075Y-118258514D01*
X92887387Y-118246669D01*
X92885617Y-118234810D01*
X92883763Y-118222936D01*
X92881826Y-118211046D01*
X92879805Y-118199141D01*
X92877700Y-118187221D01*
X92875511Y-118175284D01*
X92873238Y-118163331D01*
X92870881Y-118151362D01*
X92868438Y-118139376D01*
X92865910Y-118127374D01*
X92863297Y-118115354D01*
X92860599Y-118103317D01*
X92857814Y-118091262D01*
X92854943Y-118079190D01*
X92851985Y-118067099D01*
X92848941Y-118054991D01*
X92845809Y-118042864D01*
X92844000Y-118036000D01*
D10*
X113148001Y-147764001D02*
X112964001Y-148176001D01*
X110964001Y-144156001D02*
X111300001Y-144584001D01*
X137268001Y-110712000D02*
X136840001Y-110968000D01*
X141496001Y-103319999D02*
X141624001Y-103591999D01*
X133148001Y-90243998D02*
X133284001Y-90487998D01*
X102436001Y-135016001D02*
X102164001Y-134536001D01*
X140968001Y-125688000D02*
X140968001Y-125364000D01*
X106900001Y-89059998D02*
X107172001Y-88527998D01*
X118372001Y-65715998D02*
X118736001Y-65759998D01*
D11*
X132532001Y-149044001D02*
X132510737Y-149035606D01*
X132483890Y-149024923D01*
X132449489Y-149011152D01*
X132403256Y-148992566D01*
X132362614Y-148976196D01*
X132324337Y-148960778D01*
X132285737Y-148945249D01*
X132247396Y-148929863D01*
X132209897Y-148914876D01*
X132191646Y-148907611D01*
X132173825Y-148900542D01*
X132156506Y-148893699D01*
X132139763Y-148887115D01*
X132123667Y-148880821D01*
X132108293Y-148874849D01*
X132093714Y-148869232D01*
X132080001Y-148864001D01*
D10*
X133912001Y-148864001D02*
X133480001Y-149064001D01*
D11*
X112456001Y-67407998D02*
X112470444Y-67398805D01*
X112487019Y-67388159D01*
X112505974Y-67375891D01*
X112527597Y-67361802D01*
X112552243Y-67345648D01*
X112580376Y-67327117D01*
X112612654Y-67305763D01*
X112650152Y-67280865D01*
X112695014Y-67250989D01*
X112760830Y-67207069D01*
X112807979Y-67175599D01*
X112852317Y-67146057D01*
X112873076Y-67132261D01*
X112892704Y-67119252D01*
X112911060Y-67107131D01*
X112928001Y-67095998D01*
D10*
X127772001Y-72503998D02*
X127632001Y-72735998D01*
X135612001Y-93743998D02*
X135936001Y-94223998D01*
X107304001Y-88247998D02*
X107556001Y-87719998D01*
X133636001Y-136968001D02*
X133472001Y-137208001D01*
X116000001Y-140244001D02*
X115684001Y-140216001D01*
X101660001Y-133128001D02*
X101400001Y-132624001D01*
X136468001Y-143496001D02*
X137316001Y-143856001D01*
X101700001Y-133428001D02*
X101660001Y-133128001D01*
X137404001Y-146716001D02*
X137116001Y-146792001D01*
X103468001Y-110316000D02*
X103488001Y-110020000D01*
D11*
X93732000Y-114668000D02*
X93741905Y-114638162D01*
X93753351Y-114603428D01*
X93766551Y-114563120D01*
X93781769Y-114516395D01*
X93799363Y-114462122D01*
X93819865Y-114398630D01*
X93844193Y-114323044D01*
X93874370Y-114229052D01*
X93903734Y-114137473D01*
X93938308Y-114029654D01*
X93955030Y-113977569D01*
X93971210Y-113927255D01*
X93986721Y-113879126D01*
X94001440Y-113833597D01*
X94015241Y-113791083D01*
X94021759Y-113771087D01*
X94028000Y-113752000D01*
X130112001Y-70267998D02*
X130083542Y-70289863D01*
X130044111Y-70320252D01*
X129992014Y-70360471D01*
X129945656Y-70396261D01*
X129897749Y-70433209D01*
X129873539Y-70451854D01*
X129849331Y-70470472D01*
X129825256Y-70488958D01*
X129801443Y-70507206D01*
X129778023Y-70525112D01*
X129755126Y-70542569D01*
X129732881Y-70559473D01*
X129711419Y-70575718D01*
X129690870Y-70591198D01*
X129671364Y-70605808D01*
X129662043Y-70612754D01*
X129653031Y-70619443D01*
X129644345Y-70625862D01*
X129636001Y-70631998D01*
D10*
X128148001Y-84467998D02*
X128504001Y-84923998D01*
D11*
X121120001Y-141724001D02*
X121083261Y-141720900D01*
X121040407Y-141717204D01*
X120990442Y-141712815D01*
X120932021Y-141707604D01*
X120863146Y-141701383D01*
X120780389Y-141693832D01*
X120676344Y-141684267D01*
X120565013Y-141673988D01*
X120481190Y-141666247D01*
X120398003Y-141658583D01*
X120316378Y-141651099D01*
X120237237Y-141643899D01*
X120198887Y-141640437D01*
X120161505Y-141637085D01*
X120125206Y-141633856D01*
X120090106Y-141630762D01*
X120056319Y-141627817D01*
X120023963Y-141625033D01*
X119993152Y-141622423D01*
X119964001Y-141620001D01*
D10*
X131528001Y-139680001D02*
X131420001Y-139956001D01*
X102176001Y-116180000D02*
X102460001Y-115256000D01*
X113668001Y-66655998D02*
X113940001Y-66583998D01*
X133472001Y-137208001D02*
X133136001Y-137644001D01*
X103220001Y-113208000D02*
X103252001Y-112548000D01*
X105176001Y-92067998D02*
X105296001Y-91815998D01*
X126560001Y-149496001D02*
X126244001Y-149576001D01*
D11*
X136664001Y-118456000D02*
X136666852Y-118524238D01*
X136669829Y-118593599D01*
X136672937Y-118664158D01*
X136676181Y-118735998D01*
X136679567Y-118809213D01*
X136683100Y-118883909D01*
X136686788Y-118960208D01*
X136690640Y-119038252D01*
X136694665Y-119118204D01*
X136698875Y-119200259D01*
X136703283Y-119284648D01*
X136707907Y-119371649D01*
X136712767Y-119461608D01*
X136717889Y-119554956D01*
X136723306Y-119652248D01*
X136729061Y-119754222D01*
X136735216Y-119861892D01*
X136741858Y-119976730D01*
X136749123Y-120101020D01*
X136757247Y-120238697D01*
X136766706Y-120397752D01*
X136778839Y-120600653D01*
X136781932Y-120652285D01*
X136795933Y-120886289D01*
X136802905Y-121003338D01*
X136809843Y-121120415D01*
X136816734Y-121237519D01*
X136823564Y-121354648D01*
X136826954Y-121413222D01*
X136830323Y-121471801D01*
X136833672Y-121530386D01*
X136836998Y-121588975D01*
X136840300Y-121647570D01*
X136843576Y-121706170D01*
X136846825Y-121764774D01*
X136850046Y-121823383D01*
X136853235Y-121881995D01*
X136856394Y-121940612D01*
X136859518Y-121999232D01*
X136862608Y-122057856D01*
X136865661Y-122116483D01*
X136868677Y-122175113D01*
X136871652Y-122233746D01*
X136874587Y-122292381D01*
X136877479Y-122351019D01*
X136880327Y-122409659D01*
X136883129Y-122468301D01*
X136885884Y-122526945D01*
X136888590Y-122585590D01*
X136891246Y-122644237D01*
X136893849Y-122702885D01*
X136896400Y-122761534D01*
X136898895Y-122820183D01*
X136901334Y-122878833D01*
X136903715Y-122937483D01*
X136906037Y-122996133D01*
X136908297Y-123054782D01*
X136910495Y-123113432D01*
X136912628Y-123172081D01*
X136914696Y-123230729D01*
X136916696Y-123289375D01*
X136918627Y-123348021D01*
X136920489Y-123406665D01*
X136922278Y-123465308D01*
X136923994Y-123523948D01*
X136925635Y-123582586D01*
X136927199Y-123641222D01*
X136928685Y-123699856D01*
X136929398Y-123729171D01*
X136930092Y-123758486D01*
X136930765Y-123787801D01*
X136931417Y-123817114D01*
X136932049Y-123846427D01*
X136932660Y-123875738D01*
X136933250Y-123905049D01*
X136933818Y-123934359D01*
X136934366Y-123963668D01*
X136934891Y-123992977D01*
X136935395Y-124022284D01*
X136935877Y-124051590D01*
X136936336Y-124080895D01*
X136936773Y-124110199D01*
X136937188Y-124139502D01*
X136937580Y-124168804D01*
X136937948Y-124198105D01*
X136938294Y-124227405D01*
X136938616Y-124256703D01*
X136938915Y-124286000D01*
X136939190Y-124315297D01*
X136939440Y-124344591D01*
X136939667Y-124373885D01*
X136939870Y-124403177D01*
X136940048Y-124432468D01*
X136940201Y-124461757D01*
X136940329Y-124491045D01*
X136940432Y-124520332D01*
X136940510Y-124549617D01*
X136940563Y-124578901D01*
X136940589Y-124608183D01*
X136940590Y-124637463D01*
X136940565Y-124666742D01*
X136940514Y-124696020D01*
X136940436Y-124725296D01*
X136940331Y-124754570D01*
X136940200Y-124783842D01*
X136940041Y-124813113D01*
X136939856Y-124842382D01*
X136939643Y-124871650D01*
X136939402Y-124900915D01*
X136939134Y-124930179D01*
X136938837Y-124959441D01*
X136938512Y-124988701D01*
X136938159Y-125017959D01*
X136937778Y-125047215D01*
X136937368Y-125076470D01*
X136936928Y-125105722D01*
X136936460Y-125134972D01*
X136935962Y-125164221D01*
X136935435Y-125193467D01*
X136934878Y-125222711D01*
X136934291Y-125251953D01*
X136933674Y-125281193D01*
X136933026Y-125310431D01*
X136932349Y-125339667D01*
X136931640Y-125368900D01*
X136930901Y-125398131D01*
X136930130Y-125427360D01*
X136929328Y-125456587D01*
X136928495Y-125485811D01*
X136927630Y-125515033D01*
X136926734Y-125544253D01*
X136925805Y-125573470D01*
X136924844Y-125602685D01*
X136923850Y-125631897D01*
X136922824Y-125661107D01*
X136921766Y-125690314D01*
X136920674Y-125719519D01*
X136919549Y-125748721D01*
X136918390Y-125777921D01*
X136917199Y-125807118D01*
X136915973Y-125836312D01*
X136914713Y-125865504D01*
X136913419Y-125894693D01*
X136912091Y-125923879D01*
X136910728Y-125953062D01*
X136909331Y-125982243D01*
X136907899Y-126011421D01*
X136906431Y-126040596D01*
X136904928Y-126069768D01*
X136903390Y-126098938D01*
X136901816Y-126128104D01*
X136900206Y-126157268D01*
X136898560Y-126186428D01*
X136896878Y-126215586D01*
X136895159Y-126244740D01*
X136893404Y-126273891D01*
X136891612Y-126303040D01*
X136889782Y-126332185D01*
X136887916Y-126361327D01*
X136886012Y-126390466D01*
X136884070Y-126419602D01*
X136882091Y-126448734D01*
X136880074Y-126477864D01*
X136878018Y-126506990D01*
X136875924Y-126536112D01*
X136873792Y-126565232D01*
X136871620Y-126594348D01*
X136869410Y-126623461D01*
X136867161Y-126652570D01*
X136864872Y-126681676D01*
X136862544Y-126710778D01*
X136860176Y-126739877D01*
X136857768Y-126768973D01*
X136855319Y-126798065D01*
X136852831Y-126827153D01*
X136850302Y-126856238D01*
X136847732Y-126885319D01*
X136845122Y-126914396D01*
X136842470Y-126943470D01*
X136839777Y-126972540D01*
X136837043Y-127001607D01*
X136834267Y-127030669D01*
X136831449Y-127059728D01*
X136828589Y-127088783D01*
X136825687Y-127117834D01*
X136822742Y-127146882D01*
X136819755Y-127175925D01*
X136816725Y-127204964D01*
X136813652Y-127234000D01*
X136810535Y-127263032D01*
X136807376Y-127292059D01*
X136804172Y-127321083D01*
X136800925Y-127350102D01*
X136797634Y-127379118D01*
X136794299Y-127408129D01*
X136790920Y-127437137D01*
X136787495Y-127466140D01*
X136784027Y-127495138D01*
X136780513Y-127524133D01*
X136776954Y-127553124D01*
X136773350Y-127582110D01*
X136769700Y-127611092D01*
X136766004Y-127640069D01*
X136762263Y-127669042D01*
X136758475Y-127698011D01*
X136754642Y-127726976D01*
X136750761Y-127755936D01*
X136746835Y-127784891D01*
X136742861Y-127813842D01*
X136738840Y-127842789D01*
X136734772Y-127871731D01*
X136730656Y-127900668D01*
X136726493Y-127929601D01*
X136722282Y-127958529D01*
X136718023Y-127987453D01*
X136713716Y-128016372D01*
X136709360Y-128045286D01*
X136704956Y-128074195D01*
X136700503Y-128103100D01*
X136696001Y-128132000D01*
D10*
X100212001Y-144680001D02*
X100460001Y-144532001D01*
X140704001Y-101747999D02*
X140844001Y-102015999D01*
X141632001Y-122936000D02*
X141728001Y-122600000D01*
X104212001Y-148248001D02*
X103816001Y-147932001D01*
X137116001Y-146792001D02*
X136192001Y-146992001D01*
X100396001Y-98879999D02*
X100516001Y-98619999D01*
D11*
X125632001Y-148828001D02*
X125634467Y-148821933D01*
X125636912Y-148815864D01*
X125639333Y-148809800D01*
X125641733Y-148803734D01*
X125644110Y-148797673D01*
X125646466Y-148791610D01*
X125648799Y-148785552D01*
X125651111Y-148779493D01*
X125653400Y-148773438D01*
X125655668Y-148767382D01*
X125657913Y-148761330D01*
X125660137Y-148755276D01*
X125662338Y-148749227D01*
X125664519Y-148743177D01*
X125666676Y-148737131D01*
X125668813Y-148731083D01*
X125670927Y-148725040D01*
X125673021Y-148718995D01*
X125675092Y-148712954D01*
X125677142Y-148706912D01*
X125679170Y-148700874D01*
X125681177Y-148694834D01*
X125683162Y-148688798D01*
X125685126Y-148682761D01*
X125687068Y-148676728D01*
X125688990Y-148670693D01*
X125690889Y-148664662D01*
X125692768Y-148658630D01*
X125694624Y-148652601D01*
X125696460Y-148646570D01*
X125698275Y-148640544D01*
X125700068Y-148634516D01*
X125701840Y-148628491D01*
X125703591Y-148622465D01*
X125705321Y-148616442D01*
X125707030Y-148610418D01*
X125708718Y-148604397D01*
X125710385Y-148598375D01*
X125712030Y-148592356D01*
X125713655Y-148586335D01*
X125715259Y-148580318D01*
X125716842Y-148574299D01*
X125718403Y-148568283D01*
X125719945Y-148562266D01*
X125721465Y-148556251D01*
X125722965Y-148550235D01*
X125724443Y-148544222D01*
X125725901Y-148538208D01*
X125727338Y-148532196D01*
X125728755Y-148526183D01*
X125730151Y-148520172D01*
X125731526Y-148514160D01*
X125732880Y-148508151D01*
X125734214Y-148502140D01*
X125735527Y-148496131D01*
X125736820Y-148490121D01*
X125738092Y-148484114D01*
X125739344Y-148478105D01*
X125740575Y-148472098D01*
X125741786Y-148466090D01*
X125742976Y-148460083D01*
X125744146Y-148454076D01*
X125745295Y-148448070D01*
X125746424Y-148442063D01*
X125747532Y-148436058D01*
X125748620Y-148430052D01*
X125749688Y-148424047D01*
X125750735Y-148418041D01*
X125751762Y-148412036D01*
X125752769Y-148406030D01*
X125753755Y-148400026D01*
X125754721Y-148394020D01*
X125755667Y-148388016D01*
X125756593Y-148382011D01*
X125757498Y-148376006D01*
X125758383Y-148370001D01*
X125759248Y-148363996D01*
X125760093Y-148357991D01*
X125760918Y-148351986D01*
X125761722Y-148345980D01*
X125762506Y-148339975D01*
X125763270Y-148333969D01*
X125764014Y-148327963D01*
X125764738Y-148321957D01*
X125765442Y-148315950D01*
X125766126Y-148309943D01*
X125766789Y-148303937D01*
X125767433Y-148297929D01*
X125768056Y-148291921D01*
X125768659Y-148285913D01*
X125769243Y-148279904D01*
X125769806Y-148273895D01*
X125770349Y-148267885D01*
X125770872Y-148261875D01*
X125771375Y-148255864D01*
X125771858Y-148249853D01*
X125772321Y-148243841D01*
X125772764Y-148237829D01*
X125773187Y-148231816D01*
X125773591Y-148225802D01*
X125773974Y-148219787D01*
X125774337Y-148213772D01*
X125774680Y-148207756D01*
X125775003Y-148201739D01*
X125775306Y-148195721D01*
X125775589Y-148189703D01*
X125776095Y-148177663D01*
X125776522Y-148165620D01*
X125776868Y-148153573D01*
X125777135Y-148141522D01*
X125777321Y-148129466D01*
X125777428Y-148117406D01*
X125777454Y-148105341D01*
X125777401Y-148093271D01*
X125777268Y-148081196D01*
X125777054Y-148069116D01*
X125776761Y-148057030D01*
X125776387Y-148044938D01*
X125775933Y-148032840D01*
X125775399Y-148020736D01*
X125774784Y-148008625D01*
X125774089Y-147996507D01*
X125773314Y-147984383D01*
X125772457Y-147972251D01*
X125771520Y-147960112D01*
X125770503Y-147947965D01*
X125769404Y-147935811D01*
X125768224Y-147923648D01*
X125766963Y-147911478D01*
X125765620Y-147899299D01*
X125764197Y-147887111D01*
X125762691Y-147874914D01*
X125761104Y-147862708D01*
X125759435Y-147850493D01*
X125757684Y-147838268D01*
X125755850Y-147826034D01*
X125753935Y-147813790D01*
X125751936Y-147801535D01*
X125749855Y-147789271D01*
X125747691Y-147776995D01*
X125745444Y-147764709D01*
X125743113Y-147752412D01*
X125740699Y-147740104D01*
X125738201Y-147727784D01*
X125735619Y-147715453D01*
X125732952Y-147703110D01*
X125730202Y-147690755D01*
X125727366Y-147678387D01*
X125724446Y-147666008D01*
X125721440Y-147653615D01*
X125718349Y-147641210D01*
X125716001Y-147632001D01*
D10*
X125716001Y-147632001D02*
X125888001Y-147040001D01*
X141204001Y-116872000D02*
X140888001Y-115940000D01*
X95252000Y-109676000D02*
X95356000Y-109348000D01*
X132344001Y-66887998D02*
X132856001Y-66667998D01*
X131620001Y-148648001D02*
X131140001Y-148380001D01*
X129628001Y-86159998D02*
X130008001Y-86559998D01*
X141248001Y-124200000D02*
X141336001Y-123868000D01*
X119964001Y-141620001D02*
X119840001Y-141280001D01*
D11*
X140988001Y-126688000D02*
X140987224Y-126642229D01*
X140986182Y-126585494D01*
X140984813Y-126515158D01*
X140983019Y-126426953D01*
X140980608Y-126311939D01*
X140978193Y-126198501D01*
X140975172Y-126056383D01*
X140973718Y-125987028D01*
X140972335Y-125919831D01*
X140971047Y-125855562D01*
X140969879Y-125794988D01*
X140968856Y-125738878D01*
X140968406Y-125712737D01*
X140968001Y-125688000D01*
D10*
X131376001Y-142376001D02*
X131380001Y-142652001D01*
X111372001Y-148344001D02*
X110876001Y-148184001D01*
X127632001Y-72735998D02*
X127296001Y-73147998D01*
D11*
X130172001Y-148260001D02*
X130168200Y-148255179D01*
X130164402Y-148250394D01*
X130160627Y-148245670D01*
X130156855Y-148240982D01*
X130153105Y-148236354D01*
X130149359Y-148231761D01*
X130145636Y-148227228D01*
X130141916Y-148222731D01*
X130138217Y-148218291D01*
X130134523Y-148213887D01*
X130130850Y-148209541D01*
X130127180Y-148205229D01*
X130123533Y-148200974D01*
X130119888Y-148196753D01*
X130116265Y-148192589D01*
X130112646Y-148188458D01*
X130109048Y-148184382D01*
X130105453Y-148180341D01*
X130101880Y-148176353D01*
X130098310Y-148172399D01*
X130094761Y-148168499D01*
X130091215Y-148164631D01*
X130087690Y-148160817D01*
X130084169Y-148157035D01*
X130080668Y-148153305D01*
X130077171Y-148149607D01*
X130073694Y-148145961D01*
X130070220Y-148142347D01*
X130066767Y-148138783D01*
X130063316Y-148135251D01*
X130059887Y-148131768D01*
X130056460Y-148128317D01*
X130053053Y-148124915D01*
X130049649Y-148121545D01*
X130046266Y-148118222D01*
X130042885Y-148114930D01*
X130039525Y-148111685D01*
X130036167Y-148108472D01*
X130032829Y-148105304D01*
X130029493Y-148102167D01*
X130026178Y-148099076D01*
X130022865Y-148096015D01*
X130019571Y-148093000D01*
X130016281Y-148090013D01*
X130013009Y-148087072D01*
X130009740Y-148084159D01*
X130006491Y-148081291D01*
X130003244Y-148078452D01*
X130000016Y-148075655D01*
X129996790Y-148072888D01*
X129993583Y-148070163D01*
X129990379Y-148067466D01*
X129987193Y-148064811D01*
X129984010Y-148062185D01*
X129980846Y-148059599D01*
X129977684Y-148057042D01*
X129974539Y-148054524D01*
X129971398Y-148052035D01*
X129968274Y-148049585D01*
X129965153Y-148047163D01*
X129962050Y-148044780D01*
X129958949Y-148042423D01*
X129955865Y-148040106D01*
X129952784Y-148037815D01*
X129949721Y-148035562D01*
X129946660Y-148033336D01*
X129943615Y-148031147D01*
X129940574Y-148028984D01*
X129937549Y-148026858D01*
X129934526Y-148024758D01*
X129931520Y-148022694D01*
X129928517Y-148020656D01*
X129925530Y-148018653D01*
X129922545Y-148016676D01*
X129919577Y-148014733D01*
X129916610Y-148012817D01*
X129913660Y-148010934D01*
X129910712Y-148009076D01*
X129907780Y-148007252D01*
X129904850Y-148005453D01*
X129901936Y-148003687D01*
X129899023Y-148001946D01*
X129896126Y-148000237D01*
X129893232Y-147998553D01*
X129890352Y-147996901D01*
X129887475Y-147995273D01*
X129884612Y-147993676D01*
X129881751Y-147992104D01*
X129878905Y-147990562D01*
X129876061Y-147989045D01*
X129873232Y-147987557D01*
X129870404Y-147986094D01*
X129867591Y-147984660D01*
X129864780Y-147983250D01*
X129861982Y-147981869D01*
X129859187Y-147980511D01*
X129856405Y-147979183D01*
X129853625Y-147977877D01*
X129850858Y-147976600D01*
X129848094Y-147975346D01*
X129845342Y-147974119D01*
X129842593Y-147972916D01*
X129839856Y-147971739D01*
X129837121Y-147970586D01*
X129834399Y-147969460D01*
X129831679Y-147968356D01*
X129828970Y-147967278D01*
X129826264Y-147966223D01*
X129823570Y-147965194D01*
X129820878Y-147964187D01*
X129818197Y-147963206D01*
X129815518Y-147962247D01*
X129812850Y-147961313D01*
X129810185Y-147960401D01*
X129807530Y-147959514D01*
X129804877Y-147958649D01*
X129802235Y-147957808D01*
X129799595Y-147956989D01*
X129796966Y-147956194D01*
X129794338Y-147955421D01*
X129791720Y-147954671D01*
X129789105Y-147953943D01*
X129786499Y-147953238D01*
X129783895Y-147952555D01*
X129781300Y-147951895D01*
X129778708Y-147951256D01*
X129776124Y-147950639D01*
X129773542Y-147950044D01*
X129770970Y-147949471D01*
X129768399Y-147948920D01*
X129765836Y-147948390D01*
X129763276Y-147947882D01*
X129760723Y-147947395D01*
X129758173Y-147946929D01*
X129755630Y-147946485D01*
X129753090Y-147946062D01*
X129750557Y-147945660D01*
X129748025Y-147945278D01*
X129745501Y-147944918D01*
X129742979Y-147944579D01*
X129740464Y-147944260D01*
X129737950Y-147943962D01*
X129735443Y-147943685D01*
X129732939Y-147943429D01*
X129730440Y-147943193D01*
X129727943Y-147942977D01*
X129725452Y-147942782D01*
X129722963Y-147942607D01*
X129720479Y-147942452D01*
X129717997Y-147942318D01*
X129715521Y-147942204D01*
X129713046Y-147942110D01*
X129710576Y-147942037D01*
X129708109Y-147941983D01*
X129705645Y-147941949D01*
X129703184Y-147941936D01*
X129700727Y-147941943D01*
X129698271Y-147941969D01*
X129695820Y-147942016D01*
X129693370Y-147942082D01*
X129690924Y-147942169D01*
X129688480Y-147942275D01*
X129686039Y-147942401D01*
X129683600Y-147942547D01*
X129681164Y-147942714D01*
X129678729Y-147942900D01*
X129676298Y-147943105D01*
X129673868Y-147943331D01*
X129671440Y-147943577D01*
X129669014Y-147943842D01*
X129664169Y-147944433D01*
X129659330Y-147945104D01*
X129654497Y-147945854D01*
X129649670Y-147946685D01*
X129644849Y-147947596D01*
X129640031Y-147948587D01*
X129635218Y-147949660D01*
X129630407Y-147950814D01*
X129625600Y-147952049D01*
X129620794Y-147953367D01*
X129615990Y-147954767D01*
X129611186Y-147956250D01*
X129606383Y-147957817D01*
X129601580Y-147959469D01*
X129596775Y-147961205D01*
X129591970Y-147963027D01*
X129587162Y-147964936D01*
X129582353Y-147966931D01*
X129577540Y-147969014D01*
X129572724Y-147971187D01*
X129567904Y-147973448D01*
X129563079Y-147975801D01*
X129558250Y-147978245D01*
X129553416Y-147980781D01*
X129548576Y-147983411D01*
X129543729Y-147986135D01*
X129538877Y-147988955D01*
X129534017Y-147991871D01*
X129529150Y-147994886D01*
X129524275Y-147997999D01*
X129519392Y-148001213D01*
X129514501Y-148004528D01*
X129509600Y-148007946D01*
X129504691Y-148011468D01*
X129499772Y-148015096D01*
X129494844Y-148018830D01*
X129489905Y-148022673D01*
X129484956Y-148026625D01*
X129479997Y-148030689D01*
X129475026Y-148034864D01*
X129470045Y-148039154D01*
X129465052Y-148043560D01*
X129460047Y-148048083D01*
X129455031Y-148052724D01*
X129450002Y-148057486D01*
X129444962Y-148062370D01*
X129439909Y-148067377D01*
X129434843Y-148072510D01*
X129429765Y-148077770D01*
X129424673Y-148083159D01*
X129419569Y-148088678D01*
X129414451Y-148094330D01*
X129409321Y-148100115D01*
X129404176Y-148106037D01*
X129399019Y-148112097D01*
X129393847Y-148118296D01*
X129388662Y-148124637D01*
X129383464Y-148131122D01*
X129378251Y-148137752D01*
X129373025Y-148144529D01*
X129367784Y-148151456D01*
X129362530Y-148158534D01*
X129357261Y-148165766D01*
X129351979Y-148173153D01*
X129346682Y-148180697D01*
X129341372Y-148188402D01*
X129336047Y-148196268D01*
X129330708Y-148204297D01*
X129325356Y-148212493D01*
X129319989Y-148220857D01*
X129314608Y-148229391D01*
X129309214Y-148238098D01*
X129303805Y-148246979D01*
X129298383Y-148256038D01*
X129292947Y-148265275D01*
X129287497Y-148274694D01*
X129282033Y-148284297D01*
X129276556Y-148294085D01*
X129271066Y-148304062D01*
X129265562Y-148314230D01*
X129260045Y-148324591D01*
X129254514Y-148335147D01*
X129252001Y-148340001D01*
D10*
X100036001Y-126516000D02*
X100036001Y-125744000D01*
X136840001Y-110968000D02*
X136564001Y-111380000D01*
X135936001Y-94223998D02*
X136100001Y-94471998D01*
X131520001Y-88243998D02*
X131716001Y-88483998D01*
X106028001Y-90655998D02*
X106320001Y-90147998D01*
X136472001Y-115956000D02*
X136664001Y-118456000D01*
X103252001Y-112548000D02*
X103324001Y-112216000D01*
X101296001Y-132316001D02*
X100988001Y-131396001D01*
X111948001Y-140260001D02*
X111672001Y-140352001D01*
X97392001Y-104215999D02*
X97648001Y-103659999D01*
X115684001Y-140216001D02*
X115344001Y-140176001D01*
X104448001Y-139532001D02*
X104336001Y-139212001D01*
X127164001Y-149376001D02*
X126560001Y-149496001D01*
X104840001Y-92491998D02*
X105176001Y-92067998D01*
X128872001Y-85347998D02*
X129248001Y-85759998D01*
X132080001Y-148864001D02*
X131620001Y-148648001D01*
X94868000Y-118940000D02*
X94696000Y-119164000D01*
X141308001Y-117212000D02*
X141204001Y-116872000D01*
X131560001Y-69303998D02*
X131296001Y-69415998D01*
X93248000Y-116456000D02*
X93316000Y-116144000D01*
X108912001Y-84239998D02*
X109192001Y-83303998D01*
X117560001Y-140896001D02*
X117260001Y-140788001D01*
X125440001Y-67107998D02*
X127872001Y-67115998D01*
X131708001Y-142640001D02*
X132056001Y-142636001D01*
X134792001Y-92527998D02*
X135124001Y-93007998D01*
X110468001Y-141576001D02*
X110404001Y-141828001D01*
X103592001Y-137396001D02*
X103296001Y-136912001D01*
D11*
X136420001Y-94951998D02*
X136439968Y-94981880D01*
X136466184Y-95020974D01*
X136500725Y-95072345D01*
X136547995Y-95142519D01*
X136580035Y-95190049D01*
X136624713Y-95256333D01*
X136667516Y-95319897D01*
X136687629Y-95349810D01*
X136706570Y-95378025D01*
X136724106Y-95404201D01*
X136740001Y-95427999D01*
D10*
X131144001Y-87795998D02*
X131520001Y-88243998D01*
X112796001Y-139956001D02*
X112232001Y-140140001D01*
D11*
X142824001Y-126668000D02*
X142787794Y-126684906D01*
X142741886Y-126706255D01*
X142682649Y-126733719D01*
X142601728Y-126771158D01*
X142549796Y-126795164D01*
X142484937Y-126825148D01*
X142419557Y-126855394D01*
X142354721Y-126885432D01*
X142291495Y-126914789D01*
X142260818Y-126929066D01*
X142230944Y-126942996D01*
X142202005Y-126956521D01*
X142174134Y-126969581D01*
X142147465Y-126982118D01*
X142122131Y-126994073D01*
X142098265Y-127005386D01*
X142076001Y-127016000D01*
X110704001Y-141152001D02*
X110694712Y-141168179D01*
X110683739Y-141187452D01*
X110670858Y-141210235D01*
X110655814Y-141237006D01*
X110638289Y-141268349D01*
X110617860Y-141305044D01*
X110593866Y-141348296D01*
X110564999Y-141400480D01*
X110529020Y-141465643D01*
X110496145Y-141525182D01*
X110481367Y-141551899D01*
X110468001Y-141576001D01*
D10*
X109416001Y-81131998D02*
X109448001Y-78739998D01*
X104000001Y-93675998D02*
X104176001Y-93423998D01*
X127296001Y-73147998D02*
X126964001Y-73547998D01*
X97780001Y-103375999D02*
X98048001Y-102831999D01*
X137316001Y-143856001D02*
X137568001Y-143996001D01*
X139920001Y-113716000D02*
X139632001Y-113200000D01*
D11*
X144084001Y-121484000D02*
X144084654Y-121498144D01*
X144085287Y-121512291D01*
X144085899Y-121526420D01*
X144086492Y-121540552D01*
X144087063Y-121554666D01*
X144087615Y-121568783D01*
X144088146Y-121582882D01*
X144088656Y-121596983D01*
X144089147Y-121611066D01*
X144089617Y-121625152D01*
X144090067Y-121639219D01*
X144090496Y-121653288D01*
X144090905Y-121667340D01*
X144091294Y-121681393D01*
X144091663Y-121695428D01*
X144092012Y-121709465D01*
X144092340Y-121723483D01*
X144092648Y-121737504D01*
X144092935Y-121751505D01*
X144093203Y-121765509D01*
X144093450Y-121779493D01*
X144093678Y-121793480D01*
X144093885Y-121807447D01*
X144094072Y-121821416D01*
X144094238Y-121835366D01*
X144094385Y-121849318D01*
X144094511Y-121863250D01*
X144094618Y-121877184D01*
X144094704Y-121891099D01*
X144094770Y-121905014D01*
X144094817Y-121918911D01*
X144094843Y-121932809D01*
X144094849Y-121946687D01*
X144094835Y-121960566D01*
X144094801Y-121974426D01*
X144094747Y-121988287D01*
X144094673Y-122002128D01*
X144094579Y-122015970D01*
X144094465Y-122029792D01*
X144094331Y-122043615D01*
X144094178Y-122057418D01*
X144094004Y-122071222D01*
X144093810Y-122085006D01*
X144093597Y-122098791D01*
X144093364Y-122112555D01*
X144093110Y-122126320D01*
X144092837Y-122140065D01*
X144092544Y-122153811D01*
X144092232Y-122167536D01*
X144091899Y-122181261D01*
X144091547Y-122194966D01*
X144091175Y-122208672D01*
X144090783Y-122222357D01*
X144090371Y-122236042D01*
X144089940Y-122249707D01*
X144089489Y-122263372D01*
X144089019Y-122277016D01*
X144088528Y-122290660D01*
X144088018Y-122304284D01*
X144087488Y-122317907D01*
X144086939Y-122331510D01*
X144086370Y-122345113D01*
X144085782Y-122358694D01*
X144085173Y-122372276D01*
X144084546Y-122385837D01*
X144083898Y-122399397D01*
X144083232Y-122412936D01*
X144082545Y-122426475D01*
X144081840Y-122439993D01*
X144081114Y-122453511D01*
X144080370Y-122467007D01*
X144079605Y-122480503D01*
X144078822Y-122493978D01*
X144078019Y-122507452D01*
X144077196Y-122520905D01*
X144076354Y-122534357D01*
X144075493Y-122547787D01*
X144074612Y-122561217D01*
X144073713Y-122574626D01*
X144072793Y-122588034D01*
X144071855Y-122601420D01*
X144070897Y-122614805D01*
X144069920Y-122628169D01*
X144068923Y-122641532D01*
X144067908Y-122654874D01*
X144066873Y-122668214D01*
X144065819Y-122681532D01*
X144064746Y-122694850D01*
X144063654Y-122708146D01*
X144062542Y-122721440D01*
X144061411Y-122734713D01*
X144060261Y-122747985D01*
X144059093Y-122761235D01*
X144057904Y-122774483D01*
X144056698Y-122787710D01*
X144055471Y-122800935D01*
X144054227Y-122814138D01*
X144052962Y-122827340D01*
X144051680Y-122840520D01*
X144050377Y-122853698D01*
X144049057Y-122866855D01*
X144047716Y-122880010D01*
X144046358Y-122893142D01*
X144044979Y-122906273D01*
X144043583Y-122919383D01*
X144042167Y-122932490D01*
X144040733Y-122945575D01*
X144039280Y-122958658D01*
X144037808Y-122971720D01*
X144036317Y-122984779D01*
X144034808Y-122997816D01*
X144033279Y-123010851D01*
X144031732Y-123023864D01*
X144030166Y-123036875D01*
X144028582Y-123049864D01*
X144026978Y-123062851D01*
X144025357Y-123075815D01*
X144023716Y-123088777D01*
X144022057Y-123101718D01*
X144020379Y-123114655D01*
X144018683Y-123127571D01*
X144016968Y-123140484D01*
X144015235Y-123153375D01*
X144013482Y-123166263D01*
X144011712Y-123179129D01*
X144009922Y-123191993D01*
X144008115Y-123204835D01*
X144006289Y-123217673D01*
X144004445Y-123230490D01*
X144002581Y-123243304D01*
X144000701Y-123256095D01*
X143998800Y-123268884D01*
X143996883Y-123281651D01*
X143994945Y-123294415D01*
X143992991Y-123307156D01*
X143991017Y-123319895D01*
X143989027Y-123332611D01*
X143987016Y-123345324D01*
X143984989Y-123358016D01*
X143982942Y-123370704D01*
X143980878Y-123383369D01*
X143978795Y-123396032D01*
X143976694Y-123408672D01*
X143974574Y-123421309D01*
X143972438Y-123433924D01*
X143970282Y-123446536D01*
X143968109Y-123459125D01*
X143965916Y-123471711D01*
X143963708Y-123484275D01*
X143961479Y-123496836D01*
X143959234Y-123509374D01*
X143956969Y-123521908D01*
X143954688Y-123534421D01*
X143952387Y-123546930D01*
X143950070Y-123559416D01*
X143947733Y-123571899D01*
X143945380Y-123584360D01*
X143943008Y-123596817D01*
X143940619Y-123609252D01*
X143938210Y-123621684D01*
X143935786Y-123634093D01*
X143933341Y-123646498D01*
X143930881Y-123658881D01*
X143928401Y-123671260D01*
X143925905Y-123683617D01*
X143923390Y-123695970D01*
X143920858Y-123708301D01*
X143918307Y-123720628D01*
X143915740Y-123732932D01*
X143913154Y-123745233D01*
X143910551Y-123757512D01*
X143907930Y-123769786D01*
X143904001Y-123788000D01*
D10*
X97260001Y-104515999D02*
X97392001Y-104215999D01*
X138896001Y-146008001D02*
X138824001Y-146268001D01*
X135124001Y-93007998D02*
X135292001Y-93259998D01*
X93316000Y-116144000D02*
X93612000Y-115648000D01*
X136904001Y-95675999D02*
X137220001Y-96155999D01*
D11*
X95356000Y-109348000D02*
X95365987Y-109318163D01*
X95377704Y-109283407D01*
X95391389Y-109243061D01*
X95407336Y-109196294D01*
X95425931Y-109142004D01*
X95447733Y-109078584D01*
X95473691Y-109003312D01*
X95505830Y-108910333D01*
X95539938Y-108811788D01*
X95576213Y-108706978D01*
X95593653Y-108656535D01*
X95610431Y-108607934D01*
X95626402Y-108561579D01*
X95641418Y-108517870D01*
X95655333Y-108477210D01*
X95668000Y-108440000D01*
D10*
X111248001Y-140644001D02*
X111032001Y-140792001D01*
D11*
X126644001Y-82163998D02*
X126661446Y-82196786D01*
X126686226Y-82243520D01*
X126719764Y-82306887D01*
X126743861Y-82352424D01*
X126768586Y-82399111D01*
X126793472Y-82446031D01*
X126818053Y-82492265D01*
X126830084Y-82514838D01*
X126841863Y-82536896D01*
X126853333Y-82558324D01*
X126864435Y-82579007D01*
X126875111Y-82598831D01*
X126885303Y-82617680D01*
X126894952Y-82635441D01*
X126904001Y-82651998D01*
D10*
X132776001Y-149052001D02*
X132532001Y-149044001D01*
D11*
X99396001Y-146756001D02*
X99400847Y-146696704D01*
X99406161Y-146632620D01*
X99412111Y-146561788D01*
X99419032Y-146480274D01*
X99427842Y-146377310D01*
X99430743Y-146343482D01*
X99438045Y-146258306D01*
X99445311Y-146173145D01*
X99448920Y-146130571D01*
X99452507Y-146088002D01*
X99456068Y-146045438D01*
X99459598Y-146002880D01*
X99463094Y-145960327D01*
X99466551Y-145917781D01*
X99469964Y-145875241D01*
X99473330Y-145832709D01*
X99476644Y-145790183D01*
X99479901Y-145747665D01*
X99483098Y-145705154D01*
X99486230Y-145662652D01*
X99489293Y-145620159D01*
X99492282Y-145577674D01*
X99495194Y-145535198D01*
X99496619Y-145513964D01*
X99498023Y-145492732D01*
X99499406Y-145471503D01*
X99500766Y-145450276D01*
X99502104Y-145429052D01*
X99503418Y-145407830D01*
X99504709Y-145386611D01*
X99505975Y-145365394D01*
X99507217Y-145344180D01*
X99508433Y-145322969D01*
X99509623Y-145301761D01*
X99510787Y-145280556D01*
X99511924Y-145259353D01*
X99513033Y-145238154D01*
X99514114Y-145216957D01*
X99515167Y-145195763D01*
X99516190Y-145174573D01*
X99517184Y-145153385D01*
X99518148Y-145132201D01*
X99519080Y-145111020D01*
X99519982Y-145089842D01*
X99520852Y-145068667D01*
X99521689Y-145047495D01*
X99522493Y-145026327D01*
X99523264Y-145005162D01*
X99524001Y-144984001D01*
D10*
X126504001Y-142344001D02*
X126152001Y-142252001D01*
X100468001Y-111028000D02*
X100108001Y-111444000D01*
X94944000Y-110576000D02*
X95252000Y-109676000D01*
X126604001Y-143348001D02*
X126544001Y-143012001D01*
X99564001Y-112108000D02*
X99220001Y-112540000D01*
X113180001Y-66943998D02*
X113668001Y-66655998D01*
D11*
X99044001Y-100947999D02*
X99052165Y-100935034D01*
X99061364Y-100920277D01*
X99071698Y-100903549D01*
X99083278Y-100884651D01*
X99096235Y-100863357D01*
X99110721Y-100839396D01*
X99126932Y-100812433D01*
X99145129Y-100782015D01*
X99165704Y-100747473D01*
X99189331Y-100707662D01*
X99217465Y-100660116D01*
X99249139Y-100606490D01*
X99273504Y-100565233D01*
X99296392Y-100526538D01*
X99307146Y-100508399D01*
X99317368Y-100491196D01*
X99327005Y-100475030D01*
X99336001Y-100459999D01*
D10*
X100052001Y-124204000D02*
X100156001Y-123460000D01*
X143908001Y-110988000D02*
X144052001Y-112060000D01*
X119088001Y-65831998D02*
X120032001Y-66107998D01*
X137976001Y-144292001D02*
X138304001Y-144612001D01*
X120364001Y-66203998D02*
X121256001Y-66511998D01*
X126244001Y-149576001D02*
X125996001Y-149212001D01*
X127968001Y-84227998D02*
X128148001Y-84467998D01*
D11*
X141728001Y-122600000D02*
X141731516Y-122594554D01*
X141735009Y-122589105D01*
X141738477Y-122583659D01*
X141741923Y-122578209D01*
X141745343Y-122572763D01*
X141748741Y-122567314D01*
X141752114Y-122561868D01*
X141755466Y-122556419D01*
X141758792Y-122550973D01*
X141762096Y-122545523D01*
X141765375Y-122540077D01*
X141768633Y-122534627D01*
X141771866Y-122529180D01*
X141775078Y-122523730D01*
X141778264Y-122518283D01*
X141781430Y-122512833D01*
X141784570Y-122507385D01*
X141787690Y-122501934D01*
X141790784Y-122496486D01*
X141793858Y-122491035D01*
X141796907Y-122485586D01*
X141799935Y-122480134D01*
X141802939Y-122474685D01*
X141805922Y-122469232D01*
X141808880Y-122463782D01*
X141811818Y-122458328D01*
X141814731Y-122452877D01*
X141817624Y-122447422D01*
X141820493Y-122441970D01*
X141823341Y-122436515D01*
X141826165Y-122431061D01*
X141828969Y-122425605D01*
X141831748Y-122420150D01*
X141834507Y-122414692D01*
X141837243Y-122409237D01*
X141839958Y-122403778D01*
X141842649Y-122398320D01*
X141845320Y-122392860D01*
X141847968Y-122387401D01*
X141850595Y-122381939D01*
X141853199Y-122376479D01*
X141855783Y-122371016D01*
X141858343Y-122365554D01*
X141860884Y-122360089D01*
X141863401Y-122354625D01*
X141865898Y-122349158D01*
X141868372Y-122343693D01*
X141870825Y-122338224D01*
X141873257Y-122332756D01*
X141875667Y-122327286D01*
X141878056Y-122321816D01*
X141880424Y-122316343D01*
X141882769Y-122310871D01*
X141885095Y-122305396D01*
X141887398Y-122299922D01*
X141889681Y-122294445D01*
X141891941Y-122288968D01*
X141894182Y-122283489D01*
X141896400Y-122278010D01*
X141898599Y-122272527D01*
X141900775Y-122267046D01*
X141902932Y-122261561D01*
X141905066Y-122256076D01*
X141907181Y-122250589D01*
X141909273Y-122245102D01*
X141911346Y-122239611D01*
X141913397Y-122234121D01*
X141915428Y-122228628D01*
X141917438Y-122223134D01*
X141919427Y-122217638D01*
X141921396Y-122212141D01*
X141923344Y-122206642D01*
X141925271Y-122201142D01*
X141927177Y-122195639D01*
X141929063Y-122190136D01*
X141930929Y-122184629D01*
X141932774Y-122179123D01*
X141934598Y-122173613D01*
X141936402Y-122168102D01*
X141938186Y-122162589D01*
X141939949Y-122157075D01*
X141941692Y-122151557D01*
X141943414Y-122146039D01*
X141945116Y-122140518D01*
X141946798Y-122134996D01*
X141948460Y-122129470D01*
X141950101Y-122123944D01*
X141951722Y-122118414D01*
X141953322Y-122112884D01*
X141954903Y-122107350D01*
X141956463Y-122101815D01*
X141958004Y-122096277D01*
X141959524Y-122090738D01*
X141961024Y-122085195D01*
X141962503Y-122079651D01*
X141963963Y-122074103D01*
X141965403Y-122068555D01*
X141966823Y-122063002D01*
X141968223Y-122057449D01*
X141969602Y-122051892D01*
X141970962Y-122046333D01*
X141972302Y-122040771D01*
X141973622Y-122035207D01*
X141974922Y-122029639D01*
X141976201Y-122024070D01*
X141977462Y-122018498D01*
X141978702Y-122012923D01*
X141979922Y-122007345D01*
X141981122Y-122001765D01*
X141982303Y-121996181D01*
X141983464Y-121990595D01*
X141984605Y-121985006D01*
X141985726Y-121979414D01*
X141986827Y-121973819D01*
X141987908Y-121968221D01*
X141988970Y-121962620D01*
X141990012Y-121957016D01*
X141991034Y-121951409D01*
X141992037Y-121945798D01*
X141993019Y-121940185D01*
X141993982Y-121934569D01*
X141994925Y-121928949D01*
X141996752Y-121917699D01*
X141998501Y-121906437D01*
X142000170Y-121895160D01*
X142001761Y-121883870D01*
X142003272Y-121872566D01*
X142004705Y-121861247D01*
X142006059Y-121849913D01*
X142007335Y-121838565D01*
X142008531Y-121827201D01*
X142009649Y-121815822D01*
X142010688Y-121804427D01*
X142011648Y-121793015D01*
X142012529Y-121781587D01*
X142013332Y-121770143D01*
X142014055Y-121758681D01*
X142014699Y-121747202D01*
X142015264Y-121735706D01*
X142015750Y-121724191D01*
X142016156Y-121712659D01*
X142016483Y-121701108D01*
X142016731Y-121689538D01*
X142016898Y-121677949D01*
X142016986Y-121666341D01*
X142016995Y-121654713D01*
X142016923Y-121643065D01*
X142016771Y-121631396D01*
X142016539Y-121619708D01*
X142016226Y-121607998D01*
X142015833Y-121596267D01*
X142015359Y-121584515D01*
X142014803Y-121572741D01*
X142014167Y-121560945D01*
X142013450Y-121549126D01*
X142012650Y-121537285D01*
X142011770Y-121525421D01*
X142010807Y-121513533D01*
X142009762Y-121501622D01*
X142008634Y-121489688D01*
X142007424Y-121477728D01*
X142006131Y-121465745D01*
X142004754Y-121453737D01*
X142003295Y-121441703D01*
X142001751Y-121429645D01*
X142000124Y-121417560D01*
X141998412Y-121405450D01*
X141996616Y-121393313D01*
X141994735Y-121381150D01*
X141992768Y-121368960D01*
X141990717Y-121356742D01*
X141988579Y-121344497D01*
X141986356Y-121332225D01*
X141984046Y-121319924D01*
X141981649Y-121307595D01*
X141979165Y-121295237D01*
X141976593Y-121282850D01*
X141973934Y-121270434D01*
X141971187Y-121257989D01*
X141968351Y-121245513D01*
X141968001Y-121244000D01*
X109444001Y-71295998D02*
X109469474Y-71252764D01*
X109521058Y-71165405D01*
X109553084Y-71111183D01*
X109586365Y-71054800D01*
X109620106Y-70997556D01*
X109653516Y-70940755D01*
X109669850Y-70912926D01*
X109685803Y-70885697D01*
X109701278Y-70859228D01*
X109716175Y-70833683D01*
X109730394Y-70809225D01*
X109743838Y-70786017D01*
X109756406Y-70764220D01*
X109768001Y-70743998D01*
X100052001Y-128064000D02*
X100053095Y-128027134D01*
X100054114Y-127990142D01*
X100055056Y-127953023D01*
X100055921Y-127915774D01*
X100056710Y-127878393D01*
X100057421Y-127840878D01*
X100058056Y-127803226D01*
X100058612Y-127765435D01*
X100059092Y-127727503D01*
X100059493Y-127689426D01*
X100059815Y-127651203D01*
X100060060Y-127612830D01*
X100060225Y-127574305D01*
X100060311Y-127535624D01*
X100060318Y-127496786D01*
X100060245Y-127457786D01*
X100060092Y-127418621D01*
X100059859Y-127379289D01*
X100059545Y-127339785D01*
X100059149Y-127300107D01*
X100058672Y-127260250D01*
X100058113Y-127220212D01*
X100057472Y-127179987D01*
X100056747Y-127139572D01*
X100055940Y-127098963D01*
X100055049Y-127058156D01*
X100054073Y-127017145D01*
X100053013Y-126975927D01*
X100051868Y-126934496D01*
X100050636Y-126892848D01*
X100049319Y-126850976D01*
X100047914Y-126808877D01*
X100046422Y-126766543D01*
X100044841Y-126723970D01*
X100043172Y-126681150D01*
X100041413Y-126638077D01*
X100039564Y-126594746D01*
X100037623Y-126551147D01*
X100036001Y-126516000D01*
X140716001Y-115316000D02*
X140702869Y-115301561D01*
X140687036Y-115284032D01*
X140667933Y-115262767D01*
X140644709Y-115236798D01*
X140615848Y-115204414D01*
X140577711Y-115161515D01*
X140555971Y-115137038D01*
X140506370Y-115081211D01*
X140482038Y-115053871D01*
X140458382Y-115027351D01*
X140435676Y-115001976D01*
X140424766Y-114989821D01*
X140414195Y-114978075D01*
X140403999Y-114966779D01*
X140394212Y-114955974D01*
X140384868Y-114945700D01*
X140376001Y-114936000D01*
D10*
X133708001Y-67839998D02*
X133300001Y-68075998D01*
X143164001Y-107452000D02*
X143252001Y-107784000D01*
X134464001Y-92047998D02*
X134792001Y-92527998D01*
X97584001Y-114840000D02*
X97264001Y-115324000D01*
X108884001Y-148324001D02*
X108388001Y-148556001D01*
X137544001Y-96631999D02*
X137708001Y-96879999D01*
X98076001Y-114096000D02*
X97748001Y-114584000D01*
X109256001Y-72403998D02*
X109288001Y-72027998D01*
X112664001Y-146168001D02*
X112932001Y-146588001D01*
X103656001Y-94159998D02*
X104000001Y-93675998D01*
X102928001Y-113708000D02*
X103220001Y-113208000D01*
D11*
X110260001Y-69467998D02*
X110269224Y-69454960D01*
X110279881Y-69440033D01*
X110292123Y-69423022D01*
X110306120Y-69403710D01*
X110322061Y-69381849D01*
X110340172Y-69357146D01*
X110360735Y-69329230D01*
X110384134Y-69297593D01*
X110410964Y-69261444D01*
X110442346Y-69219287D01*
X110481204Y-69167196D01*
X110496873Y-69146209D01*
X110539604Y-69088948D01*
X110558746Y-69063242D01*
X110576001Y-69039998D01*
D10*
X139244001Y-112520000D02*
X138968001Y-112088000D01*
X97648001Y-103659999D02*
X97780001Y-103375999D01*
X93960000Y-119860000D02*
X93748000Y-119976000D01*
X143588001Y-125356000D02*
X143496001Y-125624000D01*
X96508000Y-116532000D02*
X96344000Y-116796000D01*
X93748000Y-119976000D02*
X93460000Y-120300000D01*
X134900001Y-147844001D02*
X134572001Y-148184001D01*
X139140001Y-99063999D02*
X139300001Y-99319999D01*
X113940001Y-66583998D02*
X114408001Y-66295998D01*
D11*
X102012001Y-116860000D02*
X102020616Y-116823983D01*
X102031854Y-116777333D01*
X102046723Y-116715936D01*
X102067622Y-116629934D01*
X102076906Y-116591775D01*
X102104363Y-116478860D01*
X102117956Y-116422826D01*
X102131174Y-116368178D01*
X102143801Y-116315743D01*
X102149827Y-116290615D01*
X102155624Y-116266350D01*
X102161167Y-116243053D01*
X102166429Y-116220826D01*
X102171382Y-116199774D01*
X102176001Y-116180000D01*
D10*
X134076001Y-148688001D02*
X133912001Y-148864001D01*
X123888001Y-141772001D02*
X121120001Y-141724001D01*
X101640001Y-96991999D02*
X101984001Y-96503999D01*
X101272001Y-144124001D02*
X102132001Y-143756001D01*
X127316001Y-83323998D02*
X127628001Y-83771998D01*
D11*
X126964001Y-73547998D02*
X126946522Y-73569698D01*
X126923746Y-73598099D01*
X126892736Y-73636883D01*
X126861568Y-73675921D01*
X126830986Y-73714228D01*
X126799799Y-73753250D01*
X126768579Y-73792232D01*
X126753136Y-73811470D01*
X126737898Y-73830414D01*
X126722939Y-73848968D01*
X126708328Y-73867039D01*
X126694138Y-73884531D01*
X126680441Y-73901350D01*
X126667307Y-73917401D01*
X126654808Y-73932589D01*
X126643015Y-73946820D01*
X126637406Y-73953546D01*
X126632001Y-73959998D01*
X100036001Y-125744000D02*
X100037037Y-125721516D01*
X100038052Y-125699037D01*
X100039039Y-125676735D01*
X100040006Y-125654439D01*
X100040945Y-125632314D01*
X100041864Y-125610194D01*
X100042756Y-125588241D01*
X100043628Y-125566292D01*
X100044473Y-125544504D01*
X100045298Y-125522721D01*
X100046096Y-125501094D01*
X100046875Y-125479472D01*
X100047628Y-125458001D01*
X100048360Y-125436534D01*
X100049068Y-125415215D01*
X100049755Y-125393899D01*
X100050418Y-125372726D01*
X100051060Y-125351557D01*
X100051678Y-125330527D01*
X100052276Y-125309501D01*
X100052850Y-125288610D01*
X100053403Y-125267722D01*
X100053933Y-125246966D01*
X100054443Y-125226213D01*
X100054930Y-125205588D01*
X100055396Y-125184966D01*
X100055840Y-125164468D01*
X100056263Y-125143974D01*
X100056664Y-125123601D01*
X100057045Y-125103230D01*
X100057403Y-125082978D01*
X100057741Y-125062729D01*
X100058058Y-125042594D01*
X100058354Y-125022463D01*
X100058628Y-125002443D01*
X100058882Y-124982426D01*
X100059115Y-124962519D01*
X100059328Y-124942614D01*
X100059519Y-124922816D01*
X100059691Y-124903020D01*
X100059841Y-124883329D01*
X100059971Y-124863639D01*
X100060081Y-124844052D01*
X100060170Y-124824466D01*
X100060239Y-124804980D01*
X100060288Y-124785496D01*
X100060317Y-124766109D01*
X100060325Y-124746723D01*
X100060313Y-124727433D01*
X100060282Y-124708145D01*
X100060230Y-124688949D01*
X100060158Y-124669755D01*
X100060067Y-124650651D01*
X100059955Y-124631549D01*
X100059824Y-124612536D01*
X100059673Y-124593524D01*
X100059503Y-124574600D01*
X100059312Y-124555676D01*
X100059102Y-124536837D01*
X100058872Y-124517999D01*
X100058624Y-124499245D01*
X100058355Y-124480492D01*
X100058067Y-124461820D01*
X100057759Y-124443149D01*
X100057432Y-124424558D01*
X100057086Y-124405967D01*
X100056720Y-124387455D01*
X100056335Y-124368944D01*
X100055931Y-124350509D01*
X100055507Y-124332074D01*
X100055065Y-124313715D01*
X100054603Y-124295356D01*
X100054122Y-124277071D01*
X100053622Y-124258786D01*
X100053103Y-124240573D01*
X100052565Y-124222361D01*
X100052001Y-124204000D01*
D10*
X107556001Y-87719998D02*
X107676001Y-87447998D01*
D11*
X127628001Y-83771998D02*
X127664555Y-83820685D01*
X127680790Y-83842293D01*
X127716198Y-83889426D01*
X127754024Y-83939817D01*
X127793130Y-83991991D01*
X127812806Y-84018287D01*
X127832376Y-84044475D01*
X127851696Y-84070371D01*
X127870625Y-84095792D01*
X127889019Y-84120552D01*
X127906737Y-84144468D01*
X127923637Y-84167355D01*
X127939576Y-84189028D01*
X127954411Y-84209304D01*
X127961371Y-84218860D01*
X127968001Y-84227998D01*
D10*
X138968001Y-112088000D02*
X138824001Y-111864000D01*
X133300001Y-68075998D02*
X133096001Y-68207998D01*
X100448001Y-129784001D02*
X100168001Y-128812001D01*
X129248001Y-85759998D02*
X129628001Y-86159998D01*
D11*
X100168001Y-128812001D02*
X100162813Y-128777432D01*
X100156361Y-128734966D01*
X100148393Y-128683053D01*
X100138561Y-128619500D01*
X100126279Y-128540603D01*
X100110204Y-128437794D01*
X100100767Y-128377549D01*
X100086917Y-128289109D01*
X100073855Y-128205484D01*
X100067769Y-128166362D01*
X100062058Y-128129504D01*
X100056782Y-128095266D01*
X100052001Y-128064000D01*
D10*
X110140001Y-69707998D02*
X110260001Y-69467998D01*
X103452001Y-110624000D02*
X103468001Y-110316000D01*
X115292001Y-65967998D02*
X116012001Y-65783998D01*
X125996001Y-149212001D02*
X125768001Y-149076001D01*
X94844000Y-110904000D02*
X94944000Y-110576000D01*
D11*
X104516001Y-92947998D02*
X104528334Y-92930184D01*
X104542984Y-92909163D01*
X104560230Y-92884556D01*
X104580380Y-92855944D01*
X104603776Y-92822857D01*
X104630827Y-92784736D01*
X104662064Y-92740848D01*
X104698309Y-92690051D01*
X104741258Y-92629979D01*
X104783554Y-92570891D01*
X104813778Y-92528670D01*
X104840001Y-92491998D01*
X143904001Y-123788000D02*
X143900231Y-123792885D01*
X143896483Y-123797777D01*
X143892760Y-123802667D01*
X143889057Y-123807564D01*
X143885380Y-123812459D01*
X143881724Y-123817361D01*
X143878093Y-123822262D01*
X143874483Y-123827169D01*
X143870898Y-123832075D01*
X143867333Y-123836988D01*
X143863794Y-123841899D01*
X143860275Y-123846817D01*
X143856781Y-123851734D01*
X143853307Y-123856657D01*
X143849858Y-123861580D01*
X143846430Y-123866508D01*
X143843026Y-123871436D01*
X143839642Y-123876370D01*
X143836283Y-123881304D01*
X143832944Y-123886243D01*
X143829629Y-123891182D01*
X143826334Y-123896127D01*
X143823064Y-123901072D01*
X143819814Y-123906023D01*
X143816588Y-123910974D01*
X143813381Y-123915930D01*
X143810199Y-123920887D01*
X143807037Y-123925849D01*
X143803898Y-123930811D01*
X143800780Y-123935779D01*
X143797685Y-123940747D01*
X143794610Y-123945721D01*
X143791558Y-123950695D01*
X143788527Y-123955675D01*
X143785518Y-123960655D01*
X143782530Y-123965641D01*
X143779564Y-123970627D01*
X143776619Y-123975619D01*
X143773696Y-123980611D01*
X143770794Y-123985609D01*
X143767914Y-123990608D01*
X143765054Y-123995612D01*
X143762217Y-124000617D01*
X143759399Y-124005628D01*
X143756604Y-124010639D01*
X143753829Y-124015656D01*
X143751076Y-124020673D01*
X143748343Y-124025697D01*
X143745632Y-124030721D01*
X143742941Y-124035751D01*
X143740272Y-124040782D01*
X143737623Y-124045818D01*
X143734996Y-124050855D01*
X143732388Y-124055898D01*
X143729803Y-124060943D01*
X143727237Y-124065992D01*
X143724693Y-124071043D01*
X143722168Y-124076100D01*
X143719665Y-124081158D01*
X143717182Y-124086221D01*
X143714720Y-124091286D01*
X143712278Y-124096357D01*
X143709857Y-124101429D01*
X143707456Y-124106506D01*
X143705076Y-124111585D01*
X143702716Y-124116670D01*
X143700376Y-124121757D01*
X143698057Y-124126848D01*
X143695758Y-124131942D01*
X143693479Y-124137042D01*
X143691221Y-124142143D01*
X143688983Y-124147250D01*
X143686765Y-124152358D01*
X143684567Y-124157473D01*
X143682390Y-124162589D01*
X143680232Y-124167711D01*
X143678095Y-124172835D01*
X143675977Y-124177964D01*
X143673880Y-124183096D01*
X143671802Y-124188234D01*
X143669745Y-124193374D01*
X143667707Y-124198519D01*
X143665690Y-124203667D01*
X143663692Y-124208820D01*
X143661715Y-124213976D01*
X143659757Y-124219138D01*
X143657819Y-124224302D01*
X143655900Y-124229472D01*
X143654002Y-124234644D01*
X143652123Y-124239822D01*
X143650264Y-124245003D01*
X143648425Y-124250190D01*
X143646606Y-124255379D01*
X143644806Y-124260574D01*
X143643026Y-124265773D01*
X143641265Y-124270976D01*
X143639524Y-124276183D01*
X143637803Y-124281395D01*
X143636102Y-124286611D01*
X143634419Y-124291833D01*
X143632757Y-124297057D01*
X143631114Y-124302288D01*
X143629491Y-124307522D01*
X143627887Y-124312761D01*
X143626303Y-124318004D01*
X143624738Y-124323253D01*
X143623192Y-124328505D01*
X143621666Y-124333763D01*
X143620160Y-124339025D01*
X143618673Y-124344292D01*
X143617205Y-124349564D01*
X143615757Y-124354841D01*
X143614328Y-124360122D01*
X143612919Y-124365408D01*
X143611529Y-124370699D01*
X143610159Y-124375996D01*
X143608807Y-124381297D01*
X143607476Y-124386603D01*
X143606163Y-124391914D01*
X143604870Y-124397230D01*
X143603596Y-124402551D01*
X143602342Y-124407878D01*
X143601107Y-124413209D01*
X143599891Y-124418546D01*
X143598695Y-124423888D01*
X143597518Y-124429235D01*
X143596360Y-124434587D01*
X143595222Y-124439945D01*
X143593003Y-124450677D01*
X143590861Y-124461430D01*
X143588797Y-124472205D01*
X143586809Y-124483002D01*
X143584899Y-124493821D01*
X143583067Y-124504663D01*
X143581311Y-124515528D01*
X143579633Y-124526416D01*
X143578032Y-124537327D01*
X143576509Y-124548262D01*
X143575063Y-124559222D01*
X143573695Y-124570205D01*
X143572404Y-124581213D01*
X143571191Y-124592245D01*
X143570056Y-124603303D01*
X143568998Y-124614386D01*
X143568019Y-124625495D01*
X143567117Y-124636629D01*
X143566294Y-124647790D01*
X143565549Y-124658977D01*
X143564882Y-124670191D01*
X143564294Y-124681432D01*
X143563785Y-124692700D01*
X143563355Y-124703995D01*
X143563003Y-124715319D01*
X143562731Y-124726670D01*
X143562538Y-124738050D01*
X143562425Y-124749459D01*
X143562392Y-124760897D01*
X143562438Y-124772364D01*
X143562565Y-124783860D01*
X143562772Y-124795386D01*
X143563060Y-124806943D01*
X143563428Y-124818530D01*
X143563878Y-124830147D01*
X143564409Y-124841796D01*
X143565021Y-124853476D01*
X143565715Y-124865187D01*
X143566492Y-124876930D01*
X143567350Y-124888706D01*
X143568292Y-124900514D01*
X143569316Y-124912354D01*
X143570423Y-124924228D01*
X143571614Y-124936135D01*
X143572889Y-124948075D01*
X143574248Y-124960050D01*
X143575691Y-124972058D01*
X143577219Y-124984101D01*
X143578833Y-124996179D01*
X143580531Y-125008292D01*
X143582316Y-125020440D01*
X143584186Y-125032624D01*
X143586144Y-125044844D01*
X143588001Y-125056000D01*
D10*
X110328001Y-142088001D02*
X110004001Y-142456001D01*
D11*
X112988001Y-146828001D02*
X112995589Y-146849132D01*
X113004970Y-146875020D01*
X113016421Y-146906392D01*
X113030270Y-146944102D01*
X113046926Y-146989235D01*
X113066998Y-147043411D01*
X113091703Y-147109888D01*
X113113330Y-147167990D01*
X113134322Y-147224390D01*
X113152001Y-147272001D01*
D10*
X142076001Y-127016000D02*
X141764001Y-127008000D01*
D11*
X128136001Y-72123998D02*
X128124656Y-72135398D01*
X128111623Y-72148608D01*
X128096716Y-72163831D01*
X128079721Y-72181299D01*
X128060390Y-72201281D01*
X128038414Y-72224110D01*
X128013380Y-72250227D01*
X127984674Y-72280285D01*
X127951216Y-72315427D01*
X127910532Y-72358260D01*
X127877117Y-72393482D01*
X127847822Y-72424362D01*
X127820215Y-72453435D01*
X127794780Y-72480160D01*
X127783028Y-72492474D01*
X127772001Y-72503998D01*
D10*
X138348001Y-97839999D02*
X138512001Y-98095999D01*
X119512001Y-141292001D02*
X118824001Y-141312001D01*
X107200001Y-149172001D02*
X106680001Y-149344001D01*
X136140001Y-143396001D02*
X136468001Y-143496001D01*
X105916001Y-90923998D02*
X106028001Y-90655998D01*
X143232001Y-126040000D02*
X143156001Y-126280000D01*
X99924001Y-111672000D02*
X99564001Y-112108000D01*
X107956001Y-86979998D02*
X108016001Y-86679998D01*
X109196001Y-75207998D02*
X109256001Y-72403998D01*
D11*
X144056001Y-112408000D02*
X144054752Y-112428982D01*
X144053580Y-112450010D01*
X144052485Y-112471083D01*
X144051468Y-112492202D01*
X144050529Y-112513368D01*
X144049668Y-112534580D01*
X144048884Y-112555840D01*
X144048179Y-112577147D01*
X144047553Y-112598502D01*
X144047005Y-112619905D01*
X144046535Y-112641357D01*
X144046144Y-112662858D01*
X144045833Y-112684409D01*
X144045600Y-112706009D01*
X144045447Y-112727660D01*
X144045374Y-112749361D01*
X144045380Y-112771113D01*
X144045466Y-112792917D01*
X144045632Y-112814772D01*
X144045879Y-112836680D01*
X144046206Y-112858641D01*
X144046614Y-112880654D01*
X144047102Y-112902721D01*
X144047672Y-112924842D01*
X144048323Y-112947018D01*
X144049056Y-112969248D01*
X144049870Y-112991534D01*
X144050766Y-113013876D01*
X144051745Y-113036274D01*
X144052806Y-113058728D01*
X144053950Y-113081240D01*
X144055176Y-113103809D01*
X144056486Y-113126437D01*
X144057879Y-113149123D01*
X144059356Y-113171869D01*
X144060917Y-113194674D01*
X144062562Y-113217539D01*
X144064291Y-113240465D01*
X144066105Y-113263452D01*
X144068005Y-113286501D01*
X144069989Y-113309612D01*
X144072059Y-113332786D01*
X144074215Y-113356024D01*
X144076457Y-113379325D01*
X144078786Y-113402691D01*
X144081201Y-113426122D01*
X144083703Y-113449619D01*
X144086293Y-113473182D01*
X144088970Y-113496812D01*
X144091736Y-113520510D01*
X144094590Y-113544276D01*
X144097532Y-113568110D01*
X144100564Y-113592014D01*
X144103685Y-113615988D01*
X144106896Y-113640033D01*
X144110197Y-113664150D01*
X144113588Y-113688338D01*
X144117071Y-113712600D01*
X144120644Y-113736935D01*
X144124309Y-113761344D01*
X144128066Y-113785829D01*
X144131916Y-113810389D01*
X144135858Y-113835026D01*
X144139894Y-113859740D01*
X144144024Y-113884533D01*
X144148247Y-113909404D01*
X144152565Y-113934355D01*
X144156978Y-113959388D01*
X144161487Y-113984501D01*
X144166091Y-114009697D01*
X144170792Y-114034977D01*
X144175590Y-114060341D01*
X144180485Y-114085790D01*
X144185479Y-114111325D01*
X144190570Y-114136948D01*
X144195761Y-114162659D01*
X144201050Y-114188459D01*
X144206440Y-114214349D01*
X144211931Y-114240331D01*
X144217523Y-114266406D01*
X144223216Y-114292574D01*
X144229012Y-114318837D01*
X144234910Y-114345196D01*
X144240913Y-114371652D01*
X144247019Y-114398207D01*
X144253231Y-114424862D01*
X144259547Y-114451618D01*
X144265971Y-114478476D01*
X144272501Y-114505438D01*
X144279138Y-114532506D01*
X144280001Y-114536000D01*
X102800001Y-135772001D02*
X102784864Y-135748028D01*
X102766261Y-135718418D01*
X102743654Y-135682285D01*
X102716406Y-135638589D01*
X102683699Y-135585994D01*
X102644258Y-135522432D01*
X102595239Y-135443305D01*
X102569939Y-135402439D01*
X102534274Y-135344837D01*
X102504001Y-135296001D01*
D10*
X102780001Y-143304001D02*
X103628001Y-142984001D01*
X139596001Y-99803999D02*
X139700001Y-100067999D01*
D11*
X95200000Y-118496000D02*
X95190288Y-118509529D01*
X95179069Y-118525021D01*
X95166182Y-118542680D01*
X95151452Y-118562730D01*
X95134676Y-118585431D01*
X95115618Y-118611089D01*
X95093978Y-118640092D01*
X95069350Y-118672972D01*
X95041100Y-118710562D01*
X95008029Y-118754443D01*
X94966974Y-118808809D01*
X94951571Y-118829190D01*
X94906431Y-118888946D01*
X94886216Y-118915764D01*
X94868000Y-118940000D01*
D10*
X132796001Y-138052001D02*
X132456001Y-138440001D01*
X125768001Y-149076001D02*
X125632001Y-148828001D01*
D11*
X109192001Y-83303998D02*
X109191764Y-83278636D01*
X109191606Y-83253203D01*
X109191527Y-83227697D01*
X109191528Y-83202119D01*
X109191609Y-83176467D01*
X109191770Y-83150740D01*
X109192011Y-83124938D01*
X109192333Y-83099060D01*
X109192736Y-83073105D01*
X109193220Y-83047072D01*
X109193785Y-83020960D01*
X109194432Y-82994768D01*
X109195161Y-82968495D01*
X109195972Y-82942141D01*
X109196865Y-82915704D01*
X109197841Y-82889184D01*
X109198900Y-82862579D01*
X109200042Y-82835888D01*
X109201268Y-82809111D01*
X109202578Y-82782245D01*
X109203973Y-82755291D01*
X109205452Y-82728248D01*
X109207015Y-82701112D01*
X109208665Y-82673885D01*
X109210399Y-82646564D01*
X109212220Y-82619149D01*
X109214128Y-82591637D01*
X109216122Y-82564029D01*
X109218203Y-82536321D01*
X109220371Y-82508514D01*
X109222628Y-82480606D01*
X109224973Y-82452595D01*
X109227407Y-82424479D01*
X109229930Y-82396259D01*
X109232543Y-82367931D01*
X109235247Y-82339494D01*
X109238040Y-82310947D01*
X109240925Y-82282288D01*
X109243902Y-82253515D01*
X109246971Y-82224627D01*
X109250132Y-82195622D01*
X109253387Y-82166498D01*
X109256736Y-82137253D01*
X109260179Y-82107885D01*
X109263717Y-82078392D01*
X109267351Y-82048773D01*
X109271081Y-82019024D01*
X109274907Y-81989144D01*
X109278832Y-81959130D01*
X109282854Y-81928980D01*
X109286976Y-81898693D01*
X109291197Y-81868264D01*
X109295519Y-81837692D01*
X109299942Y-81806974D01*
X109304467Y-81776107D01*
X109309094Y-81745088D01*
X109313826Y-81713914D01*
X109318662Y-81682583D01*
X109323604Y-81651091D01*
X109328652Y-81619434D01*
X109333808Y-81587610D01*
X109339072Y-81555614D01*
X109344446Y-81523443D01*
X109349931Y-81491093D01*
X109355528Y-81458560D01*
X109361238Y-81425840D01*
X109367062Y-81392928D01*
X109373002Y-81359820D01*
X109379059Y-81326510D01*
X109385234Y-81292995D01*
X109391530Y-81259268D01*
X109397947Y-81225324D01*
X109404487Y-81191157D01*
X109411153Y-81156761D01*
X109416001Y-81131998D01*
D10*
X130768001Y-87371998D02*
X131144001Y-87795998D01*
D11*
X96024000Y-117288000D02*
X96009428Y-117309580D01*
X95991943Y-117335617D01*
X95971073Y-117366833D01*
X95946214Y-117404159D01*
X95916483Y-117448935D01*
X95880334Y-117503513D01*
X95833945Y-117573675D01*
X95813718Y-117604287D01*
X95781722Y-117652707D01*
X95751610Y-117698237D01*
X95724123Y-117739721D01*
X95711595Y-117758583D01*
X95700000Y-117776000D01*
D10*
X130500001Y-148296001D02*
X130172001Y-148260001D01*
X98608001Y-101739999D02*
X98896001Y-101215999D01*
X130008001Y-86559998D02*
X130388001Y-86959998D01*
X132292001Y-68847998D02*
X132044001Y-68999998D01*
X132800001Y-89807998D02*
X133148001Y-90243998D01*
X105296001Y-91815998D02*
X105600001Y-91355998D01*
X126412001Y-145784001D02*
X126556001Y-145252001D01*
X128920001Y-71115998D02*
X128648001Y-71191998D01*
X134432001Y-148380001D02*
X134076001Y-148688001D01*
X101812001Y-133716001D02*
X101700001Y-133428001D01*
X126060001Y-80807998D02*
X126176001Y-81119998D01*
X96220000Y-106932000D02*
X96444000Y-106396000D01*
X96880001Y-105363999D02*
X97260001Y-104515999D01*
X99764001Y-99767999D02*
X100068001Y-99303999D01*
X141968001Y-121244000D02*
X141964001Y-120532000D01*
X102160001Y-96247999D02*
X102508001Y-95767999D01*
X129636001Y-70631998D02*
X129196001Y-71019998D01*
X102460001Y-115256000D02*
X102564001Y-114928000D01*
X135172001Y-134276001D02*
X135036001Y-134568001D01*
X101236001Y-110320000D02*
X100840001Y-110652000D01*
X131420001Y-139956001D02*
X131356001Y-142092001D01*
X111300001Y-144584001D02*
X111652001Y-144984001D01*
X103192001Y-94883998D02*
X103320001Y-94627998D01*
X110456001Y-143132001D02*
X110660001Y-143688001D01*
X144332001Y-120508000D02*
X144084001Y-121484000D01*
X121256001Y-66511998D02*
X121580001Y-66611998D01*
X138824001Y-111864000D02*
X138548001Y-111440000D01*
X117260001Y-140788001D02*
X116772001Y-140528001D01*
X96104000Y-107228000D02*
X96220000Y-106932000D01*
X143264001Y-108452000D02*
X143548001Y-108964000D01*
X100556001Y-130124001D02*
X100448001Y-129784001D01*
X108820001Y-84575998D02*
X108912001Y-84239998D01*
X122876001Y-66911998D02*
X125440001Y-67107998D01*
X106680001Y-149344001D02*
X106388001Y-149392001D01*
X104336001Y-139212001D02*
X104276001Y-138900001D01*
X97748001Y-114584000D02*
X97584001Y-114840000D01*
X102848001Y-114024000D02*
X102928001Y-113708000D01*
D11*
X125768001Y-75631998D02*
X125768977Y-75700642D01*
X125769932Y-75769324D01*
X125770808Y-75833799D01*
X125771664Y-75898306D01*
X125772455Y-75959500D01*
X125773225Y-76020721D01*
X125773941Y-76079232D01*
X125774636Y-76137766D01*
X125775283Y-76194023D01*
X125775911Y-76250300D01*
X125776496Y-76304622D01*
X125777060Y-76358963D01*
X125777587Y-76411599D01*
X125778093Y-76464251D01*
X125778564Y-76515396D01*
X125779015Y-76566555D01*
X125779434Y-76616368D01*
X125779832Y-76666194D01*
X125780201Y-76714807D01*
X125780549Y-76763430D01*
X125780869Y-76810951D01*
X125781168Y-76858483D01*
X125781441Y-76905005D01*
X125781694Y-76951537D01*
X125781921Y-76997141D01*
X125782128Y-77042753D01*
X125782311Y-77087507D01*
X125782473Y-77132269D01*
X125782613Y-77176233D01*
X125782732Y-77220204D01*
X125782829Y-77263431D01*
X125782906Y-77306664D01*
X125782961Y-77349201D01*
X125782996Y-77391743D01*
X125783010Y-77433632D01*
X125783004Y-77475525D01*
X125782978Y-77516802D01*
X125782931Y-77558084D01*
X125782865Y-77598784D01*
X125782779Y-77639487D01*
X125782674Y-77679640D01*
X125782548Y-77719796D01*
X125782405Y-77759429D01*
X125782240Y-77799064D01*
X125782058Y-77838203D01*
X125781855Y-77877344D01*
X125781635Y-77916010D01*
X125781395Y-77954679D01*
X125781137Y-77992896D01*
X125780859Y-78031114D01*
X125780564Y-78068900D01*
X125780249Y-78106686D01*
X125779917Y-78144059D01*
X125779565Y-78181432D01*
X125779196Y-78218408D01*
X125778808Y-78255385D01*
X125778403Y-78291979D01*
X125777978Y-78328575D01*
X125777537Y-78364803D01*
X125777076Y-78401031D01*
X125776599Y-78436905D01*
X125776103Y-78472780D01*
X125775590Y-78508314D01*
X125775058Y-78543847D01*
X125774510Y-78579051D01*
X125773943Y-78614255D01*
X125773360Y-78649141D01*
X125772757Y-78684026D01*
X125772139Y-78718604D01*
X125771502Y-78753181D01*
X125770849Y-78787460D01*
X125770177Y-78821738D01*
X125769490Y-78855728D01*
X125768783Y-78889717D01*
X125768061Y-78923426D01*
X125767320Y-78957134D01*
X125766564Y-78990571D01*
X125765788Y-79024006D01*
X125764998Y-79057178D01*
X125764189Y-79090347D01*
X125763365Y-79123261D01*
X125762521Y-79156173D01*
X125761664Y-79188837D01*
X125760786Y-79221498D01*
X125759895Y-79253917D01*
X125758983Y-79286334D01*
X125758059Y-79318515D01*
X125757114Y-79350693D01*
X125756156Y-79382643D01*
X125755178Y-79414589D01*
X125754186Y-79446312D01*
X125753175Y-79478032D01*
X125752150Y-79509533D01*
X125751105Y-79541032D01*
X125750048Y-79572318D01*
X125748970Y-79603601D01*
X125747879Y-79634676D01*
X125746769Y-79665748D01*
X125745645Y-79696617D01*
X125744502Y-79727482D01*
X125743345Y-79758149D01*
X125742169Y-79788813D01*
X125740001Y-79843998D01*
D10*
X100476001Y-122124000D02*
X100552001Y-121788000D01*
X110404001Y-141828001D02*
X110328001Y-142088001D01*
X96932001Y-115764000D02*
X96820001Y-116036000D01*
D11*
X102420001Y-143664001D02*
X102440084Y-143643865D01*
X102466642Y-143617130D01*
X102504183Y-143579236D01*
X102522864Y-143560362D01*
X102556753Y-143526128D01*
X102591466Y-143491103D01*
X102626339Y-143455995D01*
X102643630Y-143438632D01*
X102660714Y-143421513D01*
X102677507Y-143404728D01*
X102693928Y-143388364D01*
X102709893Y-143372511D01*
X102725321Y-143357257D01*
X102740128Y-143342691D01*
X102754232Y-143328900D01*
X102767551Y-143315974D01*
X102773890Y-143309863D01*
X102780001Y-143304001D01*
X111652001Y-144984001D02*
X111670885Y-145004584D01*
X111694364Y-145030291D01*
X111723519Y-145062329D01*
X111760101Y-145102641D01*
X111807880Y-145155397D01*
X111845767Y-145197269D01*
X111891346Y-145247640D01*
X111934654Y-145295444D01*
X111954952Y-145317810D01*
X111974077Y-145338844D01*
X111991827Y-145358318D01*
X112008001Y-145376001D01*
D10*
X116488001Y-140484001D02*
X116000001Y-140244001D01*
D11*
X134760001Y-143064001D02*
X134765683Y-143067759D01*
X134771370Y-143071496D01*
X134777056Y-143075209D01*
X134782748Y-143078901D01*
X134788439Y-143082569D01*
X134794136Y-143086217D01*
X134799833Y-143089841D01*
X134805534Y-143093445D01*
X134811236Y-143097025D01*
X134816942Y-143100584D01*
X134822649Y-143104120D01*
X134828361Y-143107635D01*
X134834072Y-143111127D01*
X134839789Y-143114599D01*
X134845506Y-143118047D01*
X134851228Y-143121475D01*
X134856950Y-143124880D01*
X134862678Y-143128265D01*
X134868406Y-143131626D01*
X134874138Y-143134968D01*
X134879871Y-143138286D01*
X134885610Y-143141584D01*
X134891348Y-143144860D01*
X134897092Y-143148115D01*
X134902836Y-143151347D01*
X134908585Y-143154560D01*
X134914335Y-143157750D01*
X134920090Y-143160919D01*
X134925846Y-143164067D01*
X134931607Y-143167194D01*
X134937368Y-143170299D01*
X134943135Y-143173384D01*
X134948902Y-143176447D01*
X134954674Y-143179489D01*
X134960448Y-143182510D01*
X134966226Y-143185511D01*
X134972005Y-143188489D01*
X134977790Y-143191448D01*
X134983576Y-143194385D01*
X134989366Y-143197302D01*
X134995158Y-143200197D01*
X135000955Y-143203073D01*
X135006753Y-143205926D01*
X135012556Y-143208760D01*
X135018361Y-143211572D01*
X135024170Y-143214365D01*
X135029981Y-143217136D01*
X135035798Y-143219887D01*
X135041615Y-143222617D01*
X135047438Y-143225327D01*
X135053262Y-143228016D01*
X135059092Y-143230685D01*
X135064923Y-143233333D01*
X135070759Y-143235961D01*
X135076597Y-143238568D01*
X135082440Y-143241155D01*
X135088285Y-143243722D01*
X135094135Y-143246268D01*
X135099987Y-143248794D01*
X135105844Y-143251300D01*
X135111703Y-143253786D01*
X135117567Y-143256252D01*
X135123434Y-143258697D01*
X135129305Y-143261122D01*
X135135179Y-143263527D01*
X135141058Y-143265912D01*
X135146939Y-143268276D01*
X135152825Y-143270622D01*
X135158714Y-143272946D01*
X135164608Y-143275251D01*
X135170504Y-143277536D01*
X135176406Y-143279801D01*
X135182310Y-143282045D01*
X135188219Y-143284270D01*
X135194131Y-143286475D01*
X135200048Y-143288661D01*
X135205968Y-143290826D01*
X135211893Y-143292971D01*
X135217821Y-143295097D01*
X135223754Y-143297203D01*
X135229690Y-143299289D01*
X135235632Y-143301356D01*
X135241576Y-143303402D01*
X135247526Y-143305429D01*
X135253479Y-143307436D01*
X135259437Y-143309424D01*
X135265398Y-143311391D01*
X135271365Y-143313340D01*
X135277335Y-143315268D01*
X135283310Y-143317177D01*
X135289288Y-143319066D01*
X135295272Y-143320936D01*
X135301260Y-143322786D01*
X135307252Y-143324617D01*
X135313249Y-143326428D01*
X135319250Y-143328220D01*
X135325256Y-143329992D01*
X135331267Y-143331744D01*
X135337281Y-143333477D01*
X135343301Y-143335191D01*
X135349325Y-143336885D01*
X135355354Y-143338559D01*
X135361388Y-143340214D01*
X135367426Y-143341850D01*
X135373469Y-143343466D01*
X135379517Y-143345063D01*
X135385570Y-143346641D01*
X135391628Y-143348199D01*
X135397690Y-143349737D01*
X135403758Y-143351256D01*
X135409830Y-143352756D01*
X135415907Y-143354237D01*
X135421989Y-143355698D01*
X135428077Y-143357140D01*
X135434169Y-143358562D01*
X135440267Y-143359965D01*
X135446369Y-143361349D01*
X135452477Y-143362713D01*
X135464708Y-143365384D01*
X135476960Y-143367977D01*
X135489234Y-143370493D01*
X135501529Y-143372932D01*
X135513845Y-143375294D01*
X135526184Y-143377578D01*
X135538545Y-143379785D01*
X135550928Y-143381915D01*
X135563334Y-143383967D01*
X135575764Y-143385943D01*
X135588216Y-143387841D01*
X135600692Y-143389661D01*
X135613192Y-143391404D01*
X135625716Y-143393070D01*
X135638264Y-143394658D01*
X135650837Y-143396169D01*
X135663435Y-143397602D01*
X135676057Y-143398957D01*
X135688706Y-143400235D01*
X135701380Y-143401435D01*
X135714079Y-143402557D01*
X135726806Y-143403601D01*
X135739558Y-143404566D01*
X135752337Y-143405454D01*
X135765144Y-143406263D01*
X135777977Y-143406994D01*
X135790839Y-143407646D01*
X135803728Y-143408219D01*
X135816645Y-143408714D01*
X135829591Y-143409129D01*
X135842565Y-143409466D01*
X135855568Y-143409723D01*
X135868601Y-143409900D01*
X135881663Y-143409998D01*
X135894755Y-143410017D01*
X135907877Y-143409955D01*
X135921030Y-143409813D01*
X135934213Y-143409590D01*
X135947427Y-143409287D01*
X135960672Y-143408904D01*
X135973949Y-143408439D01*
X135987257Y-143407893D01*
X136000598Y-143407266D01*
X136013971Y-143406557D01*
X136027376Y-143405766D01*
X136040815Y-143404893D01*
X136054287Y-143403937D01*
X136067792Y-143402899D01*
X136081331Y-143401778D01*
X136094905Y-143400574D01*
X136108512Y-143399287D01*
X136122154Y-143397916D01*
X136135832Y-143396461D01*
X136140001Y-143396001D01*
D10*
X140008001Y-100499999D02*
X140288001Y-100979999D01*
X101400001Y-132624001D02*
X101296001Y-132316001D01*
X99220001Y-112540000D02*
X98884001Y-112972000D01*
X99656001Y-100023999D02*
X99764001Y-99767999D01*
D11*
X126196001Y-146268001D02*
X126201791Y-146254294D01*
X126208448Y-146238741D01*
X126216073Y-146221129D01*
X126224786Y-146201202D01*
X126234737Y-146178640D01*
X126246125Y-146153013D01*
X126259238Y-146123695D01*
X126274550Y-146089647D01*
X126293001Y-146048796D01*
X126321119Y-145986736D01*
X126346951Y-145929725D01*
X126359369Y-145902250D01*
X126371306Y-145875757D01*
X126382650Y-145850465D01*
X126393288Y-145826595D01*
X126398308Y-145815262D01*
X126403109Y-145804367D01*
X126407678Y-145793937D01*
X126412001Y-145784001D01*
X100460001Y-144532001D02*
X100497460Y-144512060D01*
X100553111Y-144482350D01*
X100596951Y-144458921D01*
X100646868Y-144432244D01*
X100698407Y-144404721D01*
X100750467Y-144376963D01*
X100801945Y-144349580D01*
X100827122Y-144336219D01*
X100851740Y-144323181D01*
X100875661Y-144310542D01*
X100898748Y-144298378D01*
X100920864Y-144286766D01*
X100941870Y-144275782D01*
X100961628Y-144265501D01*
X100980001Y-144256001D01*
D10*
X107924001Y-148816001D02*
X107680001Y-148944001D01*
X133096001Y-68207998D02*
X132732001Y-68543998D01*
X107172001Y-88527998D02*
X107304001Y-88247998D01*
X102132001Y-143756001D02*
X102420001Y-143664001D01*
X134292001Y-91795998D02*
X134464001Y-92047998D01*
D11*
X141668001Y-118544000D02*
X141668690Y-118537389D01*
X141669358Y-118530783D01*
X141670004Y-118524192D01*
X141670630Y-118517606D01*
X141671234Y-118511033D01*
X141671818Y-118504466D01*
X141672381Y-118497913D01*
X141672923Y-118491365D01*
X141673444Y-118484830D01*
X141673944Y-118478301D01*
X141674423Y-118471785D01*
X141674882Y-118465275D01*
X141675320Y-118458778D01*
X141675737Y-118452286D01*
X141676134Y-118445807D01*
X141676510Y-118439334D01*
X141676865Y-118432873D01*
X141677200Y-118426418D01*
X141677514Y-118419976D01*
X141677808Y-118413539D01*
X141678082Y-118407114D01*
X141678335Y-118400695D01*
X141678568Y-118394288D01*
X141678780Y-118387887D01*
X141678972Y-118381498D01*
X141679144Y-118375114D01*
X141679295Y-118368742D01*
X141679427Y-118362376D01*
X141679538Y-118356022D01*
X141679629Y-118349673D01*
X141679700Y-118343336D01*
X141679750Y-118337004D01*
X141679781Y-118330683D01*
X141679792Y-118324369D01*
X141679782Y-118318065D01*
X141679753Y-118311767D01*
X141679704Y-118305480D01*
X141679634Y-118299199D01*
X141679545Y-118292929D01*
X141679436Y-118286664D01*
X141679307Y-118280410D01*
X141679158Y-118274161D01*
X141678990Y-118267924D01*
X141678801Y-118261691D01*
X141678593Y-118255470D01*
X141678365Y-118249253D01*
X141678118Y-118243048D01*
X141677850Y-118236847D01*
X141677563Y-118230657D01*
X141677256Y-118224472D01*
X141676930Y-118218298D01*
X141676584Y-118212129D01*
X141676219Y-118205970D01*
X141675833Y-118199816D01*
X141675429Y-118193672D01*
X141675004Y-118187534D01*
X141674561Y-118181405D01*
X141674097Y-118175282D01*
X141673615Y-118169168D01*
X141673112Y-118163060D01*
X141672591Y-118156961D01*
X141672049Y-118150868D01*
X141671489Y-118144784D01*
X141670909Y-118138705D01*
X141670309Y-118132635D01*
X141669691Y-118126571D01*
X141669052Y-118120516D01*
X141668395Y-118114466D01*
X141667718Y-118108425D01*
X141667022Y-118102389D01*
X141666306Y-118096362D01*
X141665571Y-118090340D01*
X141664817Y-118084327D01*
X141664044Y-118078320D01*
X141663251Y-118072320D01*
X141662439Y-118066326D01*
X141661608Y-118060341D01*
X141660757Y-118054360D01*
X141659887Y-118048388D01*
X141658998Y-118042422D01*
X141658090Y-118036463D01*
X141657163Y-118030509D01*
X141656216Y-118024564D01*
X141655250Y-118018623D01*
X141654265Y-118012691D01*
X141653261Y-118006764D01*
X141652237Y-118000844D01*
X141651195Y-117994930D01*
X141650133Y-117989023D01*
X141649052Y-117983121D01*
X141647952Y-117977227D01*
X141646832Y-117971338D01*
X141645694Y-117965456D01*
X141644536Y-117959580D01*
X141643359Y-117953710D01*
X141642163Y-117947846D01*
X141640948Y-117941989D01*
X141639713Y-117936137D01*
X141638460Y-117930292D01*
X141637187Y-117924452D01*
X141635895Y-117918619D01*
X141634584Y-117912791D01*
X141633254Y-117906969D01*
X141631904Y-117901153D01*
X141630536Y-117895343D01*
X141629148Y-117889539D01*
X141627741Y-117883741D01*
X141626315Y-117877948D01*
X141624869Y-117872161D01*
X141623405Y-117866379D01*
X141621921Y-117860604D01*
X141620418Y-117854833D01*
X141618896Y-117849069D01*
X141617354Y-117843310D01*
X141615794Y-117837556D01*
X141614214Y-117831808D01*
X141612615Y-117826065D01*
X141610996Y-117820328D01*
X141607702Y-117808870D01*
X141604330Y-117797432D01*
X141600881Y-117786016D01*
X141597355Y-117774620D01*
X141593751Y-117763245D01*
X141590069Y-117751890D01*
X141586311Y-117740555D01*
X141582474Y-117729240D01*
X141578559Y-117717944D01*
X141574567Y-117706667D01*
X141570496Y-117695409D01*
X141566347Y-117684170D01*
X141562119Y-117672950D01*
X141557813Y-117661748D01*
X141553428Y-117650564D01*
X141548965Y-117639397D01*
X141544422Y-117628249D01*
X141539799Y-117617117D01*
X141535098Y-117606003D01*
X141530316Y-117594906D01*
X141525455Y-117583825D01*
X141520513Y-117572762D01*
X141515491Y-117561714D01*
X141510389Y-117550682D01*
X141505205Y-117539667D01*
X141499941Y-117528667D01*
X141494595Y-117517682D01*
X141489168Y-117506713D01*
X141483659Y-117495759D01*
X141478068Y-117484820D01*
X141472394Y-117473895D01*
X141466638Y-117462986D01*
X141460799Y-117452090D01*
X141454877Y-117441209D01*
X141448871Y-117430341D01*
X141442781Y-117419488D01*
X141436608Y-117408648D01*
X141430350Y-117397821D01*
X141424007Y-117387008D01*
X141417579Y-117376208D01*
X141411066Y-117365421D01*
X141404467Y-117354647D01*
X141397781Y-117343885D01*
X141391010Y-117333136D01*
X141384151Y-117322399D01*
X141377206Y-117311675D01*
X141370172Y-117300962D01*
X141363051Y-117290262D01*
X141355842Y-117279573D01*
X141348544Y-117268896D01*
X141341157Y-117258230D01*
X141333680Y-117247576D01*
X141326113Y-117236933D01*
X141318457Y-117226301D01*
X141310709Y-117215680D01*
X141308001Y-117212000D01*
X136564001Y-111380000D02*
X136559894Y-111388537D01*
X136555808Y-111397075D01*
X136551747Y-111405609D01*
X136547707Y-111414144D01*
X136543692Y-111422674D01*
X136539698Y-111431206D01*
X136535728Y-111439733D01*
X136531780Y-111448262D01*
X136527855Y-111456786D01*
X136523952Y-111465311D01*
X136520074Y-111473833D01*
X136516216Y-111482355D01*
X136512382Y-111490873D01*
X136508570Y-111499393D01*
X136504782Y-111507908D01*
X136501015Y-111516425D01*
X136497271Y-111524937D01*
X136493549Y-111533451D01*
X136489851Y-111541960D01*
X136486173Y-111550471D01*
X136482520Y-111558978D01*
X136478887Y-111567486D01*
X136475278Y-111575990D01*
X136471690Y-111584496D01*
X136468126Y-111592997D01*
X136464582Y-111601500D01*
X136461062Y-111609999D01*
X136457563Y-111618499D01*
X136454088Y-111626995D01*
X136450633Y-111635493D01*
X136447201Y-111643987D01*
X136443791Y-111652482D01*
X136440403Y-111660974D01*
X136437037Y-111669466D01*
X136433694Y-111677955D01*
X136430371Y-111686446D01*
X136427072Y-111694933D01*
X136423793Y-111703421D01*
X136420537Y-111711905D01*
X136417302Y-111720391D01*
X136414090Y-111728873D01*
X136410899Y-111737357D01*
X136407730Y-111745837D01*
X136404582Y-111754319D01*
X136401457Y-111762797D01*
X136398353Y-111771277D01*
X136395271Y-111779753D01*
X136392210Y-111788230D01*
X136389172Y-111796705D01*
X136386154Y-111805180D01*
X136383158Y-111813653D01*
X136380184Y-111822126D01*
X136377231Y-111830597D01*
X136374300Y-111839069D01*
X136371390Y-111847537D01*
X136368502Y-111856008D01*
X136365635Y-111864475D01*
X136362789Y-111872943D01*
X136359965Y-111881409D01*
X136357162Y-111889876D01*
X136354381Y-111898339D01*
X136351621Y-111906805D01*
X136348882Y-111915267D01*
X136346164Y-111923731D01*
X136343468Y-111932192D01*
X136340792Y-111940654D01*
X136338139Y-111949114D01*
X136335506Y-111957575D01*
X136332894Y-111966033D01*
X136330303Y-111974493D01*
X136327734Y-111982950D01*
X136325186Y-111991409D01*
X136322659Y-111999865D01*
X136320152Y-112008322D01*
X136317667Y-112016777D01*
X136315203Y-112025233D01*
X136312760Y-112033687D01*
X136310337Y-112042142D01*
X136307936Y-112050595D01*
X136305555Y-112059049D01*
X136303196Y-112067501D01*
X136300857Y-112075954D01*
X136298540Y-112084406D01*
X136296243Y-112092858D01*
X136293967Y-112101308D01*
X136291711Y-112109760D01*
X136289477Y-112118210D01*
X136287263Y-112126661D01*
X136285071Y-112135110D01*
X136282898Y-112143560D01*
X136280747Y-112152009D01*
X136278616Y-112160459D01*
X136276506Y-112168907D01*
X136274416Y-112177356D01*
X136272348Y-112185804D01*
X136270300Y-112194253D01*
X136268272Y-112202700D01*
X136266265Y-112211149D01*
X136264279Y-112219596D01*
X136262313Y-112228044D01*
X136260368Y-112236491D01*
X136258443Y-112244939D01*
X136256540Y-112253386D01*
X136254656Y-112261834D01*
X136252793Y-112270281D01*
X136250950Y-112278729D01*
X136249128Y-112287176D01*
X136247326Y-112295623D01*
X136245545Y-112304070D01*
X136243784Y-112312518D01*
X136242044Y-112320965D01*
X136240324Y-112329414D01*
X136238624Y-112337861D01*
X136236945Y-112346309D01*
X136235286Y-112354757D01*
X136233648Y-112363206D01*
X136232030Y-112371653D01*
X136230432Y-112380103D01*
X136228854Y-112388551D01*
X136227297Y-112397001D01*
X136225760Y-112405450D01*
X136224243Y-112413900D01*
X136222747Y-112422349D01*
X136221271Y-112430800D01*
X136219815Y-112439250D01*
X136218379Y-112447701D01*
X136216964Y-112456152D01*
X136215568Y-112464605D01*
X136214193Y-112473056D01*
X136212838Y-112481509D01*
X136211504Y-112489962D01*
X136210189Y-112498416D01*
X136208895Y-112506870D01*
X136207621Y-112515324D01*
X136206367Y-112523779D01*
X136205133Y-112532235D01*
X136203919Y-112540691D01*
X136202725Y-112549148D01*
X136201552Y-112557605D01*
X136200398Y-112566063D01*
X136199265Y-112574522D01*
X136198152Y-112582981D01*
X136197059Y-112591441D01*
X136195986Y-112599902D01*
X136194933Y-112608363D01*
X136193900Y-112616825D01*
X136192887Y-112625288D01*
X136191894Y-112633752D01*
X136190921Y-112642216D01*
X136189968Y-112650681D01*
X136189036Y-112659147D01*
X136188123Y-112667614D01*
X136187230Y-112676082D01*
X136186358Y-112684551D01*
X136185505Y-112693020D01*
X136184672Y-112701491D01*
X136183860Y-112709963D01*
X136183067Y-112718435D01*
X136182295Y-112726908D01*
X136181542Y-112735383D01*
X136180809Y-112743858D01*
X136180096Y-112752335D01*
X136179404Y-112760813D01*
X136178731Y-112769291D01*
X136178078Y-112777771D01*
X136177446Y-112786252D01*
X136176833Y-112794734D01*
X136176240Y-112803217D01*
X136175114Y-112820187D01*
X136174068Y-112837162D01*
X136173102Y-112854142D01*
X136172216Y-112871127D01*
X136171409Y-112888118D01*
X136170683Y-112905114D01*
X136170036Y-112922115D01*
X136169469Y-112939123D01*
X136168982Y-112956136D01*
X136168575Y-112973156D01*
X136168247Y-112990182D01*
X136168000Y-113007214D01*
X136167832Y-113024253D01*
X136167744Y-113041299D01*
X136167737Y-113058352D01*
X136167809Y-113075412D01*
X136167962Y-113092479D01*
X136168194Y-113109554D01*
X136168507Y-113126636D01*
X136168899Y-113143726D01*
X136169372Y-113160823D01*
X136169925Y-113177929D01*
X136170559Y-113195043D01*
X136171273Y-113212166D01*
X136172067Y-113229297D01*
X136172942Y-113246436D01*
X136173897Y-113263585D01*
X136174933Y-113280742D01*
X136176050Y-113297909D01*
X136177247Y-113315085D01*
X136178526Y-113332270D01*
X136179885Y-113349465D01*
X136181325Y-113366670D01*
X136182847Y-113383885D01*
X136184449Y-113401110D01*
X136186133Y-113418345D01*
X136187899Y-113435590D01*
X136189746Y-113452846D01*
X136191674Y-113470113D01*
X136193684Y-113487391D01*
X136195777Y-113504680D01*
X136197951Y-113521980D01*
X136200207Y-113539291D01*
X136202545Y-113556614D01*
X136204966Y-113573949D01*
X136207469Y-113591295D01*
X136210054Y-113608653D01*
X136212723Y-113626024D01*
X136215474Y-113643406D01*
X136218308Y-113660801D01*
X136221225Y-113678209D01*
X136224226Y-113695630D01*
X136227310Y-113713063D01*
X136230477Y-113730509D01*
X136233729Y-113747969D01*
X136237064Y-113765442D01*
X136240483Y-113782928D01*
X136243986Y-113800428D01*
X136247574Y-113817942D01*
X136248001Y-113820000D01*
D10*
X128976001Y-148436001D02*
X128492001Y-148644001D01*
D11*
X105796001Y-149336001D02*
X105764129Y-149320574D01*
X105718393Y-149298352D01*
X105661325Y-149270573D01*
X105616963Y-149248975D01*
X105571399Y-149226811D01*
X105525548Y-149204548D01*
X105480325Y-149182649D01*
X105458235Y-149171981D01*
X105436644Y-149161579D01*
X105415668Y-149151501D01*
X105395420Y-149141805D01*
X105376015Y-149132549D01*
X105357568Y-149123791D01*
X105340191Y-149115589D01*
X105324001Y-149108001D01*
D10*
X103224001Y-109932000D02*
X103052001Y-109700000D01*
X129196001Y-71019998D02*
X128920001Y-71115998D01*
X98536001Y-113380000D02*
X98408001Y-113632000D01*
X116772001Y-140528001D02*
X116488001Y-140484001D01*
X128500001Y-71715998D02*
X128136001Y-72123998D01*
X133960001Y-91331998D02*
X134292001Y-91795998D01*
X106760001Y-89339998D02*
X106900001Y-89059998D01*
X96824001Y-105659999D02*
X96880001Y-105363999D01*
D11*
X98184001Y-102551999D02*
X98203514Y-102514201D01*
X98232212Y-102458771D01*
X98259176Y-102406757D01*
X98285670Y-102355651D01*
X98312950Y-102302986D01*
X98340426Y-102249866D01*
X98367504Y-102197392D01*
X98380710Y-102171741D01*
X98393593Y-102146666D01*
X98406082Y-102122303D01*
X98418101Y-102098790D01*
X98429576Y-102076266D01*
X98440434Y-102054867D01*
X98450600Y-102034732D01*
X98460001Y-102015999D01*
D10*
X98048001Y-102831999D02*
X98184001Y-102551999D01*
X111324001Y-68271998D02*
X111756001Y-67911998D01*
X106320001Y-90147998D02*
X106472001Y-89875998D01*
D11*
X104480001Y-141928001D02*
X104494420Y-141842998D01*
X104507940Y-141763465D01*
X104526167Y-141656236D01*
X104545508Y-141542211D01*
X104555413Y-141483658D01*
X104565376Y-141424615D01*
X104575323Y-141365487D01*
X104585182Y-141306676D01*
X104594877Y-141248586D01*
X104604336Y-141191620D01*
X104613484Y-141136180D01*
X104622250Y-141082671D01*
X104626465Y-141056766D01*
X104630557Y-141031495D01*
X104634517Y-141006908D01*
X104638334Y-140983056D01*
X104642001Y-140959989D01*
X104645507Y-140937757D01*
X104648843Y-140916411D01*
X104652001Y-140896001D01*
D10*
X98884001Y-112972000D02*
X98536001Y-113380000D01*
X118736001Y-65759998D02*
X119088001Y-65831998D01*
X101844001Y-109860000D02*
X101444001Y-110160000D01*
X131296001Y-69415998D02*
X130856001Y-69751998D01*
D11*
X127872001Y-67115998D02*
X127915046Y-67110176D01*
X127958121Y-67104431D01*
X128001227Y-67098762D01*
X128044363Y-67093171D01*
X128087530Y-67087655D01*
X128130726Y-67082217D01*
X128173953Y-67076855D01*
X128217209Y-67071571D01*
X128260496Y-67066363D01*
X128303812Y-67061232D01*
X128347157Y-67056178D01*
X128390532Y-67051202D01*
X128433936Y-67046302D01*
X128477369Y-67041480D01*
X128520831Y-67036735D01*
X128564322Y-67032067D01*
X128607842Y-67027477D01*
X128651390Y-67022964D01*
X128694967Y-67018529D01*
X128738572Y-67014171D01*
X128782206Y-67009890D01*
X128825867Y-67005687D01*
X128869556Y-67001562D01*
X128913273Y-66997515D01*
X128957018Y-66993545D01*
X129000790Y-66989653D01*
X129044590Y-66985839D01*
X129088417Y-66982103D01*
X129132271Y-66978445D01*
X129176151Y-66974865D01*
X129220059Y-66971363D01*
X129263993Y-66967939D01*
X129307954Y-66964593D01*
X129351941Y-66961325D01*
X129395955Y-66958136D01*
X129439994Y-66955025D01*
X129484059Y-66951992D01*
X129528151Y-66949038D01*
X129572267Y-66946162D01*
X129616409Y-66943365D01*
X129660577Y-66940646D01*
X129704770Y-66938006D01*
X129748987Y-66935444D01*
X129793230Y-66932961D01*
X129837497Y-66930557D01*
X129881789Y-66928232D01*
X129926105Y-66925985D01*
X129970445Y-66923817D01*
X130014809Y-66921728D01*
X130059198Y-66919718D01*
X130103610Y-66917787D01*
X130148045Y-66915935D01*
X130192504Y-66914163D01*
X130236987Y-66912469D01*
X130281492Y-66910854D01*
X130326020Y-66909319D01*
X130370571Y-66907863D01*
X130415145Y-66906486D01*
X130459741Y-66905188D01*
X130504359Y-66903970D01*
X130548999Y-66902832D01*
X130593662Y-66901772D01*
X130638346Y-66900792D01*
X130683051Y-66899892D01*
X130727778Y-66899071D01*
X130772527Y-66898330D01*
X130817296Y-66897669D01*
X130862086Y-66897087D01*
X130906897Y-66896585D01*
X130951728Y-66896163D01*
X130972001Y-66895998D01*
D10*
X110324001Y-142484001D02*
X110456001Y-143132001D01*
X102840001Y-95303999D02*
X103192001Y-94883998D01*
D11*
X141244001Y-102799999D02*
X141253302Y-102819749D01*
X141264475Y-102843288D01*
X141277782Y-102871137D01*
X141293527Y-102903904D01*
X141312084Y-102942345D01*
X141333962Y-102987488D01*
X141359966Y-103040975D01*
X141391756Y-103106197D01*
X141425334Y-103174988D01*
X141463614Y-103253426D01*
X141480707Y-103288517D01*
X141496001Y-103319999D01*
D10*
X132056001Y-142636001D02*
X134760001Y-143064001D01*
X94560000Y-111820000D02*
X94844000Y-110904000D01*
X111756001Y-67911998D02*
X111996001Y-67735998D01*
X109788001Y-70043998D02*
X110140001Y-69707998D01*
D11*
X126236001Y-81427998D02*
X126262670Y-81473525D01*
X126291974Y-81523556D01*
X126324210Y-81578521D01*
X126341075Y-81607230D01*
X126358250Y-81636422D01*
X126375593Y-81665849D01*
X126392964Y-81695260D01*
X126410222Y-81724405D01*
X126427225Y-81753035D01*
X126443832Y-81780900D01*
X126459903Y-81807750D01*
X126475297Y-81833334D01*
X126482695Y-81845574D01*
X126489872Y-81857403D01*
X126496808Y-81868792D01*
X126503487Y-81879708D01*
X126509890Y-81890120D01*
X126516001Y-81899998D01*
D10*
X92844000Y-118036000D02*
X93000000Y-117364000D01*
X136100001Y-94471998D02*
X136420001Y-94951998D01*
X138512001Y-98095999D02*
X138828001Y-98579999D01*
X93648000Y-114996000D02*
X93732000Y-114668000D01*
X126516001Y-81899998D02*
X126644001Y-82163998D01*
X138024001Y-97359999D02*
X138348001Y-97839999D01*
X143548001Y-108964000D02*
X143656001Y-109636000D01*
D11*
X121580001Y-66611998D02*
X121584832Y-66615810D01*
X121589668Y-66619600D01*
X121594502Y-66623363D01*
X121599341Y-66627105D01*
X121604178Y-66630820D01*
X121609019Y-66634513D01*
X121613859Y-66638180D01*
X121618703Y-66641825D01*
X121623546Y-66645443D01*
X121628393Y-66649041D01*
X121633239Y-66652612D01*
X121638090Y-66656162D01*
X121642938Y-66659686D01*
X121647792Y-66663188D01*
X121652644Y-66666665D01*
X121657501Y-66670120D01*
X121662356Y-66673550D01*
X121667216Y-66676959D01*
X121672074Y-66680342D01*
X121676937Y-66683704D01*
X121681799Y-66687041D01*
X121686665Y-66690357D01*
X121691531Y-66693647D01*
X121696401Y-66696917D01*
X121701269Y-66700162D01*
X121706143Y-66703386D01*
X121711015Y-66706585D01*
X121715892Y-66709764D01*
X121720768Y-66712918D01*
X121725649Y-66716051D01*
X121730529Y-66719159D01*
X121735413Y-66722247D01*
X121740297Y-66725311D01*
X121745185Y-66728354D01*
X121750072Y-66731373D01*
X121754965Y-66734371D01*
X121759856Y-66737346D01*
X121764752Y-66740300D01*
X121769648Y-66743230D01*
X121774548Y-66746140D01*
X121779448Y-66749026D01*
X121784352Y-66751891D01*
X121789256Y-66754734D01*
X121794165Y-66757555D01*
X121799073Y-66760354D01*
X121803986Y-66763132D01*
X121808899Y-66765887D01*
X121813816Y-66768622D01*
X121818733Y-66771334D01*
X121823655Y-66774025D01*
X121828577Y-66776694D01*
X121833504Y-66779342D01*
X121838431Y-66781968D01*
X121843362Y-66784574D01*
X121848293Y-66787157D01*
X121853229Y-66789720D01*
X121858166Y-66792260D01*
X121863107Y-66794781D01*
X121868048Y-66797279D01*
X121872994Y-66799757D01*
X121877941Y-66802213D01*
X121882892Y-66804649D01*
X121887844Y-66807063D01*
X121892801Y-66809457D01*
X121897758Y-66811829D01*
X121902720Y-66814181D01*
X121907682Y-66816511D01*
X121912649Y-66818822D01*
X121917618Y-66821111D01*
X121922590Y-66823380D01*
X121927564Y-66825627D01*
X121932543Y-66827854D01*
X121937522Y-66830061D01*
X121942507Y-66832247D01*
X121947492Y-66834412D01*
X121952482Y-66836557D01*
X121957474Y-66838681D01*
X121962470Y-66840786D01*
X121967468Y-66842869D01*
X121972470Y-66844932D01*
X121977474Y-66846975D01*
X121982483Y-66848998D01*
X121987493Y-66851000D01*
X121992508Y-66852982D01*
X121997525Y-66854943D01*
X122002547Y-66856885D01*
X122007570Y-66858806D01*
X122012598Y-66860708D01*
X122017629Y-66862589D01*
X122022664Y-66864450D01*
X122027701Y-66866291D01*
X122032742Y-66868112D01*
X122037787Y-66869913D01*
X122042835Y-66871694D01*
X122047887Y-66873455D01*
X122052943Y-66875196D01*
X122058001Y-66876917D01*
X122063064Y-66878619D01*
X122068130Y-66880300D01*
X122073201Y-66881962D01*
X122078274Y-66883604D01*
X122083352Y-66885226D01*
X122088433Y-66886828D01*
X122093519Y-66888411D01*
X122098608Y-66889973D01*
X122103702Y-66891516D01*
X122108798Y-66893040D01*
X122113900Y-66894544D01*
X122119005Y-66896027D01*
X122124114Y-66897492D01*
X122129228Y-66898937D01*
X122134345Y-66900362D01*
X122139467Y-66901767D01*
X122144593Y-66903153D01*
X122149723Y-66904520D01*
X122154858Y-66905867D01*
X122159996Y-66907194D01*
X122165139Y-66908502D01*
X122170287Y-66909790D01*
X122175439Y-66911058D01*
X122180595Y-66912308D01*
X122185756Y-66913537D01*
X122196092Y-66915938D01*
X122206445Y-66918262D01*
X122216818Y-66920507D01*
X122227210Y-66922675D01*
X122237621Y-66924765D01*
X122248051Y-66926777D01*
X122258502Y-66928712D01*
X122268972Y-66930569D01*
X122279464Y-66932348D01*
X122289976Y-66934050D01*
X122300509Y-66935674D01*
X122311064Y-66937221D01*
X122321641Y-66938690D01*
X122332239Y-66940081D01*
X122342860Y-66941394D01*
X122353504Y-66942630D01*
X122364171Y-66943787D01*
X122374861Y-66944867D01*
X122385575Y-66945869D01*
X122396313Y-66946792D01*
X122407076Y-66947638D01*
X122417863Y-66948405D01*
X122428675Y-66949093D01*
X122439512Y-66949703D01*
X122450375Y-66950235D01*
X122461264Y-66950687D01*
X122472180Y-66951061D01*
X122483122Y-66951355D01*
X122494091Y-66951570D01*
X122505087Y-66951705D01*
X122516111Y-66951761D01*
X122527163Y-66951737D01*
X122538243Y-66951633D01*
X122549352Y-66951448D01*
X122560491Y-66951183D01*
X122571658Y-66950837D01*
X122582855Y-66950410D01*
X122594082Y-66949902D01*
X122605340Y-66949313D01*
X122616628Y-66948641D01*
X122627947Y-66947888D01*
X122639298Y-66947052D01*
X122650681Y-66946134D01*
X122662095Y-66945133D01*
X122673542Y-66944049D01*
X122685022Y-66942881D01*
X122696535Y-66941629D01*
X122708081Y-66940293D01*
X122719662Y-66938873D01*
X122731276Y-66937367D01*
X122742925Y-66935777D01*
X122754609Y-66934101D01*
X122766328Y-66932339D01*
X122778082Y-66930491D01*
X122789873Y-66928556D01*
X122801699Y-66926534D01*
X122813563Y-66924425D01*
X122825463Y-66922227D01*
X122837400Y-66919942D01*
X122849375Y-66917568D01*
X122861388Y-66915104D01*
X122873440Y-66912551D01*
X122876001Y-66911998D01*
D10*
X136444001Y-129844001D02*
X136316001Y-130888001D01*
X109204001Y-75595998D02*
X109196001Y-75207998D01*
X100844001Y-120896000D02*
X100936001Y-120572000D01*
X94404000Y-112500000D02*
X94560000Y-111820000D01*
X133480001Y-149064001D02*
X133240001Y-149112001D01*
X95700000Y-117776000D02*
X95532000Y-118028000D01*
X134768001Y-135096001D02*
X134632001Y-135356001D01*
X144052001Y-112060000D02*
X144056001Y-112408000D01*
X98896001Y-101215999D02*
X99044001Y-100947999D01*
X137568001Y-143996001D02*
X137976001Y-144292001D01*
X126312001Y-74427998D02*
X126144001Y-74703998D01*
X127644001Y-149144001D02*
X127164001Y-149376001D01*
X101212001Y-119672000D02*
X101364001Y-119004000D01*
D11*
X143656001Y-109636000D02*
X143654822Y-109642488D01*
X143653663Y-109648972D01*
X143652527Y-109655446D01*
X143651412Y-109661917D01*
X143650319Y-109668377D01*
X143649247Y-109674834D01*
X143648196Y-109681282D01*
X143647167Y-109687725D01*
X143646159Y-109694159D01*
X143645172Y-109700589D01*
X143644207Y-109707010D01*
X143643262Y-109713427D01*
X143642340Y-109719835D01*
X143641437Y-109726239D01*
X143640557Y-109732634D01*
X143639697Y-109739025D01*
X143638858Y-109745407D01*
X143638041Y-109751786D01*
X143637244Y-109758155D01*
X143636468Y-109764521D01*
X143635714Y-109770878D01*
X143634979Y-109777231D01*
X143634267Y-109783575D01*
X143633574Y-109789916D01*
X143632903Y-109796248D01*
X143632252Y-109802577D01*
X143631622Y-109808897D01*
X143631013Y-109815213D01*
X143630424Y-109821521D01*
X143629856Y-109827825D01*
X143629309Y-109834121D01*
X143628782Y-109840414D01*
X143628276Y-109846698D01*
X143627791Y-109852978D01*
X143627326Y-109859251D01*
X143626881Y-109865520D01*
X143626457Y-109871781D01*
X143626053Y-109878038D01*
X143625670Y-109884288D01*
X143625307Y-109890534D01*
X143624965Y-109896772D01*
X143624642Y-109903007D01*
X143624340Y-109909234D01*
X143624059Y-109915458D01*
X143623798Y-109921674D01*
X143623557Y-109927886D01*
X143623336Y-109934091D01*
X143623135Y-109940293D01*
X143622955Y-109946488D01*
X143622794Y-109952678D01*
X143622654Y-109958862D01*
X143622534Y-109965042D01*
X143622435Y-109971216D01*
X143622355Y-109977385D01*
X143622295Y-109983548D01*
X143622255Y-109989707D01*
X143622236Y-109995860D01*
X143622236Y-110002009D01*
X143622257Y-110008151D01*
X143622297Y-110014290D01*
X143622357Y-110020422D01*
X143622438Y-110026551D01*
X143622538Y-110032673D01*
X143622658Y-110038792D01*
X143622798Y-110044905D01*
X143622958Y-110051014D01*
X143623138Y-110057117D01*
X143623338Y-110063217D01*
X143623558Y-110069310D01*
X143623797Y-110075400D01*
X143624056Y-110081484D01*
X143624335Y-110087564D01*
X143624634Y-110093639D01*
X143624953Y-110099710D01*
X143625292Y-110105776D01*
X143625650Y-110111838D01*
X143626028Y-110117894D01*
X143626426Y-110123947D01*
X143626843Y-110129995D01*
X143627281Y-110136039D01*
X143627738Y-110142078D01*
X143628214Y-110148113D01*
X143628711Y-110154143D01*
X143629227Y-110160170D01*
X143629763Y-110166192D01*
X143630319Y-110172210D01*
X143630894Y-110178223D01*
X143631489Y-110184232D01*
X143632104Y-110190237D01*
X143632738Y-110196239D01*
X143633392Y-110202235D01*
X143634066Y-110208228D01*
X143634759Y-110214217D01*
X143635472Y-110220202D01*
X143636205Y-110226183D01*
X143636957Y-110232160D01*
X143637730Y-110238133D01*
X143638521Y-110244102D01*
X143639333Y-110250067D01*
X143640164Y-110256029D01*
X143641015Y-110261986D01*
X143641885Y-110267940D01*
X143642775Y-110273890D01*
X143643685Y-110279837D01*
X143644614Y-110285780D01*
X143645563Y-110291719D01*
X143646532Y-110297654D01*
X143647521Y-110303586D01*
X143648529Y-110309515D01*
X143649556Y-110315439D01*
X143650604Y-110321361D01*
X143651671Y-110327279D01*
X143653865Y-110339104D01*
X143656137Y-110350916D01*
X143658488Y-110362714D01*
X143660919Y-110374500D01*
X143663428Y-110386272D01*
X143666016Y-110398032D01*
X143668684Y-110409780D01*
X143671431Y-110421515D01*
X143674257Y-110433239D01*
X143677163Y-110444950D01*
X143680148Y-110456650D01*
X143683213Y-110468339D01*
X143686358Y-110480017D01*
X143689582Y-110491683D01*
X143692887Y-110503339D01*
X143696272Y-110514985D01*
X143699737Y-110526620D01*
X143703283Y-110538246D01*
X143706910Y-110549861D01*
X143710617Y-110561467D01*
X143714405Y-110573063D01*
X143718274Y-110584650D01*
X143722225Y-110596228D01*
X143726258Y-110607797D01*
X143730372Y-110619358D01*
X143734567Y-110630910D01*
X143738846Y-110642454D01*
X143743206Y-110653990D01*
X143747649Y-110665517D01*
X143752175Y-110677037D01*
X143756784Y-110688550D01*
X143761476Y-110700055D01*
X143766251Y-110711553D01*
X143771110Y-110723044D01*
X143776054Y-110734529D01*
X143781081Y-110746006D01*
X143786194Y-110757477D01*
X143791390Y-110768942D01*
X143796673Y-110780401D01*
X143802040Y-110791853D01*
X143807493Y-110803300D01*
X143813032Y-110814741D01*
X143818657Y-110826177D01*
X143824369Y-110837607D01*
X143830168Y-110849033D01*
X143836054Y-110860453D01*
X143842027Y-110871868D01*
X143848089Y-110883278D01*
X143854238Y-110894684D01*
X143860476Y-110906086D01*
X143866803Y-110917483D01*
X143873219Y-110928875D01*
X143879725Y-110940264D01*
X143886320Y-110951649D01*
X143893006Y-110963030D01*
X143899783Y-110974408D01*
X143906650Y-110985781D01*
X143908001Y-110988000D01*
X141240001Y-124860000D02*
X141240040Y-124838646D01*
X141240165Y-124813900D01*
X141240388Y-124785245D01*
X141240725Y-124752000D01*
X141241197Y-124713179D01*
X141241832Y-124667173D01*
X141242685Y-124610772D01*
X141244037Y-124526268D01*
X141244778Y-124480349D01*
X141245495Y-124434966D01*
X141246165Y-124390583D01*
X141246765Y-124347668D01*
X141247031Y-124326906D01*
X141247271Y-124306686D01*
X141247482Y-124287066D01*
X141247661Y-124268103D01*
X141247806Y-124249857D01*
X141247912Y-124232386D01*
X141247978Y-124215747D01*
X141248001Y-124200000D01*
D10*
X108388001Y-148556001D02*
X107924001Y-148816001D01*
M02*
