%TF.GenerationSoftware,KiCad,Pcbnew,9.0.2*%
%TF.CreationDate,2025-06-10T19:07:20+03:00*%
%TF.ProjectId,project,70726f6a-6563-4742-9e6b-696361645f70,rev?*%
%TF.SameCoordinates,Original*%
%TF.FileFunction,Legend,Top*%
%TF.FilePolarity,Positive*%
%FSLAX46Y46*%
G04 Gerber Fmt 4.6, Leading zero omitted, Abs format (unit mm)*
G04 Created by KiCad (PCBNEW 9.0.2) date 2025-06-10 19:07:20*
%MOMM*%
%LPD*%
G01*
G04 APERTURE LIST*
%ADD10C,0.150000*%
%ADD11C,0.120000*%
G04 APERTURE END LIST*
D10*
X117991905Y-76914819D02*
X117991905Y-75914819D01*
X117991905Y-75914819D02*
X118230000Y-75914819D01*
X118230000Y-75914819D02*
X118372857Y-75962438D01*
X118372857Y-75962438D02*
X118468095Y-76057676D01*
X118468095Y-76057676D02*
X118515714Y-76152914D01*
X118515714Y-76152914D02*
X118563333Y-76343390D01*
X118563333Y-76343390D02*
X118563333Y-76486247D01*
X118563333Y-76486247D02*
X118515714Y-76676723D01*
X118515714Y-76676723D02*
X118468095Y-76771961D01*
X118468095Y-76771961D02*
X118372857Y-76867200D01*
X118372857Y-76867200D02*
X118230000Y-76914819D01*
X118230000Y-76914819D02*
X117991905Y-76914819D01*
X119515714Y-76914819D02*
X118944286Y-76914819D01*
X119230000Y-76914819D02*
X119230000Y-75914819D01*
X119230000Y-75914819D02*
X119134762Y-76057676D01*
X119134762Y-76057676D02*
X119039524Y-76152914D01*
X119039524Y-76152914D02*
X118944286Y-76200533D01*
X115324819Y-87666666D02*
X114848628Y-87999999D01*
X115324819Y-88238094D02*
X114324819Y-88238094D01*
X114324819Y-88238094D02*
X114324819Y-87857142D01*
X114324819Y-87857142D02*
X114372438Y-87761904D01*
X114372438Y-87761904D02*
X114420057Y-87714285D01*
X114420057Y-87714285D02*
X114515295Y-87666666D01*
X114515295Y-87666666D02*
X114658152Y-87666666D01*
X114658152Y-87666666D02*
X114753390Y-87714285D01*
X114753390Y-87714285D02*
X114801009Y-87761904D01*
X114801009Y-87761904D02*
X114848628Y-87857142D01*
X114848628Y-87857142D02*
X114848628Y-88238094D01*
X115324819Y-86714285D02*
X115324819Y-87285713D01*
X115324819Y-86999999D02*
X114324819Y-86999999D01*
X114324819Y-86999999D02*
X114467676Y-87095237D01*
X114467676Y-87095237D02*
X114562914Y-87190475D01*
X114562914Y-87190475D02*
X114610533Y-87285713D01*
X106166667Y-98657200D02*
X106309524Y-98704819D01*
X106309524Y-98704819D02*
X106547619Y-98704819D01*
X106547619Y-98704819D02*
X106642857Y-98657200D01*
X106642857Y-98657200D02*
X106690476Y-98609580D01*
X106690476Y-98609580D02*
X106738095Y-98514342D01*
X106738095Y-98514342D02*
X106738095Y-98419104D01*
X106738095Y-98419104D02*
X106690476Y-98323866D01*
X106690476Y-98323866D02*
X106642857Y-98276247D01*
X106642857Y-98276247D02*
X106547619Y-98228628D01*
X106547619Y-98228628D02*
X106357143Y-98181009D01*
X106357143Y-98181009D02*
X106261905Y-98133390D01*
X106261905Y-98133390D02*
X106214286Y-98085771D01*
X106214286Y-98085771D02*
X106166667Y-97990533D01*
X106166667Y-97990533D02*
X106166667Y-97895295D01*
X106166667Y-97895295D02*
X106214286Y-97800057D01*
X106214286Y-97800057D02*
X106261905Y-97752438D01*
X106261905Y-97752438D02*
X106357143Y-97704819D01*
X106357143Y-97704819D02*
X106595238Y-97704819D01*
X106595238Y-97704819D02*
X106738095Y-97752438D01*
X107071429Y-97704819D02*
X107309524Y-98704819D01*
X107309524Y-98704819D02*
X107500000Y-97990533D01*
X107500000Y-97990533D02*
X107690476Y-98704819D01*
X107690476Y-98704819D02*
X107928572Y-97704819D01*
X108833333Y-98704819D02*
X108261905Y-98704819D01*
X108547619Y-98704819D02*
X108547619Y-97704819D01*
X108547619Y-97704819D02*
X108452381Y-97847676D01*
X108452381Y-97847676D02*
X108357143Y-97942914D01*
X108357143Y-97942914D02*
X108261905Y-97990533D01*
X118714285Y-113681009D02*
X118857142Y-113728628D01*
X118857142Y-113728628D02*
X118904761Y-113776247D01*
X118904761Y-113776247D02*
X118952380Y-113871485D01*
X118952380Y-113871485D02*
X118952380Y-114014342D01*
X118952380Y-114014342D02*
X118904761Y-114109580D01*
X118904761Y-114109580D02*
X118857142Y-114157200D01*
X118857142Y-114157200D02*
X118761904Y-114204819D01*
X118761904Y-114204819D02*
X118380952Y-114204819D01*
X118380952Y-114204819D02*
X118380952Y-113204819D01*
X118380952Y-113204819D02*
X118714285Y-113204819D01*
X118714285Y-113204819D02*
X118809523Y-113252438D01*
X118809523Y-113252438D02*
X118857142Y-113300057D01*
X118857142Y-113300057D02*
X118904761Y-113395295D01*
X118904761Y-113395295D02*
X118904761Y-113490533D01*
X118904761Y-113490533D02*
X118857142Y-113585771D01*
X118857142Y-113585771D02*
X118809523Y-113633390D01*
X118809523Y-113633390D02*
X118714285Y-113681009D01*
X118714285Y-113681009D02*
X118380952Y-113681009D01*
X119238095Y-113204819D02*
X119809523Y-113204819D01*
X119523809Y-114204819D02*
X119523809Y-113204819D01*
X120666666Y-114204819D02*
X120095238Y-114204819D01*
X120380952Y-114204819D02*
X120380952Y-113204819D01*
X120380952Y-113204819D02*
X120285714Y-113347676D01*
X120285714Y-113347676D02*
X120190476Y-113442914D01*
X120190476Y-113442914D02*
X120095238Y-113490533D01*
D11*
%TO.C,D1*%
X121290000Y-74045000D02*
X121290000Y-70955000D01*
X115740000Y-72500000D02*
G75*
G02*
X121290000Y-70955170I2990000J0D01*
G01*
X121290000Y-74044830D02*
G75*
G02*
X115740000Y-72500000I-2560000J1544830D01*
G01*
X121230000Y-72500000D02*
G75*
G02*
X116230000Y-72500000I-2500000J0D01*
G01*
X116230000Y-72500000D02*
G75*
G02*
X121230000Y-72500000I2500000J0D01*
G01*
%TO.C,R1*%
X111130000Y-84230000D02*
X111130000Y-90770000D01*
X111130000Y-90770000D02*
X111460000Y-90770000D01*
X111460000Y-84230000D02*
X111130000Y-84230000D01*
X113540000Y-84230000D02*
X113870000Y-84230000D01*
X113870000Y-84230000D02*
X113870000Y-90770000D01*
X113870000Y-90770000D02*
X113540000Y-90770000D01*
%TO.C,SW1*%
X104000000Y-101750000D02*
X104000000Y-103250000D01*
X105250000Y-105750000D02*
X109750000Y-105750000D01*
X109750000Y-99250000D02*
X105250000Y-99250000D01*
X111000000Y-103250000D02*
X111000000Y-101750000D01*
%TO.C,BT1*%
X108720000Y-119790000D02*
X108720000Y-122250000D01*
X108720000Y-128250000D02*
X108720000Y-128880000D01*
X108720000Y-128880000D02*
X110160000Y-132830000D01*
X110800000Y-117710000D02*
X108720000Y-119790000D01*
X114300000Y-117710000D02*
X110800000Y-117710000D01*
X128200000Y-117710000D02*
X124700000Y-117710000D01*
X128200000Y-117710000D02*
X130280000Y-119790000D01*
X130280000Y-119790000D02*
X130280000Y-122250000D01*
X130280000Y-128250000D02*
X130280000Y-128880000D01*
X130280000Y-128880000D02*
X128840000Y-132830000D01*
X113496646Y-133816530D02*
G75*
G02*
X110160000Y-132830000I-1306646J1716531D01*
G01*
X128825243Y-132838169D02*
G75*
G02*
X125500000Y-133800000I-2015243J738169D01*
G01*
%TD*%
M02*
